%
M48
M72
T01C0.04000
T02C0.13000
%
T01
X59287Y66358
X66358Y59287
X73429Y52216
X86964Y65751
X79893Y72822
X72822Y79893
X65751Y86964
X72822Y94036
X79893Y101107
X86964Y94036
X94036Y101107
X101107Y94036
X94036Y86964
X101107Y79893
X94036Y72822
X86964Y79893
X79893Y86964
X52216Y73429
X21400Y81400
X21400Y91400
X21400Y101400
X21400Y111400
X81400Y21400
X91400Y21400
X101400Y21400
X111400Y21400
T02
X28500Y28500
X46400Y106400
X106400Y46400
M30
