%
M48
M72
T01C0.01378
T02C0.03200
T03C0.04000
T04C0.13000
%
T01
X56394Y46483
X56394Y56394
X56394Y66394
X56394Y76394
X66394Y81394
X81394Y76394
X73894Y68894
X76394Y61394
X76394Y56305
X76394Y47894
X76394Y41394
X111394Y56394
X141394Y76394
X131394Y81394
X166394Y61394
X171394Y51394
X196422Y51394
X216112Y61112
X216394Y66394
X216394Y76305
X201394Y81394
X191394Y71394
X201394Y66305
X176394Y76394
X186394Y91394
X181394Y96394
X186394Y101394
X196422Y111394
X216112Y121112
X216394Y126394
X216394Y136305
X201394Y141394
X191394Y131483
X201394Y126305
X176394Y136394
X163894Y136394
X176394Y151394
X141394Y126394
X116394Y116394
X96394Y121394
X113993Y131417
X116394Y141394
X101394Y141394
X76394Y121483
X76394Y116483
X76394Y107894
X76394Y101394
X56394Y106483
X56394Y116394
X56394Y126305
X56394Y136394
X91394Y81394
X136394Y146394
T02
X141394Y46394
X131394Y46394
X151394Y46394
X161394Y46394
T03
X161394Y21894
X171394Y20894
X151394Y20894
X141394Y21894
X121894Y21394
X110894Y21394
X46394Y41394
X36394Y41394
X26394Y41394
X16394Y41394
X16394Y51394
X26394Y51394
X36394Y51394
X46394Y51394
X46394Y61394
X36394Y61394
X26394Y61394
X16394Y61394
X16394Y71394
X26394Y71394
X36394Y71394
X46394Y71394
X36394Y81394
X26394Y81394
X26394Y101394
X16394Y101394
X16394Y111394
X26394Y111394
X36394Y111394
X46394Y111394
X46394Y101394
X36394Y101394
X36394Y121394
X46394Y121394
X46394Y131394
X36394Y131394
X26394Y131394
X16394Y131394
X16394Y121394
X26394Y121394
X26394Y141394
X36394Y141394
X226394Y141394
X236394Y141394
X246394Y141394
X256394Y141394
X256394Y131394
X246394Y131394
X236394Y131394
X226394Y131394
X226394Y121394
X236394Y121394
X246394Y121394
X256394Y121394
X256394Y111394
X246394Y111394
X236394Y111394
X226394Y111394
X236394Y101394
X246394Y101394
X246394Y81394
X256394Y81394
X256394Y71394
X246394Y71394
X236394Y71394
X226394Y71394
X226394Y81394
X236394Y81394
X236394Y61394
X246394Y61394
X256394Y61394
X256394Y51394
X246394Y51394
X236394Y51394
X226394Y51394
X226394Y61394
X236394Y41394
X246394Y41394
T04
X21394Y21394
X21394Y161394
X251394Y161394
X251394Y21394
M30
