%
M48
M72
T01C0.0138
T02C0.0320
T03C0.0400
T04C0.1300
%
T01
X5639Y4648
X5639Y5639
X5639Y6639
X5639Y7639
X6639Y8139
X8139Y7639
X7389Y6889
X7639Y6139
X7639Y5630
X7639Y4789
X7639Y4139
X11139Y5639
X14139Y7639
X13139Y8139
X16639Y6139
X17139Y5139
X19642Y5139
X21611Y6111
X21639Y6639
X21639Y7630
X20139Y8139
X19139Y7139
X20139Y6630
X17639Y7639
X18639Y9139
X18139Y9639
X18639Y10139
X19642Y11139
X21611Y12111
X21639Y12639
X21639Y13630
X20139Y14139
X19139Y13148
X20139Y12630
X17639Y13639
X16389Y13639
X17639Y15139
X14139Y12639
X11639Y11639
X9639Y12139
X11399Y13142
X11639Y14139
X10139Y14139
X7639Y12148
X7639Y11648
X7639Y10789
X7639Y10139
X5639Y10648
X5639Y11639
X5639Y12630
X5639Y13639
X9139Y8139
X13639Y14639
T02
X13139Y4639
X14139Y4639
X15139Y4639
X16139Y4639
T03
X16139Y2189
X17139Y2089
X15139Y2089
X14139Y2189
X12189Y2139
X11089Y2139
X4639Y4139
X3639Y4139
X2639Y4139
X1639Y4139
X1639Y5139
X2639Y5139
X3639Y5139
X4639Y5139
X4639Y6139
X3639Y6139
X2639Y6139
X1639Y6139
X1639Y7139
X2639Y7139
X3639Y7139
X4639Y7139
X3639Y8139
X2639Y8139
X2639Y10139
X1639Y10139
X1639Y11139
X2639Y11139
X3639Y11139
X4639Y11139
X4639Y10139
X3639Y10139
X3639Y12139
X2639Y12139
X1639Y12139
X1639Y13139
X2639Y13139
X3639Y13139
X4639Y13139
X4639Y12139
X3639Y14139
X2639Y14139
X22639Y14139
X23639Y14139
X24639Y14139
X25639Y14139
X25639Y13139
X24639Y13139
X23639Y13139
X22639Y13139
X22639Y12139
X23639Y12139
X24639Y12139
X25639Y12139
X25639Y11139
X24639Y11139
X23639Y11139
X22639Y11139
X23639Y10139
X24639Y10139
X24639Y8139
X25639Y8139
X25639Y7139
X24639Y7139
X23639Y7139
X22639Y7139
X22639Y8139
X23639Y8139
X23639Y6139
X22639Y6139
X22639Y5139
X23639Y5139
X24639Y5139
X25639Y5139
X25639Y6139
X24639Y6139
X24639Y4139
X23639Y4139
T04
X2139Y2139
X2139Y16139
X25139Y16139
X25139Y2139
M30
