G75*
%MOIN*%
%OFA0B0*%
%FSLAX25Y25*%
%IPPOS*%
%LPD*%
%AMOC8*
5,1,8,0,0,1.08239X$1,22.5*
%
%ADD10C,0.00600*%
%ADD11C,0.00787*%
%ADD12C,0.00000*%
D10*
X0021394Y0001394D02*
X0251394Y0001394D01*
X0271394Y0021394D02*
X0271394Y0161394D01*
X0251394Y0181394D02*
X0021394Y0181394D01*
X0001394Y0161394D02*
X0001394Y0021394D01*
D11*
X0001400Y0020911D01*
X0001417Y0020428D01*
X0001447Y0019945D01*
X0001487Y0019464D01*
X0001540Y0018983D01*
X0001604Y0018504D01*
X0001679Y0018027D01*
X0001767Y0017551D01*
X0001865Y0017078D01*
X0001975Y0016608D01*
X0002096Y0016140D01*
X0002229Y0015675D01*
X0002373Y0015214D01*
X0002528Y0014756D01*
X0002694Y0014302D01*
X0002871Y0013852D01*
X0003058Y0013407D01*
X0003257Y0012966D01*
X0003465Y0012530D01*
X0003685Y0012100D01*
X0003915Y0011674D01*
X0004155Y0011255D01*
X0004405Y0010841D01*
X0004665Y0010434D01*
X0004934Y0010033D01*
X0005214Y0009638D01*
X0005502Y0009251D01*
X0005801Y0008870D01*
X0006108Y0008497D01*
X0006424Y0008132D01*
X0006749Y0007774D01*
X0007082Y0007424D01*
X0007424Y0007082D01*
X0007774Y0006749D01*
X0008132Y0006424D01*
X0008497Y0006108D01*
X0008870Y0005801D01*
X0009251Y0005502D01*
X0009638Y0005214D01*
X0010033Y0004934D01*
X0010434Y0004665D01*
X0010841Y0004405D01*
X0011255Y0004155D01*
X0011674Y0003915D01*
X0012100Y0003685D01*
X0012530Y0003465D01*
X0012966Y0003257D01*
X0013407Y0003058D01*
X0013852Y0002871D01*
X0014302Y0002694D01*
X0014756Y0002528D01*
X0015214Y0002373D01*
X0015675Y0002229D01*
X0016140Y0002096D01*
X0016608Y0001975D01*
X0017078Y0001865D01*
X0017551Y0001767D01*
X0018027Y0001679D01*
X0018504Y0001604D01*
X0018983Y0001540D01*
X0019464Y0001487D01*
X0019945Y0001447D01*
X0020428Y0001417D01*
X0020911Y0001400D01*
X0021394Y0001394D01*
X0251394Y0001394D02*
X0251877Y0001400D01*
X0252360Y0001417D01*
X0252843Y0001447D01*
X0253324Y0001487D01*
X0253805Y0001540D01*
X0254284Y0001604D01*
X0254761Y0001679D01*
X0255237Y0001767D01*
X0255710Y0001865D01*
X0256180Y0001975D01*
X0256648Y0002096D01*
X0257113Y0002229D01*
X0257574Y0002373D01*
X0258032Y0002528D01*
X0258486Y0002694D01*
X0258936Y0002871D01*
X0259381Y0003058D01*
X0259822Y0003257D01*
X0260258Y0003465D01*
X0260688Y0003685D01*
X0261114Y0003915D01*
X0261533Y0004155D01*
X0261947Y0004405D01*
X0262354Y0004665D01*
X0262755Y0004934D01*
X0263150Y0005214D01*
X0263537Y0005502D01*
X0263918Y0005801D01*
X0264291Y0006108D01*
X0264656Y0006424D01*
X0265014Y0006749D01*
X0265364Y0007082D01*
X0265706Y0007424D01*
X0266039Y0007774D01*
X0266364Y0008132D01*
X0266680Y0008497D01*
X0266987Y0008870D01*
X0267286Y0009251D01*
X0267574Y0009638D01*
X0267854Y0010033D01*
X0268123Y0010434D01*
X0268383Y0010841D01*
X0268633Y0011255D01*
X0268873Y0011674D01*
X0269103Y0012100D01*
X0269323Y0012530D01*
X0269531Y0012966D01*
X0269730Y0013407D01*
X0269917Y0013852D01*
X0270094Y0014302D01*
X0270260Y0014756D01*
X0270415Y0015214D01*
X0270559Y0015675D01*
X0270692Y0016140D01*
X0270813Y0016608D01*
X0270923Y0017078D01*
X0271021Y0017551D01*
X0271109Y0018027D01*
X0271184Y0018504D01*
X0271248Y0018983D01*
X0271301Y0019464D01*
X0271341Y0019945D01*
X0271371Y0020428D01*
X0271388Y0020911D01*
X0271394Y0021394D01*
X0271394Y0161394D02*
X0271388Y0161877D01*
X0271371Y0162360D01*
X0271341Y0162843D01*
X0271301Y0163324D01*
X0271248Y0163805D01*
X0271184Y0164284D01*
X0271109Y0164761D01*
X0271021Y0165237D01*
X0270923Y0165710D01*
X0270813Y0166180D01*
X0270692Y0166648D01*
X0270559Y0167113D01*
X0270415Y0167574D01*
X0270260Y0168032D01*
X0270094Y0168486D01*
X0269917Y0168936D01*
X0269730Y0169381D01*
X0269531Y0169822D01*
X0269323Y0170258D01*
X0269103Y0170688D01*
X0268873Y0171114D01*
X0268633Y0171533D01*
X0268383Y0171947D01*
X0268123Y0172354D01*
X0267854Y0172755D01*
X0267574Y0173150D01*
X0267286Y0173537D01*
X0266987Y0173918D01*
X0266680Y0174291D01*
X0266364Y0174656D01*
X0266039Y0175014D01*
X0265706Y0175364D01*
X0265364Y0175706D01*
X0265014Y0176039D01*
X0264656Y0176364D01*
X0264291Y0176680D01*
X0263918Y0176987D01*
X0263537Y0177286D01*
X0263150Y0177574D01*
X0262755Y0177854D01*
X0262354Y0178123D01*
X0261947Y0178383D01*
X0261533Y0178633D01*
X0261114Y0178873D01*
X0260688Y0179103D01*
X0260258Y0179323D01*
X0259822Y0179531D01*
X0259381Y0179730D01*
X0258936Y0179917D01*
X0258486Y0180094D01*
X0258032Y0180260D01*
X0257574Y0180415D01*
X0257113Y0180559D01*
X0256648Y0180692D01*
X0256180Y0180813D01*
X0255710Y0180923D01*
X0255237Y0181021D01*
X0254761Y0181109D01*
X0254284Y0181184D01*
X0253805Y0181248D01*
X0253324Y0181301D01*
X0252843Y0181341D01*
X0252360Y0181371D01*
X0251877Y0181388D01*
X0251394Y0181394D01*
X0021394Y0181394D02*
X0020911Y0181388D01*
X0020428Y0181371D01*
X0019945Y0181341D01*
X0019464Y0181301D01*
X0018983Y0181248D01*
X0018504Y0181184D01*
X0018027Y0181109D01*
X0017551Y0181021D01*
X0017078Y0180923D01*
X0016608Y0180813D01*
X0016140Y0180692D01*
X0015675Y0180559D01*
X0015214Y0180415D01*
X0014756Y0180260D01*
X0014302Y0180094D01*
X0013852Y0179917D01*
X0013407Y0179730D01*
X0012966Y0179531D01*
X0012530Y0179323D01*
X0012100Y0179103D01*
X0011674Y0178873D01*
X0011255Y0178633D01*
X0010841Y0178383D01*
X0010434Y0178123D01*
X0010033Y0177854D01*
X0009638Y0177574D01*
X0009251Y0177286D01*
X0008870Y0176987D01*
X0008497Y0176680D01*
X0008132Y0176364D01*
X0007774Y0176039D01*
X0007424Y0175706D01*
X0007082Y0175364D01*
X0006749Y0175014D01*
X0006424Y0174656D01*
X0006108Y0174291D01*
X0005801Y0173918D01*
X0005502Y0173537D01*
X0005214Y0173150D01*
X0004934Y0172755D01*
X0004665Y0172354D01*
X0004405Y0171947D01*
X0004155Y0171533D01*
X0003915Y0171114D01*
X0003685Y0170688D01*
X0003465Y0170258D01*
X0003257Y0169822D01*
X0003058Y0169381D01*
X0002871Y0168936D01*
X0002694Y0168486D01*
X0002528Y0168032D01*
X0002373Y0167574D01*
X0002229Y0167113D01*
X0002096Y0166648D01*
X0001975Y0166180D01*
X0001865Y0165710D01*
X0001767Y0165237D01*
X0001679Y0164761D01*
X0001604Y0164284D01*
X0001540Y0163805D01*
X0001487Y0163324D01*
X0001447Y0162843D01*
X0001417Y0162360D01*
X0001400Y0161877D01*
X0001394Y0161394D01*
D12*
X0014894Y0161394D02*
X0014896Y0161555D01*
X0014902Y0161715D01*
X0014912Y0161876D01*
X0014926Y0162036D01*
X0014944Y0162196D01*
X0014965Y0162355D01*
X0014991Y0162514D01*
X0015021Y0162672D01*
X0015054Y0162829D01*
X0015092Y0162986D01*
X0015133Y0163141D01*
X0015178Y0163295D01*
X0015227Y0163448D01*
X0015280Y0163600D01*
X0015336Y0163751D01*
X0015397Y0163900D01*
X0015460Y0164048D01*
X0015528Y0164194D01*
X0015599Y0164338D01*
X0015673Y0164480D01*
X0015751Y0164621D01*
X0015833Y0164759D01*
X0015918Y0164896D01*
X0016006Y0165030D01*
X0016098Y0165162D01*
X0016193Y0165292D01*
X0016291Y0165420D01*
X0016392Y0165545D01*
X0016496Y0165667D01*
X0016603Y0165787D01*
X0016713Y0165904D01*
X0016826Y0166019D01*
X0016942Y0166130D01*
X0017061Y0166239D01*
X0017182Y0166344D01*
X0017306Y0166447D01*
X0017432Y0166547D01*
X0017560Y0166643D01*
X0017691Y0166736D01*
X0017825Y0166826D01*
X0017960Y0166913D01*
X0018098Y0166996D01*
X0018237Y0167076D01*
X0018379Y0167152D01*
X0018522Y0167225D01*
X0018667Y0167294D01*
X0018814Y0167360D01*
X0018962Y0167422D01*
X0019112Y0167480D01*
X0019263Y0167535D01*
X0019416Y0167586D01*
X0019570Y0167633D01*
X0019725Y0167676D01*
X0019881Y0167715D01*
X0020037Y0167751D01*
X0020195Y0167782D01*
X0020353Y0167810D01*
X0020512Y0167834D01*
X0020672Y0167854D01*
X0020832Y0167870D01*
X0020992Y0167882D01*
X0021153Y0167890D01*
X0021314Y0167894D01*
X0021474Y0167894D01*
X0021635Y0167890D01*
X0021796Y0167882D01*
X0021956Y0167870D01*
X0022116Y0167854D01*
X0022276Y0167834D01*
X0022435Y0167810D01*
X0022593Y0167782D01*
X0022751Y0167751D01*
X0022907Y0167715D01*
X0023063Y0167676D01*
X0023218Y0167633D01*
X0023372Y0167586D01*
X0023525Y0167535D01*
X0023676Y0167480D01*
X0023826Y0167422D01*
X0023974Y0167360D01*
X0024121Y0167294D01*
X0024266Y0167225D01*
X0024409Y0167152D01*
X0024551Y0167076D01*
X0024690Y0166996D01*
X0024828Y0166913D01*
X0024963Y0166826D01*
X0025097Y0166736D01*
X0025228Y0166643D01*
X0025356Y0166547D01*
X0025482Y0166447D01*
X0025606Y0166344D01*
X0025727Y0166239D01*
X0025846Y0166130D01*
X0025962Y0166019D01*
X0026075Y0165904D01*
X0026185Y0165787D01*
X0026292Y0165667D01*
X0026396Y0165545D01*
X0026497Y0165420D01*
X0026595Y0165292D01*
X0026690Y0165162D01*
X0026782Y0165030D01*
X0026870Y0164896D01*
X0026955Y0164759D01*
X0027037Y0164621D01*
X0027115Y0164480D01*
X0027189Y0164338D01*
X0027260Y0164194D01*
X0027328Y0164048D01*
X0027391Y0163900D01*
X0027452Y0163751D01*
X0027508Y0163600D01*
X0027561Y0163448D01*
X0027610Y0163295D01*
X0027655Y0163141D01*
X0027696Y0162986D01*
X0027734Y0162829D01*
X0027767Y0162672D01*
X0027797Y0162514D01*
X0027823Y0162355D01*
X0027844Y0162196D01*
X0027862Y0162036D01*
X0027876Y0161876D01*
X0027886Y0161715D01*
X0027892Y0161555D01*
X0027894Y0161394D01*
X0027892Y0161233D01*
X0027886Y0161073D01*
X0027876Y0160912D01*
X0027862Y0160752D01*
X0027844Y0160592D01*
X0027823Y0160433D01*
X0027797Y0160274D01*
X0027767Y0160116D01*
X0027734Y0159959D01*
X0027696Y0159802D01*
X0027655Y0159647D01*
X0027610Y0159493D01*
X0027561Y0159340D01*
X0027508Y0159188D01*
X0027452Y0159037D01*
X0027391Y0158888D01*
X0027328Y0158740D01*
X0027260Y0158594D01*
X0027189Y0158450D01*
X0027115Y0158308D01*
X0027037Y0158167D01*
X0026955Y0158029D01*
X0026870Y0157892D01*
X0026782Y0157758D01*
X0026690Y0157626D01*
X0026595Y0157496D01*
X0026497Y0157368D01*
X0026396Y0157243D01*
X0026292Y0157121D01*
X0026185Y0157001D01*
X0026075Y0156884D01*
X0025962Y0156769D01*
X0025846Y0156658D01*
X0025727Y0156549D01*
X0025606Y0156444D01*
X0025482Y0156341D01*
X0025356Y0156241D01*
X0025228Y0156145D01*
X0025097Y0156052D01*
X0024963Y0155962D01*
X0024828Y0155875D01*
X0024690Y0155792D01*
X0024551Y0155712D01*
X0024409Y0155636D01*
X0024266Y0155563D01*
X0024121Y0155494D01*
X0023974Y0155428D01*
X0023826Y0155366D01*
X0023676Y0155308D01*
X0023525Y0155253D01*
X0023372Y0155202D01*
X0023218Y0155155D01*
X0023063Y0155112D01*
X0022907Y0155073D01*
X0022751Y0155037D01*
X0022593Y0155006D01*
X0022435Y0154978D01*
X0022276Y0154954D01*
X0022116Y0154934D01*
X0021956Y0154918D01*
X0021796Y0154906D01*
X0021635Y0154898D01*
X0021474Y0154894D01*
X0021314Y0154894D01*
X0021153Y0154898D01*
X0020992Y0154906D01*
X0020832Y0154918D01*
X0020672Y0154934D01*
X0020512Y0154954D01*
X0020353Y0154978D01*
X0020195Y0155006D01*
X0020037Y0155037D01*
X0019881Y0155073D01*
X0019725Y0155112D01*
X0019570Y0155155D01*
X0019416Y0155202D01*
X0019263Y0155253D01*
X0019112Y0155308D01*
X0018962Y0155366D01*
X0018814Y0155428D01*
X0018667Y0155494D01*
X0018522Y0155563D01*
X0018379Y0155636D01*
X0018237Y0155712D01*
X0018098Y0155792D01*
X0017960Y0155875D01*
X0017825Y0155962D01*
X0017691Y0156052D01*
X0017560Y0156145D01*
X0017432Y0156241D01*
X0017306Y0156341D01*
X0017182Y0156444D01*
X0017061Y0156549D01*
X0016942Y0156658D01*
X0016826Y0156769D01*
X0016713Y0156884D01*
X0016603Y0157001D01*
X0016496Y0157121D01*
X0016392Y0157243D01*
X0016291Y0157368D01*
X0016193Y0157496D01*
X0016098Y0157626D01*
X0016006Y0157758D01*
X0015918Y0157892D01*
X0015833Y0158029D01*
X0015751Y0158167D01*
X0015673Y0158308D01*
X0015599Y0158450D01*
X0015528Y0158594D01*
X0015460Y0158740D01*
X0015397Y0158888D01*
X0015336Y0159037D01*
X0015280Y0159188D01*
X0015227Y0159340D01*
X0015178Y0159493D01*
X0015133Y0159647D01*
X0015092Y0159802D01*
X0015054Y0159959D01*
X0015021Y0160116D01*
X0014991Y0160274D01*
X0014965Y0160433D01*
X0014944Y0160592D01*
X0014926Y0160752D01*
X0014912Y0160912D01*
X0014902Y0161073D01*
X0014896Y0161233D01*
X0014894Y0161394D01*
X0014894Y0021394D02*
X0014896Y0021555D01*
X0014902Y0021715D01*
X0014912Y0021876D01*
X0014926Y0022036D01*
X0014944Y0022196D01*
X0014965Y0022355D01*
X0014991Y0022514D01*
X0015021Y0022672D01*
X0015054Y0022829D01*
X0015092Y0022986D01*
X0015133Y0023141D01*
X0015178Y0023295D01*
X0015227Y0023448D01*
X0015280Y0023600D01*
X0015336Y0023751D01*
X0015397Y0023900D01*
X0015460Y0024048D01*
X0015528Y0024194D01*
X0015599Y0024338D01*
X0015673Y0024480D01*
X0015751Y0024621D01*
X0015833Y0024759D01*
X0015918Y0024896D01*
X0016006Y0025030D01*
X0016098Y0025162D01*
X0016193Y0025292D01*
X0016291Y0025420D01*
X0016392Y0025545D01*
X0016496Y0025667D01*
X0016603Y0025787D01*
X0016713Y0025904D01*
X0016826Y0026019D01*
X0016942Y0026130D01*
X0017061Y0026239D01*
X0017182Y0026344D01*
X0017306Y0026447D01*
X0017432Y0026547D01*
X0017560Y0026643D01*
X0017691Y0026736D01*
X0017825Y0026826D01*
X0017960Y0026913D01*
X0018098Y0026996D01*
X0018237Y0027076D01*
X0018379Y0027152D01*
X0018522Y0027225D01*
X0018667Y0027294D01*
X0018814Y0027360D01*
X0018962Y0027422D01*
X0019112Y0027480D01*
X0019263Y0027535D01*
X0019416Y0027586D01*
X0019570Y0027633D01*
X0019725Y0027676D01*
X0019881Y0027715D01*
X0020037Y0027751D01*
X0020195Y0027782D01*
X0020353Y0027810D01*
X0020512Y0027834D01*
X0020672Y0027854D01*
X0020832Y0027870D01*
X0020992Y0027882D01*
X0021153Y0027890D01*
X0021314Y0027894D01*
X0021474Y0027894D01*
X0021635Y0027890D01*
X0021796Y0027882D01*
X0021956Y0027870D01*
X0022116Y0027854D01*
X0022276Y0027834D01*
X0022435Y0027810D01*
X0022593Y0027782D01*
X0022751Y0027751D01*
X0022907Y0027715D01*
X0023063Y0027676D01*
X0023218Y0027633D01*
X0023372Y0027586D01*
X0023525Y0027535D01*
X0023676Y0027480D01*
X0023826Y0027422D01*
X0023974Y0027360D01*
X0024121Y0027294D01*
X0024266Y0027225D01*
X0024409Y0027152D01*
X0024551Y0027076D01*
X0024690Y0026996D01*
X0024828Y0026913D01*
X0024963Y0026826D01*
X0025097Y0026736D01*
X0025228Y0026643D01*
X0025356Y0026547D01*
X0025482Y0026447D01*
X0025606Y0026344D01*
X0025727Y0026239D01*
X0025846Y0026130D01*
X0025962Y0026019D01*
X0026075Y0025904D01*
X0026185Y0025787D01*
X0026292Y0025667D01*
X0026396Y0025545D01*
X0026497Y0025420D01*
X0026595Y0025292D01*
X0026690Y0025162D01*
X0026782Y0025030D01*
X0026870Y0024896D01*
X0026955Y0024759D01*
X0027037Y0024621D01*
X0027115Y0024480D01*
X0027189Y0024338D01*
X0027260Y0024194D01*
X0027328Y0024048D01*
X0027391Y0023900D01*
X0027452Y0023751D01*
X0027508Y0023600D01*
X0027561Y0023448D01*
X0027610Y0023295D01*
X0027655Y0023141D01*
X0027696Y0022986D01*
X0027734Y0022829D01*
X0027767Y0022672D01*
X0027797Y0022514D01*
X0027823Y0022355D01*
X0027844Y0022196D01*
X0027862Y0022036D01*
X0027876Y0021876D01*
X0027886Y0021715D01*
X0027892Y0021555D01*
X0027894Y0021394D01*
X0027892Y0021233D01*
X0027886Y0021073D01*
X0027876Y0020912D01*
X0027862Y0020752D01*
X0027844Y0020592D01*
X0027823Y0020433D01*
X0027797Y0020274D01*
X0027767Y0020116D01*
X0027734Y0019959D01*
X0027696Y0019802D01*
X0027655Y0019647D01*
X0027610Y0019493D01*
X0027561Y0019340D01*
X0027508Y0019188D01*
X0027452Y0019037D01*
X0027391Y0018888D01*
X0027328Y0018740D01*
X0027260Y0018594D01*
X0027189Y0018450D01*
X0027115Y0018308D01*
X0027037Y0018167D01*
X0026955Y0018029D01*
X0026870Y0017892D01*
X0026782Y0017758D01*
X0026690Y0017626D01*
X0026595Y0017496D01*
X0026497Y0017368D01*
X0026396Y0017243D01*
X0026292Y0017121D01*
X0026185Y0017001D01*
X0026075Y0016884D01*
X0025962Y0016769D01*
X0025846Y0016658D01*
X0025727Y0016549D01*
X0025606Y0016444D01*
X0025482Y0016341D01*
X0025356Y0016241D01*
X0025228Y0016145D01*
X0025097Y0016052D01*
X0024963Y0015962D01*
X0024828Y0015875D01*
X0024690Y0015792D01*
X0024551Y0015712D01*
X0024409Y0015636D01*
X0024266Y0015563D01*
X0024121Y0015494D01*
X0023974Y0015428D01*
X0023826Y0015366D01*
X0023676Y0015308D01*
X0023525Y0015253D01*
X0023372Y0015202D01*
X0023218Y0015155D01*
X0023063Y0015112D01*
X0022907Y0015073D01*
X0022751Y0015037D01*
X0022593Y0015006D01*
X0022435Y0014978D01*
X0022276Y0014954D01*
X0022116Y0014934D01*
X0021956Y0014918D01*
X0021796Y0014906D01*
X0021635Y0014898D01*
X0021474Y0014894D01*
X0021314Y0014894D01*
X0021153Y0014898D01*
X0020992Y0014906D01*
X0020832Y0014918D01*
X0020672Y0014934D01*
X0020512Y0014954D01*
X0020353Y0014978D01*
X0020195Y0015006D01*
X0020037Y0015037D01*
X0019881Y0015073D01*
X0019725Y0015112D01*
X0019570Y0015155D01*
X0019416Y0015202D01*
X0019263Y0015253D01*
X0019112Y0015308D01*
X0018962Y0015366D01*
X0018814Y0015428D01*
X0018667Y0015494D01*
X0018522Y0015563D01*
X0018379Y0015636D01*
X0018237Y0015712D01*
X0018098Y0015792D01*
X0017960Y0015875D01*
X0017825Y0015962D01*
X0017691Y0016052D01*
X0017560Y0016145D01*
X0017432Y0016241D01*
X0017306Y0016341D01*
X0017182Y0016444D01*
X0017061Y0016549D01*
X0016942Y0016658D01*
X0016826Y0016769D01*
X0016713Y0016884D01*
X0016603Y0017001D01*
X0016496Y0017121D01*
X0016392Y0017243D01*
X0016291Y0017368D01*
X0016193Y0017496D01*
X0016098Y0017626D01*
X0016006Y0017758D01*
X0015918Y0017892D01*
X0015833Y0018029D01*
X0015751Y0018167D01*
X0015673Y0018308D01*
X0015599Y0018450D01*
X0015528Y0018594D01*
X0015460Y0018740D01*
X0015397Y0018888D01*
X0015336Y0019037D01*
X0015280Y0019188D01*
X0015227Y0019340D01*
X0015178Y0019493D01*
X0015133Y0019647D01*
X0015092Y0019802D01*
X0015054Y0019959D01*
X0015021Y0020116D01*
X0014991Y0020274D01*
X0014965Y0020433D01*
X0014944Y0020592D01*
X0014926Y0020752D01*
X0014912Y0020912D01*
X0014902Y0021073D01*
X0014896Y0021233D01*
X0014894Y0021394D01*
X0244894Y0021394D02*
X0244896Y0021555D01*
X0244902Y0021715D01*
X0244912Y0021876D01*
X0244926Y0022036D01*
X0244944Y0022196D01*
X0244965Y0022355D01*
X0244991Y0022514D01*
X0245021Y0022672D01*
X0245054Y0022829D01*
X0245092Y0022986D01*
X0245133Y0023141D01*
X0245178Y0023295D01*
X0245227Y0023448D01*
X0245280Y0023600D01*
X0245336Y0023751D01*
X0245397Y0023900D01*
X0245460Y0024048D01*
X0245528Y0024194D01*
X0245599Y0024338D01*
X0245673Y0024480D01*
X0245751Y0024621D01*
X0245833Y0024759D01*
X0245918Y0024896D01*
X0246006Y0025030D01*
X0246098Y0025162D01*
X0246193Y0025292D01*
X0246291Y0025420D01*
X0246392Y0025545D01*
X0246496Y0025667D01*
X0246603Y0025787D01*
X0246713Y0025904D01*
X0246826Y0026019D01*
X0246942Y0026130D01*
X0247061Y0026239D01*
X0247182Y0026344D01*
X0247306Y0026447D01*
X0247432Y0026547D01*
X0247560Y0026643D01*
X0247691Y0026736D01*
X0247825Y0026826D01*
X0247960Y0026913D01*
X0248098Y0026996D01*
X0248237Y0027076D01*
X0248379Y0027152D01*
X0248522Y0027225D01*
X0248667Y0027294D01*
X0248814Y0027360D01*
X0248962Y0027422D01*
X0249112Y0027480D01*
X0249263Y0027535D01*
X0249416Y0027586D01*
X0249570Y0027633D01*
X0249725Y0027676D01*
X0249881Y0027715D01*
X0250037Y0027751D01*
X0250195Y0027782D01*
X0250353Y0027810D01*
X0250512Y0027834D01*
X0250672Y0027854D01*
X0250832Y0027870D01*
X0250992Y0027882D01*
X0251153Y0027890D01*
X0251314Y0027894D01*
X0251474Y0027894D01*
X0251635Y0027890D01*
X0251796Y0027882D01*
X0251956Y0027870D01*
X0252116Y0027854D01*
X0252276Y0027834D01*
X0252435Y0027810D01*
X0252593Y0027782D01*
X0252751Y0027751D01*
X0252907Y0027715D01*
X0253063Y0027676D01*
X0253218Y0027633D01*
X0253372Y0027586D01*
X0253525Y0027535D01*
X0253676Y0027480D01*
X0253826Y0027422D01*
X0253974Y0027360D01*
X0254121Y0027294D01*
X0254266Y0027225D01*
X0254409Y0027152D01*
X0254551Y0027076D01*
X0254690Y0026996D01*
X0254828Y0026913D01*
X0254963Y0026826D01*
X0255097Y0026736D01*
X0255228Y0026643D01*
X0255356Y0026547D01*
X0255482Y0026447D01*
X0255606Y0026344D01*
X0255727Y0026239D01*
X0255846Y0026130D01*
X0255962Y0026019D01*
X0256075Y0025904D01*
X0256185Y0025787D01*
X0256292Y0025667D01*
X0256396Y0025545D01*
X0256497Y0025420D01*
X0256595Y0025292D01*
X0256690Y0025162D01*
X0256782Y0025030D01*
X0256870Y0024896D01*
X0256955Y0024759D01*
X0257037Y0024621D01*
X0257115Y0024480D01*
X0257189Y0024338D01*
X0257260Y0024194D01*
X0257328Y0024048D01*
X0257391Y0023900D01*
X0257452Y0023751D01*
X0257508Y0023600D01*
X0257561Y0023448D01*
X0257610Y0023295D01*
X0257655Y0023141D01*
X0257696Y0022986D01*
X0257734Y0022829D01*
X0257767Y0022672D01*
X0257797Y0022514D01*
X0257823Y0022355D01*
X0257844Y0022196D01*
X0257862Y0022036D01*
X0257876Y0021876D01*
X0257886Y0021715D01*
X0257892Y0021555D01*
X0257894Y0021394D01*
X0257892Y0021233D01*
X0257886Y0021073D01*
X0257876Y0020912D01*
X0257862Y0020752D01*
X0257844Y0020592D01*
X0257823Y0020433D01*
X0257797Y0020274D01*
X0257767Y0020116D01*
X0257734Y0019959D01*
X0257696Y0019802D01*
X0257655Y0019647D01*
X0257610Y0019493D01*
X0257561Y0019340D01*
X0257508Y0019188D01*
X0257452Y0019037D01*
X0257391Y0018888D01*
X0257328Y0018740D01*
X0257260Y0018594D01*
X0257189Y0018450D01*
X0257115Y0018308D01*
X0257037Y0018167D01*
X0256955Y0018029D01*
X0256870Y0017892D01*
X0256782Y0017758D01*
X0256690Y0017626D01*
X0256595Y0017496D01*
X0256497Y0017368D01*
X0256396Y0017243D01*
X0256292Y0017121D01*
X0256185Y0017001D01*
X0256075Y0016884D01*
X0255962Y0016769D01*
X0255846Y0016658D01*
X0255727Y0016549D01*
X0255606Y0016444D01*
X0255482Y0016341D01*
X0255356Y0016241D01*
X0255228Y0016145D01*
X0255097Y0016052D01*
X0254963Y0015962D01*
X0254828Y0015875D01*
X0254690Y0015792D01*
X0254551Y0015712D01*
X0254409Y0015636D01*
X0254266Y0015563D01*
X0254121Y0015494D01*
X0253974Y0015428D01*
X0253826Y0015366D01*
X0253676Y0015308D01*
X0253525Y0015253D01*
X0253372Y0015202D01*
X0253218Y0015155D01*
X0253063Y0015112D01*
X0252907Y0015073D01*
X0252751Y0015037D01*
X0252593Y0015006D01*
X0252435Y0014978D01*
X0252276Y0014954D01*
X0252116Y0014934D01*
X0251956Y0014918D01*
X0251796Y0014906D01*
X0251635Y0014898D01*
X0251474Y0014894D01*
X0251314Y0014894D01*
X0251153Y0014898D01*
X0250992Y0014906D01*
X0250832Y0014918D01*
X0250672Y0014934D01*
X0250512Y0014954D01*
X0250353Y0014978D01*
X0250195Y0015006D01*
X0250037Y0015037D01*
X0249881Y0015073D01*
X0249725Y0015112D01*
X0249570Y0015155D01*
X0249416Y0015202D01*
X0249263Y0015253D01*
X0249112Y0015308D01*
X0248962Y0015366D01*
X0248814Y0015428D01*
X0248667Y0015494D01*
X0248522Y0015563D01*
X0248379Y0015636D01*
X0248237Y0015712D01*
X0248098Y0015792D01*
X0247960Y0015875D01*
X0247825Y0015962D01*
X0247691Y0016052D01*
X0247560Y0016145D01*
X0247432Y0016241D01*
X0247306Y0016341D01*
X0247182Y0016444D01*
X0247061Y0016549D01*
X0246942Y0016658D01*
X0246826Y0016769D01*
X0246713Y0016884D01*
X0246603Y0017001D01*
X0246496Y0017121D01*
X0246392Y0017243D01*
X0246291Y0017368D01*
X0246193Y0017496D01*
X0246098Y0017626D01*
X0246006Y0017758D01*
X0245918Y0017892D01*
X0245833Y0018029D01*
X0245751Y0018167D01*
X0245673Y0018308D01*
X0245599Y0018450D01*
X0245528Y0018594D01*
X0245460Y0018740D01*
X0245397Y0018888D01*
X0245336Y0019037D01*
X0245280Y0019188D01*
X0245227Y0019340D01*
X0245178Y0019493D01*
X0245133Y0019647D01*
X0245092Y0019802D01*
X0245054Y0019959D01*
X0245021Y0020116D01*
X0244991Y0020274D01*
X0244965Y0020433D01*
X0244944Y0020592D01*
X0244926Y0020752D01*
X0244912Y0020912D01*
X0244902Y0021073D01*
X0244896Y0021233D01*
X0244894Y0021394D01*
X0244894Y0161394D02*
X0244896Y0161555D01*
X0244902Y0161715D01*
X0244912Y0161876D01*
X0244926Y0162036D01*
X0244944Y0162196D01*
X0244965Y0162355D01*
X0244991Y0162514D01*
X0245021Y0162672D01*
X0245054Y0162829D01*
X0245092Y0162986D01*
X0245133Y0163141D01*
X0245178Y0163295D01*
X0245227Y0163448D01*
X0245280Y0163600D01*
X0245336Y0163751D01*
X0245397Y0163900D01*
X0245460Y0164048D01*
X0245528Y0164194D01*
X0245599Y0164338D01*
X0245673Y0164480D01*
X0245751Y0164621D01*
X0245833Y0164759D01*
X0245918Y0164896D01*
X0246006Y0165030D01*
X0246098Y0165162D01*
X0246193Y0165292D01*
X0246291Y0165420D01*
X0246392Y0165545D01*
X0246496Y0165667D01*
X0246603Y0165787D01*
X0246713Y0165904D01*
X0246826Y0166019D01*
X0246942Y0166130D01*
X0247061Y0166239D01*
X0247182Y0166344D01*
X0247306Y0166447D01*
X0247432Y0166547D01*
X0247560Y0166643D01*
X0247691Y0166736D01*
X0247825Y0166826D01*
X0247960Y0166913D01*
X0248098Y0166996D01*
X0248237Y0167076D01*
X0248379Y0167152D01*
X0248522Y0167225D01*
X0248667Y0167294D01*
X0248814Y0167360D01*
X0248962Y0167422D01*
X0249112Y0167480D01*
X0249263Y0167535D01*
X0249416Y0167586D01*
X0249570Y0167633D01*
X0249725Y0167676D01*
X0249881Y0167715D01*
X0250037Y0167751D01*
X0250195Y0167782D01*
X0250353Y0167810D01*
X0250512Y0167834D01*
X0250672Y0167854D01*
X0250832Y0167870D01*
X0250992Y0167882D01*
X0251153Y0167890D01*
X0251314Y0167894D01*
X0251474Y0167894D01*
X0251635Y0167890D01*
X0251796Y0167882D01*
X0251956Y0167870D01*
X0252116Y0167854D01*
X0252276Y0167834D01*
X0252435Y0167810D01*
X0252593Y0167782D01*
X0252751Y0167751D01*
X0252907Y0167715D01*
X0253063Y0167676D01*
X0253218Y0167633D01*
X0253372Y0167586D01*
X0253525Y0167535D01*
X0253676Y0167480D01*
X0253826Y0167422D01*
X0253974Y0167360D01*
X0254121Y0167294D01*
X0254266Y0167225D01*
X0254409Y0167152D01*
X0254551Y0167076D01*
X0254690Y0166996D01*
X0254828Y0166913D01*
X0254963Y0166826D01*
X0255097Y0166736D01*
X0255228Y0166643D01*
X0255356Y0166547D01*
X0255482Y0166447D01*
X0255606Y0166344D01*
X0255727Y0166239D01*
X0255846Y0166130D01*
X0255962Y0166019D01*
X0256075Y0165904D01*
X0256185Y0165787D01*
X0256292Y0165667D01*
X0256396Y0165545D01*
X0256497Y0165420D01*
X0256595Y0165292D01*
X0256690Y0165162D01*
X0256782Y0165030D01*
X0256870Y0164896D01*
X0256955Y0164759D01*
X0257037Y0164621D01*
X0257115Y0164480D01*
X0257189Y0164338D01*
X0257260Y0164194D01*
X0257328Y0164048D01*
X0257391Y0163900D01*
X0257452Y0163751D01*
X0257508Y0163600D01*
X0257561Y0163448D01*
X0257610Y0163295D01*
X0257655Y0163141D01*
X0257696Y0162986D01*
X0257734Y0162829D01*
X0257767Y0162672D01*
X0257797Y0162514D01*
X0257823Y0162355D01*
X0257844Y0162196D01*
X0257862Y0162036D01*
X0257876Y0161876D01*
X0257886Y0161715D01*
X0257892Y0161555D01*
X0257894Y0161394D01*
X0257892Y0161233D01*
X0257886Y0161073D01*
X0257876Y0160912D01*
X0257862Y0160752D01*
X0257844Y0160592D01*
X0257823Y0160433D01*
X0257797Y0160274D01*
X0257767Y0160116D01*
X0257734Y0159959D01*
X0257696Y0159802D01*
X0257655Y0159647D01*
X0257610Y0159493D01*
X0257561Y0159340D01*
X0257508Y0159188D01*
X0257452Y0159037D01*
X0257391Y0158888D01*
X0257328Y0158740D01*
X0257260Y0158594D01*
X0257189Y0158450D01*
X0257115Y0158308D01*
X0257037Y0158167D01*
X0256955Y0158029D01*
X0256870Y0157892D01*
X0256782Y0157758D01*
X0256690Y0157626D01*
X0256595Y0157496D01*
X0256497Y0157368D01*
X0256396Y0157243D01*
X0256292Y0157121D01*
X0256185Y0157001D01*
X0256075Y0156884D01*
X0255962Y0156769D01*
X0255846Y0156658D01*
X0255727Y0156549D01*
X0255606Y0156444D01*
X0255482Y0156341D01*
X0255356Y0156241D01*
X0255228Y0156145D01*
X0255097Y0156052D01*
X0254963Y0155962D01*
X0254828Y0155875D01*
X0254690Y0155792D01*
X0254551Y0155712D01*
X0254409Y0155636D01*
X0254266Y0155563D01*
X0254121Y0155494D01*
X0253974Y0155428D01*
X0253826Y0155366D01*
X0253676Y0155308D01*
X0253525Y0155253D01*
X0253372Y0155202D01*
X0253218Y0155155D01*
X0253063Y0155112D01*
X0252907Y0155073D01*
X0252751Y0155037D01*
X0252593Y0155006D01*
X0252435Y0154978D01*
X0252276Y0154954D01*
X0252116Y0154934D01*
X0251956Y0154918D01*
X0251796Y0154906D01*
X0251635Y0154898D01*
X0251474Y0154894D01*
X0251314Y0154894D01*
X0251153Y0154898D01*
X0250992Y0154906D01*
X0250832Y0154918D01*
X0250672Y0154934D01*
X0250512Y0154954D01*
X0250353Y0154978D01*
X0250195Y0155006D01*
X0250037Y0155037D01*
X0249881Y0155073D01*
X0249725Y0155112D01*
X0249570Y0155155D01*
X0249416Y0155202D01*
X0249263Y0155253D01*
X0249112Y0155308D01*
X0248962Y0155366D01*
X0248814Y0155428D01*
X0248667Y0155494D01*
X0248522Y0155563D01*
X0248379Y0155636D01*
X0248237Y0155712D01*
X0248098Y0155792D01*
X0247960Y0155875D01*
X0247825Y0155962D01*
X0247691Y0156052D01*
X0247560Y0156145D01*
X0247432Y0156241D01*
X0247306Y0156341D01*
X0247182Y0156444D01*
X0247061Y0156549D01*
X0246942Y0156658D01*
X0246826Y0156769D01*
X0246713Y0156884D01*
X0246603Y0157001D01*
X0246496Y0157121D01*
X0246392Y0157243D01*
X0246291Y0157368D01*
X0246193Y0157496D01*
X0246098Y0157626D01*
X0246006Y0157758D01*
X0245918Y0157892D01*
X0245833Y0158029D01*
X0245751Y0158167D01*
X0245673Y0158308D01*
X0245599Y0158450D01*
X0245528Y0158594D01*
X0245460Y0158740D01*
X0245397Y0158888D01*
X0245336Y0159037D01*
X0245280Y0159188D01*
X0245227Y0159340D01*
X0245178Y0159493D01*
X0245133Y0159647D01*
X0245092Y0159802D01*
X0245054Y0159959D01*
X0245021Y0160116D01*
X0244991Y0160274D01*
X0244965Y0160433D01*
X0244944Y0160592D01*
X0244926Y0160752D01*
X0244912Y0160912D01*
X0244902Y0161073D01*
X0244896Y0161233D01*
X0244894Y0161394D01*
M02*
