G75*
%MOIN*%
%OFA0B0*%
%FSLAX25Y25*%
%IPPOS*%
%LPD*%
%AMOC8*
5,1,8,0,0,1.08239X$1,22.5*
%
%ADD10C,0.07900*%
%ADD11R,0.07900X0.07900*%
%ADD12OC8,0.05300*%
%ADD13C,0.13500*%
%ADD14C,0.03278*%
D10*
X0016394Y0041394D03*
X0026394Y0041394D03*
X0036394Y0041394D03*
X0046394Y0041394D03*
X0046394Y0051394D03*
X0036394Y0051394D03*
X0026394Y0051394D03*
X0016394Y0051394D03*
X0016394Y0061394D03*
X0026394Y0061394D03*
X0036394Y0061394D03*
X0046394Y0061394D03*
X0046394Y0071394D03*
X0036394Y0071394D03*
X0026394Y0071394D03*
X0016394Y0071394D03*
X0026394Y0081394D03*
X0036394Y0081394D03*
X0036394Y0101394D03*
X0046394Y0101394D03*
X0046394Y0111394D03*
X0036394Y0111394D03*
X0026394Y0111394D03*
X0016394Y0111394D03*
X0016394Y0101394D03*
X0026394Y0101394D03*
X0026394Y0121394D03*
X0016394Y0121394D03*
X0016394Y0131394D03*
X0026394Y0131394D03*
X0036394Y0131394D03*
X0046394Y0131394D03*
X0046394Y0121394D03*
X0036394Y0121394D03*
X0036394Y0141394D03*
X0026394Y0141394D03*
X0110894Y0021394D03*
X0141394Y0021894D03*
X0151394Y0020894D03*
X0161394Y0021894D03*
X0226394Y0051394D03*
X0236394Y0051394D03*
X0246394Y0051394D03*
X0256394Y0051394D03*
X0256394Y0061394D03*
X0246394Y0061394D03*
X0236394Y0061394D03*
X0226394Y0061394D03*
X0226394Y0071394D03*
X0236394Y0071394D03*
X0246394Y0071394D03*
X0256394Y0071394D03*
X0256394Y0081394D03*
X0246394Y0081394D03*
X0236394Y0081394D03*
X0226394Y0081394D03*
X0236394Y0101394D03*
X0246394Y0101394D03*
X0246394Y0111394D03*
X0256394Y0111394D03*
X0256394Y0121394D03*
X0246394Y0121394D03*
X0236394Y0121394D03*
X0226394Y0121394D03*
X0226394Y0131394D03*
X0236394Y0131394D03*
X0246394Y0131394D03*
X0256394Y0131394D03*
X0256394Y0141394D03*
X0246394Y0141394D03*
X0236394Y0141394D03*
X0226394Y0141394D03*
X0226394Y0111394D03*
X0236394Y0111394D03*
X0236394Y0041394D03*
X0246394Y0041394D03*
D11*
X0171394Y0020894D03*
X0121894Y0021394D03*
D12*
X0131394Y0046394D03*
X0141394Y0046394D03*
X0151394Y0046394D03*
X0161394Y0046394D03*
D13*
X0021394Y0021394D03*
X0021394Y0161394D03*
X0251394Y0161394D03*
X0251394Y0021394D03*
D14*
X0196422Y0051394D03*
X0216112Y0061112D03*
X0216394Y0066394D03*
X0216394Y0076305D03*
X0201394Y0081394D03*
X0191394Y0071394D03*
X0201394Y0066305D03*
X0176394Y0076394D03*
X0166394Y0061394D03*
X0171394Y0051394D03*
X0141394Y0076394D03*
X0131394Y0081394D03*
X0111394Y0056394D03*
X0081394Y0076394D03*
X0073894Y0068894D03*
X0076394Y0061394D03*
X0076394Y0056305D03*
X0076394Y0047894D03*
X0076394Y0041394D03*
X0056394Y0046483D03*
X0056394Y0056394D03*
X0056394Y0066394D03*
X0056394Y0076394D03*
X0066394Y0081394D03*
X0091394Y0081394D03*
X0076394Y0101394D03*
X0076394Y0107894D03*
X0076394Y0116483D03*
X0076394Y0121483D03*
X0096394Y0121394D03*
X0113993Y0131417D03*
X0116394Y0141394D03*
X0101394Y0141394D03*
X0136394Y0146394D03*
X0163894Y0136394D03*
X0176394Y0136394D03*
X0191394Y0131483D03*
X0201394Y0126305D03*
X0216394Y0126394D03*
X0216112Y0121112D03*
X0196422Y0111394D03*
X0186394Y0101394D03*
X0181394Y0096394D03*
X0186394Y0091394D03*
X0141394Y0126394D03*
X0116394Y0116394D03*
X0056394Y0116394D03*
X0056394Y0106483D03*
X0056394Y0126305D03*
X0056394Y0136394D03*
X0176394Y0151394D03*
X0201394Y0141394D03*
X0216394Y0136305D03*
M02*
