G75*
%MOIN*%
%OFA0B0*%
%FSLAX25Y25*%
%IPPOS*%
%LPD*%
%AMOC8*
5,1,8,0,0,1.08239X$1,22.5*
%
%ADD10C,0.07400*%
%ADD11R,0.07400X0.07400*%
%ADD12OC8,0.04800*%
%ADD13C,0.00787*%
%ADD14C,0.02778*%
%ADD15C,0.01000*%
%ADD16C,0.00600*%
D10*
X0016394Y0041394D03*
X0026394Y0041394D03*
X0036394Y0041394D03*
X0046394Y0041394D03*
X0046394Y0051394D03*
X0036394Y0051394D03*
X0026394Y0051394D03*
X0016394Y0051394D03*
X0016394Y0061394D03*
X0026394Y0061394D03*
X0036394Y0061394D03*
X0046394Y0061394D03*
X0046394Y0071394D03*
X0036394Y0071394D03*
X0026394Y0071394D03*
X0016394Y0071394D03*
X0026394Y0081394D03*
X0036394Y0081394D03*
X0036394Y0101394D03*
X0046394Y0101394D03*
X0046394Y0111394D03*
X0036394Y0111394D03*
X0026394Y0111394D03*
X0016394Y0111394D03*
X0016394Y0101394D03*
X0026394Y0101394D03*
X0026394Y0121394D03*
X0016394Y0121394D03*
X0016394Y0131394D03*
X0026394Y0131394D03*
X0036394Y0131394D03*
X0046394Y0131394D03*
X0046394Y0121394D03*
X0036394Y0121394D03*
X0036394Y0141394D03*
X0026394Y0141394D03*
X0110894Y0021394D03*
X0141394Y0021894D03*
X0151394Y0020894D03*
X0161394Y0021894D03*
X0226394Y0051394D03*
X0236394Y0051394D03*
X0246394Y0051394D03*
X0256394Y0051394D03*
X0256394Y0061394D03*
X0246394Y0061394D03*
X0236394Y0061394D03*
X0226394Y0061394D03*
X0226394Y0071394D03*
X0236394Y0071394D03*
X0246394Y0071394D03*
X0256394Y0071394D03*
X0256394Y0081394D03*
X0246394Y0081394D03*
X0236394Y0081394D03*
X0226394Y0081394D03*
X0236394Y0101394D03*
X0246394Y0101394D03*
X0246394Y0111394D03*
X0256394Y0111394D03*
X0256394Y0121394D03*
X0246394Y0121394D03*
X0236394Y0121394D03*
X0226394Y0121394D03*
X0226394Y0131394D03*
X0236394Y0131394D03*
X0246394Y0131394D03*
X0256394Y0131394D03*
X0256394Y0141394D03*
X0246394Y0141394D03*
X0236394Y0141394D03*
X0226394Y0141394D03*
X0226394Y0111394D03*
X0236394Y0111394D03*
X0236394Y0041394D03*
X0246394Y0041394D03*
D11*
X0171394Y0020894D03*
X0121894Y0021394D03*
D12*
X0131394Y0046394D03*
X0141394Y0046394D03*
X0151394Y0046394D03*
X0161394Y0046394D03*
D13*
X0008869Y0008869D02*
X0006396Y0011970D01*
X0004675Y0015544D01*
X0003792Y0019411D01*
X0003681Y0021394D01*
X0003681Y0022341D01*
X0003587Y0022435D01*
X0003587Y0160353D01*
X0003681Y0160446D01*
X0003681Y0161394D01*
X0003792Y0163377D01*
X0004675Y0167244D01*
X0006396Y0170817D01*
X0008869Y0173918D01*
X0011970Y0176391D01*
X0015544Y0178112D01*
X0019411Y0178995D01*
X0021394Y0179106D01*
X0022341Y0179106D01*
X0022435Y0179200D01*
X0250353Y0179200D01*
X0250446Y0179106D01*
X0251394Y0179106D01*
X0253377Y0178995D01*
X0257244Y0178112D01*
X0260817Y0176391D01*
X0263918Y0173918D01*
X0266391Y0170817D01*
X0268112Y0167244D01*
X0268995Y0163377D01*
X0269106Y0161394D01*
X0269106Y0160446D01*
X0269200Y0160353D01*
X0269200Y0022435D01*
X0269106Y0022341D01*
X0269106Y0021394D01*
X0268995Y0019411D01*
X0268112Y0015544D01*
X0266391Y0011970D01*
X0263918Y0008869D01*
X0260817Y0006396D01*
X0257244Y0004675D01*
X0253377Y0003792D01*
X0251394Y0003681D01*
X0250446Y0003681D01*
X0250353Y0003587D01*
X0022435Y0003587D01*
X0022341Y0003681D01*
X0021394Y0003681D01*
X0019411Y0003792D01*
X0015544Y0004675D01*
X0011970Y0006396D01*
X0008869Y0008869D01*
X0008563Y0009253D02*
X0264224Y0009253D01*
X0264851Y0010039D02*
X0007936Y0010039D01*
X0007309Y0010825D02*
X0265478Y0010825D01*
X0266105Y0011611D02*
X0006683Y0011611D01*
X0006396Y0011970D02*
X0006396Y0011970D01*
X0006191Y0012396D02*
X0266597Y0012396D01*
X0266975Y0013182D02*
X0253504Y0013182D01*
X0253063Y0013000D02*
X0256148Y0014278D01*
X0258510Y0016639D01*
X0259787Y0019724D01*
X0259787Y0023063D01*
X0258510Y0026148D01*
X0256148Y0028510D01*
X0253063Y0029787D01*
X0249724Y0029787D01*
X0246639Y0028510D01*
X0244278Y0026148D01*
X0243000Y0023063D01*
X0243000Y0019724D01*
X0244278Y0016639D01*
X0246639Y0014278D01*
X0249724Y0013000D01*
X0253063Y0013000D01*
X0255401Y0013968D02*
X0267354Y0013968D01*
X0267732Y0014754D02*
X0256625Y0014754D01*
X0257411Y0015540D02*
X0268111Y0015540D01*
X0268291Y0016326D02*
X0258197Y0016326D01*
X0258705Y0017112D02*
X0268470Y0017112D01*
X0268650Y0017898D02*
X0259031Y0017898D01*
X0259356Y0018684D02*
X0268829Y0018684D01*
X0268998Y0019470D02*
X0259682Y0019470D01*
X0259787Y0020256D02*
X0269042Y0020256D01*
X0269087Y0021042D02*
X0259787Y0021042D01*
X0259787Y0021827D02*
X0269106Y0021827D01*
X0269200Y0022613D02*
X0259787Y0022613D01*
X0259648Y0023399D02*
X0269200Y0023399D01*
X0269200Y0024185D02*
X0259323Y0024185D01*
X0258997Y0024971D02*
X0269200Y0024971D01*
X0269200Y0025757D02*
X0258672Y0025757D01*
X0258115Y0026543D02*
X0269200Y0026543D01*
X0269200Y0027329D02*
X0257329Y0027329D01*
X0256543Y0028115D02*
X0269200Y0028115D01*
X0269200Y0028901D02*
X0255204Y0028901D01*
X0253307Y0029687D02*
X0269200Y0029687D01*
X0269200Y0030472D02*
X0003587Y0030472D01*
X0003587Y0029687D02*
X0019481Y0029687D01*
X0019724Y0029787D02*
X0016639Y0028510D01*
X0014278Y0026148D01*
X0013000Y0023063D01*
X0013000Y0019724D01*
X0014278Y0016639D01*
X0016639Y0014278D01*
X0019724Y0013000D01*
X0023063Y0013000D01*
X0026148Y0014278D01*
X0028510Y0016639D01*
X0029787Y0019724D01*
X0029787Y0023063D01*
X0028510Y0026148D01*
X0026148Y0028510D01*
X0023063Y0029787D01*
X0019724Y0029787D01*
X0017583Y0028901D02*
X0003587Y0028901D01*
X0003587Y0028115D02*
X0016244Y0028115D01*
X0015458Y0027329D02*
X0003587Y0027329D01*
X0003587Y0026543D02*
X0014672Y0026543D01*
X0014116Y0025757D02*
X0003587Y0025757D01*
X0003587Y0024971D02*
X0013790Y0024971D01*
X0013465Y0024185D02*
X0003587Y0024185D01*
X0003587Y0023399D02*
X0013139Y0023399D01*
X0013000Y0022613D02*
X0003587Y0022613D01*
X0003681Y0021827D02*
X0013000Y0021827D01*
X0013000Y0021042D02*
X0003701Y0021042D01*
X0003745Y0020256D02*
X0013000Y0020256D01*
X0013105Y0019470D02*
X0003789Y0019470D01*
X0003958Y0018684D02*
X0013431Y0018684D01*
X0013756Y0017898D02*
X0004138Y0017898D01*
X0004317Y0017112D02*
X0014082Y0017112D01*
X0014591Y0016326D02*
X0004496Y0016326D01*
X0004677Y0015540D02*
X0015377Y0015540D01*
X0016163Y0014754D02*
X0005055Y0014754D01*
X0005434Y0013968D02*
X0017386Y0013968D01*
X0019284Y0013182D02*
X0005812Y0013182D01*
X0009373Y0008467D02*
X0263414Y0008467D01*
X0262429Y0007681D02*
X0010359Y0007681D01*
X0011344Y0006895D02*
X0261443Y0006895D01*
X0260222Y0006109D02*
X0012566Y0006109D01*
X0014198Y0005323D02*
X0258590Y0005323D01*
X0256640Y0004537D02*
X0016147Y0004537D01*
X0020141Y0003751D02*
X0252646Y0003751D01*
X0249284Y0013182D02*
X0023504Y0013182D01*
X0025401Y0013968D02*
X0247386Y0013968D01*
X0246163Y0014754D02*
X0026625Y0014754D01*
X0027411Y0015540D02*
X0245377Y0015540D01*
X0244591Y0016326D02*
X0176197Y0016326D01*
X0176209Y0016338D02*
X0176392Y0016656D01*
X0176487Y0017010D01*
X0176487Y0020500D01*
X0171787Y0020500D01*
X0171787Y0015800D01*
X0175277Y0015800D01*
X0175632Y0015895D01*
X0175949Y0016078D01*
X0176209Y0016338D01*
X0176487Y0017112D02*
X0244082Y0017112D01*
X0243756Y0017898D02*
X0176487Y0017898D01*
X0176487Y0018684D02*
X0243431Y0018684D01*
X0243105Y0019470D02*
X0176487Y0019470D01*
X0176487Y0020256D02*
X0243000Y0020256D01*
X0243000Y0021042D02*
X0171787Y0021042D01*
X0171787Y0021287D02*
X0176487Y0021287D01*
X0176487Y0024777D01*
X0176392Y0025132D01*
X0176209Y0025449D01*
X0175949Y0025709D01*
X0175632Y0025892D01*
X0175277Y0025987D01*
X0171787Y0025987D01*
X0171787Y0021287D01*
X0171000Y0021287D01*
X0171000Y0020500D01*
X0166300Y0020500D01*
X0166300Y0017010D01*
X0166395Y0016656D01*
X0166578Y0016338D01*
X0166838Y0016078D01*
X0167156Y0015895D01*
X0167510Y0015800D01*
X0171000Y0015800D01*
X0171000Y0020500D01*
X0171787Y0020500D01*
X0171787Y0021287D01*
X0171787Y0021827D02*
X0171000Y0021827D01*
X0171000Y0021287D02*
X0171000Y0025987D01*
X0167510Y0025987D01*
X0167156Y0025892D01*
X0166838Y0025709D01*
X0166578Y0025449D01*
X0166395Y0025132D01*
X0166300Y0024777D01*
X0166300Y0021287D01*
X0171000Y0021287D01*
X0171000Y0021042D02*
X0166087Y0021042D01*
X0166087Y0020960D02*
X0165373Y0019235D01*
X0164052Y0017915D01*
X0162327Y0017200D01*
X0160460Y0017200D01*
X0158735Y0017915D01*
X0157415Y0019235D01*
X0156700Y0020960D01*
X0156700Y0022827D01*
X0157415Y0024552D01*
X0158735Y0025873D01*
X0160460Y0026587D01*
X0162327Y0026587D01*
X0164052Y0025873D01*
X0165373Y0024552D01*
X0166087Y0022827D01*
X0166087Y0020960D01*
X0166300Y0020256D02*
X0165796Y0020256D01*
X0165470Y0019470D02*
X0166300Y0019470D01*
X0166300Y0018684D02*
X0164822Y0018684D01*
X0164012Y0017898D02*
X0166300Y0017898D01*
X0166300Y0017112D02*
X0154250Y0017112D01*
X0154052Y0016915D02*
X0155373Y0018235D01*
X0156087Y0019960D01*
X0156087Y0021827D01*
X0155373Y0023552D01*
X0154052Y0024873D01*
X0152327Y0025587D01*
X0150460Y0025587D01*
X0148735Y0024873D01*
X0147415Y0023552D01*
X0146700Y0021827D01*
X0146700Y0019960D01*
X0147415Y0018235D01*
X0148735Y0016915D01*
X0150460Y0016200D01*
X0152327Y0016200D01*
X0154052Y0016915D01*
X0155036Y0017898D02*
X0158775Y0017898D01*
X0157966Y0018684D02*
X0155559Y0018684D01*
X0155884Y0019470D02*
X0157317Y0019470D01*
X0156992Y0020256D02*
X0156087Y0020256D01*
X0156087Y0021042D02*
X0156700Y0021042D01*
X0156700Y0021827D02*
X0156087Y0021827D01*
X0155762Y0022613D02*
X0156700Y0022613D01*
X0156937Y0023399D02*
X0155436Y0023399D01*
X0154740Y0024185D02*
X0157262Y0024185D01*
X0157833Y0024971D02*
X0153815Y0024971D01*
X0148972Y0024971D02*
X0144954Y0024971D01*
X0145373Y0024552D02*
X0144052Y0025873D01*
X0142327Y0026587D01*
X0140460Y0026587D01*
X0138735Y0025873D01*
X0137415Y0024552D01*
X0136700Y0022827D01*
X0136700Y0020960D01*
X0137415Y0019235D01*
X0138735Y0017915D01*
X0140460Y0017200D01*
X0142327Y0017200D01*
X0144052Y0017915D01*
X0145373Y0019235D01*
X0146087Y0020960D01*
X0146087Y0022827D01*
X0145373Y0024552D01*
X0145525Y0024185D02*
X0148047Y0024185D01*
X0147351Y0023399D02*
X0145850Y0023399D01*
X0146087Y0022613D02*
X0147026Y0022613D01*
X0146700Y0021827D02*
X0146087Y0021827D01*
X0146087Y0021042D02*
X0146700Y0021042D01*
X0146700Y0020256D02*
X0145796Y0020256D01*
X0145470Y0019470D02*
X0146903Y0019470D01*
X0147229Y0018684D02*
X0144822Y0018684D01*
X0144012Y0017898D02*
X0147752Y0017898D01*
X0148538Y0017112D02*
X0126417Y0017112D01*
X0126587Y0017282D02*
X0126587Y0025505D01*
X0126005Y0026087D01*
X0117782Y0026087D01*
X0117200Y0025505D01*
X0117200Y0017282D01*
X0117782Y0016700D01*
X0126005Y0016700D01*
X0126587Y0017282D01*
X0126587Y0017898D02*
X0138775Y0017898D01*
X0137966Y0018684D02*
X0126587Y0018684D01*
X0126587Y0019470D02*
X0137317Y0019470D01*
X0136992Y0020256D02*
X0126587Y0020256D01*
X0126587Y0021042D02*
X0136700Y0021042D01*
X0136700Y0021827D02*
X0126587Y0021827D01*
X0126587Y0022613D02*
X0136700Y0022613D01*
X0136937Y0023399D02*
X0126587Y0023399D01*
X0126587Y0024185D02*
X0137262Y0024185D01*
X0137833Y0024971D02*
X0126587Y0024971D01*
X0126336Y0025757D02*
X0138619Y0025757D01*
X0140353Y0026543D02*
X0028115Y0026543D01*
X0028672Y0025757D02*
X0109162Y0025757D01*
X0109960Y0026087D02*
X0108235Y0025373D01*
X0106915Y0024052D01*
X0106200Y0022327D01*
X0106200Y0020460D01*
X0106915Y0018735D01*
X0108235Y0017415D01*
X0109960Y0016700D01*
X0111827Y0016700D01*
X0113552Y0017415D01*
X0114873Y0018735D01*
X0115587Y0020460D01*
X0115587Y0022327D01*
X0114873Y0024052D01*
X0113552Y0025373D01*
X0111827Y0026087D01*
X0109960Y0026087D01*
X0107833Y0024971D02*
X0028997Y0024971D01*
X0029323Y0024185D02*
X0107047Y0024185D01*
X0106644Y0023399D02*
X0029648Y0023399D01*
X0029787Y0022613D02*
X0106318Y0022613D01*
X0106200Y0021827D02*
X0029787Y0021827D01*
X0029787Y0021042D02*
X0106200Y0021042D01*
X0106285Y0020256D02*
X0029787Y0020256D01*
X0029682Y0019470D02*
X0106610Y0019470D01*
X0106966Y0018684D02*
X0029356Y0018684D01*
X0029031Y0017898D02*
X0107752Y0017898D01*
X0108965Y0017112D02*
X0028705Y0017112D01*
X0028197Y0016326D02*
X0150156Y0016326D01*
X0152632Y0016326D02*
X0166590Y0016326D01*
X0171000Y0016326D02*
X0171787Y0016326D01*
X0171787Y0017112D02*
X0171000Y0017112D01*
X0171000Y0017898D02*
X0171787Y0017898D01*
X0171787Y0018684D02*
X0171000Y0018684D01*
X0171000Y0019470D02*
X0171787Y0019470D01*
X0171787Y0020256D02*
X0171000Y0020256D01*
X0171394Y0020894D02*
X0171394Y0051394D01*
X0164787Y0047799D02*
X0162799Y0049787D01*
X0159988Y0049787D01*
X0158000Y0047799D01*
X0158000Y0044988D01*
X0159988Y0043000D01*
X0162799Y0043000D01*
X0164787Y0044988D01*
X0164787Y0047799D01*
X0164787Y0047763D02*
X0222821Y0047763D01*
X0223075Y0047508D02*
X0222508Y0048075D01*
X0222037Y0048724D01*
X0221673Y0049438D01*
X0221425Y0050201D01*
X0221300Y0050993D01*
X0221300Y0051000D01*
X0226000Y0051000D01*
X0226787Y0051000D01*
X0226787Y0046300D01*
X0226795Y0046300D01*
X0227586Y0046425D01*
X0228349Y0046673D01*
X0229063Y0047037D01*
X0229712Y0047508D01*
X0230279Y0048075D01*
X0230750Y0048724D01*
X0231114Y0049438D01*
X0231362Y0050201D01*
X0231487Y0050993D01*
X0231487Y0051000D01*
X0226787Y0051000D01*
X0226787Y0051787D01*
X0231487Y0051787D01*
X0231487Y0051795D01*
X0231362Y0052586D01*
X0231114Y0053349D01*
X0230750Y0054063D01*
X0230279Y0054712D01*
X0229985Y0055006D01*
X0233368Y0055006D01*
X0232415Y0054052D01*
X0231700Y0052327D01*
X0231700Y0050460D01*
X0232415Y0048735D01*
X0233735Y0047415D01*
X0235460Y0046700D01*
X0237327Y0046700D01*
X0239052Y0047415D01*
X0240373Y0048735D01*
X0241087Y0050460D01*
X0241087Y0052327D01*
X0240373Y0054052D01*
X0239419Y0055006D01*
X0240819Y0055006D01*
X0242227Y0053599D01*
X0241700Y0052327D01*
X0241700Y0050460D01*
X0242415Y0048735D01*
X0243735Y0047415D01*
X0245460Y0046700D01*
X0247327Y0046700D01*
X0249052Y0047415D01*
X0250373Y0048735D01*
X0251087Y0050460D01*
X0251087Y0052327D01*
X0250373Y0054052D01*
X0249052Y0055373D01*
X0247327Y0056087D01*
X0245460Y0056087D01*
X0244189Y0055561D01*
X0242781Y0056968D01*
X0241968Y0057781D01*
X0239419Y0057781D01*
X0240373Y0058735D01*
X0241087Y0060460D01*
X0241087Y0062327D01*
X0240373Y0064052D01*
X0239419Y0065006D01*
X0240819Y0065006D01*
X0242227Y0063599D01*
X0241700Y0062327D01*
X0241700Y0060460D01*
X0242415Y0058735D01*
X0243735Y0057415D01*
X0245460Y0056700D01*
X0247327Y0056700D01*
X0249052Y0057415D01*
X0250373Y0058735D01*
X0251087Y0060460D01*
X0251087Y0062327D01*
X0250373Y0064052D01*
X0249052Y0065373D01*
X0247327Y0066087D01*
X0245460Y0066087D01*
X0244189Y0065561D01*
X0242781Y0066968D01*
X0241968Y0067781D01*
X0239419Y0067781D01*
X0240373Y0068735D01*
X0241087Y0070460D01*
X0241087Y0072327D01*
X0240373Y0074052D01*
X0239419Y0075006D01*
X0240819Y0075006D01*
X0242227Y0073599D01*
X0241700Y0072327D01*
X0241700Y0070460D01*
X0242415Y0068735D01*
X0243735Y0067415D01*
X0245460Y0066700D01*
X0247327Y0066700D01*
X0249052Y0067415D01*
X0250373Y0068735D01*
X0251087Y0070460D01*
X0251087Y0072327D01*
X0250373Y0074052D01*
X0249052Y0075373D01*
X0247327Y0076087D01*
X0245460Y0076087D01*
X0244189Y0075561D01*
X0242781Y0076968D01*
X0241968Y0077781D01*
X0239419Y0077781D01*
X0240373Y0078735D01*
X0241087Y0080460D01*
X0241087Y0082327D01*
X0240373Y0084052D01*
X0239419Y0085006D01*
X0240819Y0085006D01*
X0242227Y0083599D01*
X0241700Y0082327D01*
X0241700Y0080460D01*
X0242415Y0078735D01*
X0243735Y0077415D01*
X0245460Y0076700D01*
X0247327Y0076700D01*
X0249052Y0077415D01*
X0250373Y0078735D01*
X0251087Y0080460D01*
X0251087Y0082327D01*
X0250373Y0084052D01*
X0249052Y0085373D01*
X0247327Y0086087D01*
X0245460Y0086087D01*
X0244189Y0085561D01*
X0242781Y0086968D01*
X0241968Y0087781D01*
X0205819Y0087781D01*
X0201814Y0083776D01*
X0200407Y0083776D01*
X0199011Y0082381D01*
X0199011Y0080407D01*
X0200407Y0079011D01*
X0202381Y0079011D01*
X0203776Y0080407D01*
X0203776Y0081814D01*
X0206968Y0085006D01*
X0222803Y0085006D01*
X0222508Y0084712D01*
X0222037Y0084063D01*
X0221673Y0083349D01*
X0221425Y0082586D01*
X0221300Y0081795D01*
X0221300Y0081787D01*
X0226000Y0081787D01*
X0226000Y0081000D01*
X0221300Y0081000D01*
X0221300Y0080993D01*
X0221425Y0080201D01*
X0221673Y0079438D01*
X0222037Y0078724D01*
X0222508Y0078075D01*
X0222803Y0077781D01*
X0218287Y0077781D01*
X0217381Y0078687D01*
X0215407Y0078687D01*
X0214011Y0077292D01*
X0214011Y0075318D01*
X0215407Y0073922D01*
X0217381Y0073922D01*
X0218465Y0075006D01*
X0222803Y0075006D01*
X0222508Y0074712D01*
X0222037Y0074063D01*
X0221673Y0073349D01*
X0221425Y0072586D01*
X0221300Y0071795D01*
X0221300Y0071787D01*
X0226000Y0071787D01*
X0226000Y0071000D01*
X0221300Y0071000D01*
X0221300Y0070993D01*
X0221425Y0070201D01*
X0221673Y0069438D01*
X0222037Y0068724D01*
X0222508Y0068075D01*
X0222803Y0067781D01*
X0218376Y0067781D01*
X0217381Y0068776D01*
X0215407Y0068776D01*
X0214011Y0067381D01*
X0214011Y0065407D01*
X0215407Y0064011D01*
X0217381Y0064011D01*
X0218376Y0065006D01*
X0222803Y0065006D01*
X0222508Y0064712D01*
X0222037Y0064063D01*
X0221673Y0063349D01*
X0221425Y0062586D01*
X0221300Y0061795D01*
X0221300Y0061787D01*
X0226000Y0061787D01*
X0226000Y0061000D01*
X0221300Y0061000D01*
X0221300Y0060993D01*
X0221425Y0060201D01*
X0221673Y0059438D01*
X0222037Y0058724D01*
X0222508Y0058075D01*
X0222803Y0057781D01*
X0221404Y0057781D01*
X0218494Y0060691D01*
X0218494Y0062098D01*
X0217098Y0063494D01*
X0215125Y0063494D01*
X0213729Y0062098D01*
X0213729Y0060125D01*
X0215125Y0058729D01*
X0216532Y0058729D01*
X0220255Y0055006D01*
X0222803Y0055006D01*
X0222508Y0054712D01*
X0222037Y0054063D01*
X0221673Y0053349D01*
X0221425Y0052586D01*
X0221300Y0051795D01*
X0221300Y0051787D01*
X0226000Y0051787D01*
X0226000Y0051000D01*
X0226000Y0046300D01*
X0225993Y0046300D01*
X0225201Y0046425D01*
X0224438Y0046673D01*
X0223724Y0047037D01*
X0223075Y0047508D01*
X0223843Y0046977D02*
X0164787Y0046977D01*
X0164787Y0046191D02*
X0234674Y0046191D01*
X0234438Y0046114D02*
X0235201Y0046362D01*
X0235993Y0046487D01*
X0236000Y0046487D01*
X0236000Y0041787D01*
X0236000Y0041000D01*
X0231300Y0041000D01*
X0231300Y0040993D01*
X0231425Y0040201D01*
X0231673Y0039438D01*
X0232037Y0038724D01*
X0232508Y0038075D01*
X0233075Y0037508D01*
X0233724Y0037037D01*
X0234438Y0036673D01*
X0235201Y0036425D01*
X0235993Y0036300D01*
X0236000Y0036300D01*
X0236000Y0041000D01*
X0236787Y0041000D01*
X0236787Y0036300D01*
X0236795Y0036300D01*
X0237586Y0036425D01*
X0238349Y0036673D01*
X0239063Y0037037D01*
X0239712Y0037508D01*
X0240279Y0038075D01*
X0240750Y0038724D01*
X0241114Y0039438D01*
X0241362Y0040201D01*
X0241487Y0040993D01*
X0241487Y0041000D01*
X0236787Y0041000D01*
X0236787Y0041787D01*
X0236000Y0041787D01*
X0231300Y0041787D01*
X0231300Y0041795D01*
X0231425Y0042586D01*
X0231673Y0043349D01*
X0232037Y0044063D01*
X0232508Y0044712D01*
X0233075Y0045279D01*
X0233724Y0045750D01*
X0234438Y0046114D01*
X0234792Y0046977D02*
X0228945Y0046977D01*
X0229966Y0047763D02*
X0233387Y0047763D01*
X0232601Y0048548D02*
X0230623Y0048548D01*
X0231061Y0049334D02*
X0232166Y0049334D01*
X0231841Y0050120D02*
X0231336Y0050120D01*
X0231474Y0050906D02*
X0231700Y0050906D01*
X0231700Y0051692D02*
X0226787Y0051692D01*
X0226787Y0050906D02*
X0226000Y0050906D01*
X0226000Y0050120D02*
X0226787Y0050120D01*
X0226787Y0049334D02*
X0226000Y0049334D01*
X0226000Y0048548D02*
X0226787Y0048548D01*
X0226787Y0047763D02*
X0226000Y0047763D01*
X0226000Y0046977D02*
X0226787Y0046977D01*
X0222165Y0048548D02*
X0164038Y0048548D01*
X0163252Y0049334D02*
X0195112Y0049334D01*
X0195435Y0049011D02*
X0197409Y0049011D01*
X0198805Y0050407D01*
X0198805Y0052381D01*
X0197976Y0053209D01*
X0197976Y0064811D01*
X0199518Y0064811D01*
X0200407Y0063922D01*
X0202381Y0063922D01*
X0203776Y0065318D01*
X0203776Y0067292D01*
X0202381Y0068687D01*
X0200407Y0068687D01*
X0199518Y0067798D01*
X0197976Y0067798D01*
X0197976Y0109578D01*
X0198805Y0110407D01*
X0198805Y0112381D01*
X0197976Y0113209D01*
X0197976Y0124811D01*
X0199518Y0124811D01*
X0200407Y0123922D01*
X0202381Y0123922D01*
X0203776Y0125318D01*
X0203776Y0127292D01*
X0202381Y0128687D01*
X0200407Y0128687D01*
X0199518Y0127798D01*
X0197101Y0127798D01*
X0193776Y0131123D01*
X0193776Y0132470D01*
X0192381Y0133865D01*
X0190407Y0133865D01*
X0189501Y0132959D01*
X0181468Y0132887D01*
X0116376Y0132395D01*
X0116376Y0132404D01*
X0114980Y0133800D01*
X0113006Y0133800D01*
X0112115Y0132910D01*
X0086300Y0132887D01*
X0085686Y0132887D01*
X0085685Y0132887D01*
X0085244Y0132445D01*
X0076664Y0123865D01*
X0075407Y0123865D01*
X0074011Y0122470D01*
X0074011Y0120496D01*
X0074900Y0119607D01*
X0074900Y0118359D01*
X0074011Y0117470D01*
X0074011Y0115496D01*
X0074900Y0114607D01*
X0074900Y0109770D01*
X0074011Y0108881D01*
X0074011Y0106907D01*
X0074900Y0106018D01*
X0074900Y0103270D01*
X0074011Y0102381D01*
X0074011Y0100407D01*
X0075006Y0099411D01*
X0075006Y0063376D01*
X0074011Y0062381D01*
X0074011Y0060407D01*
X0074900Y0059518D01*
X0074900Y0058181D01*
X0074011Y0057292D01*
X0074011Y0055318D01*
X0074900Y0054429D01*
X0074900Y0049770D01*
X0074011Y0048881D01*
X0074011Y0046907D01*
X0074900Y0046018D01*
X0074900Y0043270D01*
X0074011Y0042381D01*
X0074011Y0040407D01*
X0075407Y0039011D01*
X0077381Y0039011D01*
X0078776Y0040407D01*
X0078776Y0042381D01*
X0077887Y0043270D01*
X0077887Y0046018D01*
X0078776Y0046907D01*
X0078776Y0048881D01*
X0077887Y0049770D01*
X0077887Y0054429D01*
X0078776Y0055318D01*
X0078776Y0057292D01*
X0077887Y0058181D01*
X0077887Y0059518D01*
X0078776Y0060407D01*
X0078776Y0062381D01*
X0077781Y0063376D01*
X0077781Y0099411D01*
X0078776Y0100407D01*
X0078776Y0102381D01*
X0077887Y0103270D01*
X0077887Y0106018D01*
X0078776Y0106907D01*
X0078776Y0108881D01*
X0077887Y0109770D01*
X0077887Y0114607D01*
X0078776Y0115496D01*
X0078776Y0117470D01*
X0077887Y0118359D01*
X0077887Y0119607D01*
X0078776Y0120496D01*
X0078776Y0121753D01*
X0086924Y0129901D01*
X0112119Y0129922D01*
X0113006Y0129035D01*
X0114980Y0129035D01*
X0115279Y0129334D01*
X0115426Y0129278D01*
X0115703Y0129402D01*
X0180877Y0129895D01*
X0180877Y0129895D01*
X0181500Y0129900D01*
X0182113Y0129905D01*
X0182114Y0129906D01*
X0189535Y0129972D01*
X0190407Y0129100D01*
X0191575Y0129100D01*
X0194989Y0125686D01*
X0194989Y0113330D01*
X0194040Y0112381D01*
X0194040Y0110407D01*
X0194989Y0109458D01*
X0194989Y0072887D01*
X0193270Y0072887D01*
X0192381Y0073776D01*
X0190407Y0073776D01*
X0189011Y0072381D01*
X0189011Y0070407D01*
X0190407Y0069011D01*
X0192381Y0069011D01*
X0193270Y0069900D01*
X0194989Y0069900D01*
X0194989Y0053330D01*
X0194040Y0052381D01*
X0194040Y0050407D01*
X0195435Y0049011D01*
X0194326Y0050120D02*
X0077887Y0050120D01*
X0077887Y0050906D02*
X0194040Y0050906D01*
X0194040Y0051692D02*
X0077887Y0051692D01*
X0077887Y0052478D02*
X0194137Y0052478D01*
X0194923Y0053264D02*
X0077887Y0053264D01*
X0077887Y0054050D02*
X0194989Y0054050D01*
X0194989Y0054836D02*
X0078294Y0054836D01*
X0078776Y0055622D02*
X0194989Y0055622D01*
X0194989Y0056408D02*
X0078776Y0056408D01*
X0078776Y0057194D02*
X0194989Y0057194D01*
X0194989Y0057979D02*
X0078089Y0057979D01*
X0077887Y0058765D02*
X0194989Y0058765D01*
X0194989Y0059551D02*
X0077921Y0059551D01*
X0078707Y0060337D02*
X0194989Y0060337D01*
X0194989Y0061123D02*
X0078776Y0061123D01*
X0078776Y0061909D02*
X0194989Y0061909D01*
X0194989Y0062695D02*
X0078462Y0062695D01*
X0077781Y0063481D02*
X0194989Y0063481D01*
X0194989Y0064267D02*
X0077781Y0064267D01*
X0077781Y0065053D02*
X0194989Y0065053D01*
X0194989Y0065839D02*
X0077781Y0065839D01*
X0077781Y0066624D02*
X0194989Y0066624D01*
X0194989Y0067410D02*
X0077781Y0067410D01*
X0077781Y0068196D02*
X0194989Y0068196D01*
X0194989Y0068982D02*
X0077781Y0068982D01*
X0077781Y0069768D02*
X0189650Y0069768D01*
X0189011Y0070554D02*
X0077781Y0070554D01*
X0077781Y0071340D02*
X0189011Y0071340D01*
X0189011Y0072126D02*
X0077781Y0072126D01*
X0077781Y0072912D02*
X0189542Y0072912D01*
X0190328Y0073698D02*
X0077781Y0073698D01*
X0077781Y0074484D02*
X0194989Y0074484D01*
X0194989Y0075270D02*
X0077781Y0075270D01*
X0077781Y0076055D02*
X0194989Y0076055D01*
X0194989Y0076841D02*
X0077781Y0076841D01*
X0077781Y0077627D02*
X0194989Y0077627D01*
X0194989Y0078413D02*
X0077781Y0078413D01*
X0077781Y0079199D02*
X0090219Y0079199D01*
X0090407Y0079011D02*
X0092381Y0079011D01*
X0093270Y0079900D01*
X0129518Y0079900D01*
X0130407Y0079011D01*
X0132381Y0079011D01*
X0133776Y0080407D01*
X0133776Y0081664D01*
X0147012Y0094900D01*
X0179518Y0094900D01*
X0180407Y0094011D01*
X0182381Y0094011D01*
X0183776Y0095407D01*
X0183776Y0097381D01*
X0182381Y0098776D01*
X0180407Y0098776D01*
X0179518Y0097887D01*
X0145775Y0097887D01*
X0144900Y0097012D01*
X0131664Y0083776D01*
X0130407Y0083776D01*
X0129518Y0082887D01*
X0093270Y0082887D01*
X0092381Y0083776D01*
X0090407Y0083776D01*
X0089011Y0082381D01*
X0089011Y0080407D01*
X0090407Y0079011D01*
X0089433Y0079985D02*
X0077781Y0079985D01*
X0077781Y0080771D02*
X0089011Y0080771D01*
X0089011Y0081557D02*
X0077781Y0081557D01*
X0077781Y0082343D02*
X0089011Y0082343D01*
X0089759Y0083129D02*
X0077781Y0083129D01*
X0077781Y0083915D02*
X0131802Y0083915D01*
X0132588Y0084700D02*
X0077781Y0084700D01*
X0077781Y0085486D02*
X0133374Y0085486D01*
X0134160Y0086272D02*
X0077781Y0086272D01*
X0077781Y0087058D02*
X0134946Y0087058D01*
X0135732Y0087844D02*
X0077781Y0087844D01*
X0077781Y0088630D02*
X0136518Y0088630D01*
X0137304Y0089416D02*
X0077781Y0089416D01*
X0077781Y0090202D02*
X0138089Y0090202D01*
X0138875Y0090988D02*
X0077781Y0090988D01*
X0077781Y0091774D02*
X0139661Y0091774D01*
X0140447Y0092560D02*
X0077781Y0092560D01*
X0077781Y0093346D02*
X0141233Y0093346D01*
X0142019Y0094131D02*
X0077781Y0094131D01*
X0077781Y0094917D02*
X0142805Y0094917D01*
X0143591Y0095703D02*
X0077781Y0095703D01*
X0077781Y0096489D02*
X0144377Y0096489D01*
X0145163Y0097275D02*
X0077781Y0097275D01*
X0077781Y0098061D02*
X0179691Y0098061D01*
X0183096Y0098061D02*
X0194989Y0098061D01*
X0194989Y0098847D02*
X0077781Y0098847D01*
X0078002Y0099633D02*
X0194989Y0099633D01*
X0194989Y0100419D02*
X0078776Y0100419D01*
X0078776Y0101205D02*
X0194989Y0101205D01*
X0194989Y0101991D02*
X0078776Y0101991D01*
X0078381Y0102776D02*
X0194989Y0102776D01*
X0194989Y0103562D02*
X0077887Y0103562D01*
X0077887Y0104348D02*
X0194989Y0104348D01*
X0194989Y0105134D02*
X0077887Y0105134D01*
X0077887Y0105920D02*
X0194989Y0105920D01*
X0194989Y0106706D02*
X0078576Y0106706D01*
X0078776Y0107492D02*
X0194989Y0107492D01*
X0194989Y0108278D02*
X0078776Y0108278D01*
X0078593Y0109064D02*
X0194989Y0109064D01*
X0194597Y0109850D02*
X0077887Y0109850D01*
X0077887Y0110636D02*
X0194040Y0110636D01*
X0194040Y0111422D02*
X0077887Y0111422D01*
X0077887Y0112207D02*
X0194040Y0112207D01*
X0194652Y0112993D02*
X0077887Y0112993D01*
X0077887Y0113779D02*
X0194989Y0113779D01*
X0194989Y0114565D02*
X0077887Y0114565D01*
X0078632Y0115351D02*
X0194989Y0115351D01*
X0194989Y0116137D02*
X0078776Y0116137D01*
X0078776Y0116923D02*
X0194989Y0116923D01*
X0194989Y0117709D02*
X0078537Y0117709D01*
X0077887Y0118495D02*
X0194989Y0118495D01*
X0194989Y0119281D02*
X0077887Y0119281D01*
X0078347Y0120067D02*
X0194989Y0120067D01*
X0194989Y0120852D02*
X0078776Y0120852D01*
X0078776Y0121638D02*
X0194989Y0121638D01*
X0194989Y0122424D02*
X0079448Y0122424D01*
X0080234Y0123210D02*
X0194989Y0123210D01*
X0194989Y0123996D02*
X0081020Y0123996D01*
X0081805Y0124782D02*
X0194989Y0124782D01*
X0194989Y0125568D02*
X0082591Y0125568D01*
X0083377Y0126354D02*
X0194321Y0126354D01*
X0193535Y0127140D02*
X0084163Y0127140D01*
X0084949Y0127926D02*
X0192749Y0127926D01*
X0191963Y0128712D02*
X0085735Y0128712D01*
X0086521Y0129498D02*
X0112543Y0129498D01*
X0112633Y0133427D02*
X0051074Y0133427D01*
X0051114Y0133349D02*
X0050750Y0134063D01*
X0050279Y0134712D01*
X0049985Y0135006D01*
X0054411Y0135006D01*
X0055407Y0134011D01*
X0057381Y0134011D01*
X0058776Y0135407D01*
X0058776Y0137381D01*
X0057381Y0138776D01*
X0055407Y0138776D01*
X0054411Y0137781D01*
X0040819Y0137781D01*
X0040613Y0137575D01*
X0039778Y0137575D01*
X0040279Y0138075D01*
X0040750Y0138724D01*
X0041114Y0139438D01*
X0041362Y0140201D01*
X0041487Y0140993D01*
X0041487Y0141000D01*
X0036787Y0141000D01*
X0036787Y0141787D01*
X0036000Y0141787D01*
X0036000Y0141000D01*
X0031300Y0141000D01*
X0031300Y0140993D01*
X0031425Y0140201D01*
X0031673Y0139438D01*
X0032037Y0138724D01*
X0032508Y0138075D01*
X0033075Y0137508D01*
X0033476Y0137217D01*
X0033021Y0136762D01*
X0030342Y0134083D01*
X0029052Y0135373D01*
X0027327Y0136087D01*
X0025460Y0136087D01*
X0023735Y0135373D01*
X0022415Y0134052D01*
X0021700Y0132327D01*
X0021700Y0130460D01*
X0022415Y0128735D01*
X0023735Y0127415D01*
X0025460Y0126700D01*
X0027327Y0126700D01*
X0029052Y0127415D01*
X0030373Y0128735D01*
X0031087Y0130460D01*
X0031087Y0130905D01*
X0031700Y0131517D01*
X0031700Y0130460D01*
X0032415Y0128735D01*
X0033368Y0127781D01*
X0030819Y0127781D01*
X0030006Y0126968D01*
X0028599Y0125561D01*
X0027327Y0126087D01*
X0025460Y0126087D01*
X0023735Y0125373D01*
X0022415Y0124052D01*
X0021700Y0122327D01*
X0021700Y0120460D01*
X0022415Y0118735D01*
X0023735Y0117415D01*
X0025460Y0116700D01*
X0027327Y0116700D01*
X0029052Y0117415D01*
X0030373Y0118735D01*
X0031087Y0120460D01*
X0031087Y0122327D01*
X0030561Y0123599D01*
X0031968Y0125006D01*
X0033368Y0125006D01*
X0032415Y0124052D01*
X0031700Y0122327D01*
X0031700Y0120460D01*
X0032415Y0118735D01*
X0033368Y0117781D01*
X0030819Y0117781D01*
X0030006Y0116968D01*
X0028599Y0115561D01*
X0027327Y0116087D01*
X0025460Y0116087D01*
X0023735Y0115373D01*
X0022415Y0114052D01*
X0021700Y0112327D01*
X0021700Y0110460D01*
X0022415Y0108735D01*
X0023735Y0107415D01*
X0025460Y0106700D01*
X0027327Y0106700D01*
X0029052Y0107415D01*
X0030373Y0108735D01*
X0031087Y0110460D01*
X0031087Y0112327D01*
X0030561Y0113599D01*
X0031968Y0115006D01*
X0033368Y0115006D01*
X0032415Y0114052D01*
X0031700Y0112327D01*
X0031700Y0110460D01*
X0032415Y0108735D01*
X0033368Y0107781D01*
X0030819Y0107781D01*
X0030006Y0106968D01*
X0028599Y0105561D01*
X0027327Y0106087D01*
X0025460Y0106087D01*
X0023735Y0105373D01*
X0022415Y0104052D01*
X0021700Y0102327D01*
X0021700Y0100460D01*
X0022415Y0098735D01*
X0023735Y0097415D01*
X0025460Y0096700D01*
X0027327Y0096700D01*
X0029052Y0097415D01*
X0030373Y0098735D01*
X0031087Y0100460D01*
X0031087Y0102327D01*
X0030561Y0103599D01*
X0031968Y0105006D01*
X0033368Y0105006D01*
X0032415Y0104052D01*
X0031700Y0102327D01*
X0031700Y0100460D01*
X0032415Y0098735D01*
X0033735Y0097415D01*
X0035460Y0096700D01*
X0037327Y0096700D01*
X0039052Y0097415D01*
X0040373Y0098735D01*
X0041087Y0100460D01*
X0041087Y0102327D01*
X0040373Y0104052D01*
X0039419Y0105006D01*
X0042803Y0105006D01*
X0042508Y0104712D01*
X0042037Y0104063D01*
X0041673Y0103349D01*
X0041425Y0102586D01*
X0041300Y0101795D01*
X0041300Y0101787D01*
X0046000Y0101787D01*
X0046000Y0101000D01*
X0046787Y0101000D01*
X0046787Y0096300D01*
X0046795Y0096300D01*
X0047586Y0096425D01*
X0048349Y0096673D01*
X0049063Y0097037D01*
X0049712Y0097508D01*
X0050279Y0098075D01*
X0050750Y0098724D01*
X0051114Y0099438D01*
X0051362Y0100201D01*
X0051487Y0100993D01*
X0051487Y0101000D01*
X0046787Y0101000D01*
X0046787Y0101787D01*
X0051487Y0101787D01*
X0051487Y0101795D01*
X0051362Y0102586D01*
X0051114Y0103349D01*
X0050750Y0104063D01*
X0050279Y0104712D01*
X0049985Y0105006D01*
X0054500Y0105006D01*
X0055407Y0104100D01*
X0057381Y0104100D01*
X0058776Y0105496D01*
X0058776Y0107470D01*
X0057381Y0108865D01*
X0055407Y0108865D01*
X0054323Y0107781D01*
X0049985Y0107781D01*
X0050279Y0108075D01*
X0050750Y0108724D01*
X0051114Y0109438D01*
X0051362Y0110201D01*
X0051487Y0110993D01*
X0051487Y0111000D01*
X0046787Y0111000D01*
X0046787Y0111787D01*
X0051487Y0111787D01*
X0051487Y0111795D01*
X0051362Y0112586D01*
X0051114Y0113349D01*
X0050750Y0114063D01*
X0050279Y0114712D01*
X0049985Y0115006D01*
X0054411Y0115006D01*
X0055407Y0114011D01*
X0057381Y0114011D01*
X0058776Y0115407D01*
X0058776Y0117381D01*
X0057381Y0118776D01*
X0055407Y0118776D01*
X0054411Y0117781D01*
X0049985Y0117781D01*
X0050279Y0118075D01*
X0050750Y0118724D01*
X0051114Y0119438D01*
X0051362Y0120201D01*
X0051487Y0120993D01*
X0051487Y0121000D01*
X0046787Y0121000D01*
X0046787Y0121787D01*
X0051487Y0121787D01*
X0051487Y0121795D01*
X0051362Y0122586D01*
X0051114Y0123349D01*
X0050750Y0124063D01*
X0050279Y0124712D01*
X0049985Y0125006D01*
X0054323Y0125006D01*
X0055407Y0123922D01*
X0057381Y0123922D01*
X0058776Y0125318D01*
X0058776Y0127292D01*
X0057381Y0128687D01*
X0055407Y0128687D01*
X0054500Y0127781D01*
X0049985Y0127781D01*
X0050279Y0128075D01*
X0050750Y0128724D01*
X0051114Y0129438D01*
X0051362Y0130201D01*
X0051487Y0130993D01*
X0051487Y0131000D01*
X0046787Y0131000D01*
X0046787Y0131787D01*
X0051487Y0131787D01*
X0051487Y0131795D01*
X0051362Y0132586D01*
X0051114Y0133349D01*
X0051344Y0132641D02*
X0085439Y0132641D01*
X0085685Y0132887D02*
X0085685Y0132887D01*
X0084654Y0131855D02*
X0051478Y0131855D01*
X0051375Y0130283D02*
X0083082Y0130283D01*
X0082296Y0129498D02*
X0051133Y0129498D01*
X0050741Y0128712D02*
X0081510Y0128712D01*
X0080724Y0127926D02*
X0058142Y0127926D01*
X0058776Y0127140D02*
X0079938Y0127140D01*
X0079152Y0126354D02*
X0058776Y0126354D01*
X0058776Y0125568D02*
X0078367Y0125568D01*
X0077581Y0124782D02*
X0058241Y0124782D01*
X0057455Y0123996D02*
X0076795Y0123996D01*
X0074752Y0123210D02*
X0051159Y0123210D01*
X0051388Y0122424D02*
X0074011Y0122424D01*
X0074011Y0121638D02*
X0046787Y0121638D01*
X0046000Y0121638D02*
X0041087Y0121638D01*
X0041300Y0121787D02*
X0046000Y0121787D01*
X0046000Y0121000D01*
X0041300Y0121000D01*
X0041300Y0120993D01*
X0041425Y0120201D01*
X0041673Y0119438D01*
X0042037Y0118724D01*
X0042508Y0118075D01*
X0042803Y0117781D01*
X0039419Y0117781D01*
X0040373Y0118735D01*
X0041087Y0120460D01*
X0041087Y0122327D01*
X0040373Y0124052D01*
X0039419Y0125006D01*
X0042803Y0125006D01*
X0042508Y0124712D01*
X0042037Y0124063D01*
X0041673Y0123349D01*
X0041425Y0122586D01*
X0041300Y0121795D01*
X0041300Y0121787D01*
X0041400Y0122424D02*
X0041047Y0122424D01*
X0040722Y0123210D02*
X0041628Y0123210D01*
X0042003Y0123996D02*
X0040396Y0123996D01*
X0039643Y0124782D02*
X0042578Y0124782D01*
X0042803Y0127781D02*
X0039419Y0127781D01*
X0040373Y0128735D01*
X0041087Y0130460D01*
X0041087Y0132327D01*
X0040373Y0134052D01*
X0039625Y0134800D01*
X0041762Y0134800D01*
X0041968Y0135006D01*
X0042803Y0135006D01*
X0042508Y0134712D01*
X0042037Y0134063D01*
X0041673Y0133349D01*
X0041425Y0132586D01*
X0041300Y0131795D01*
X0041300Y0131787D01*
X0046000Y0131787D01*
X0046000Y0131000D01*
X0041300Y0131000D01*
X0041300Y0130993D01*
X0041425Y0130201D01*
X0041673Y0129438D01*
X0042037Y0128724D01*
X0042508Y0128075D01*
X0042803Y0127781D01*
X0042658Y0127926D02*
X0039564Y0127926D01*
X0040349Y0128712D02*
X0042046Y0128712D01*
X0041654Y0129498D02*
X0040689Y0129498D01*
X0041014Y0130283D02*
X0041412Y0130283D01*
X0041087Y0131069D02*
X0046000Y0131069D01*
X0046787Y0131069D02*
X0083868Y0131069D01*
X0074011Y0120852D02*
X0051465Y0120852D01*
X0051318Y0120067D02*
X0074440Y0120067D01*
X0074900Y0119281D02*
X0051034Y0119281D01*
X0050584Y0118495D02*
X0055125Y0118495D01*
X0056394Y0116394D02*
X0031394Y0116394D01*
X0026394Y0111394D01*
X0021976Y0112993D02*
X0020812Y0112993D01*
X0021087Y0112327D02*
X0020373Y0114052D01*
X0019052Y0115373D01*
X0017327Y0116087D01*
X0015460Y0116087D01*
X0013735Y0115373D01*
X0012415Y0114052D01*
X0011700Y0112327D01*
X0011700Y0110460D01*
X0012415Y0108735D01*
X0013735Y0107415D01*
X0015460Y0106700D01*
X0017327Y0106700D01*
X0019052Y0107415D01*
X0020373Y0108735D01*
X0021087Y0110460D01*
X0021087Y0112327D01*
X0021087Y0112207D02*
X0021700Y0112207D01*
X0021700Y0111422D02*
X0021087Y0111422D01*
X0021087Y0110636D02*
X0021700Y0110636D01*
X0021953Y0109850D02*
X0020835Y0109850D01*
X0020509Y0109064D02*
X0022278Y0109064D01*
X0022872Y0108278D02*
X0019916Y0108278D01*
X0019130Y0107492D02*
X0023658Y0107492D01*
X0025445Y0106706D02*
X0017342Y0106706D01*
X0017327Y0106087D02*
X0015460Y0106087D01*
X0013735Y0105373D01*
X0012415Y0104052D01*
X0011700Y0102327D01*
X0011700Y0100460D01*
X0012415Y0098735D01*
X0013735Y0097415D01*
X0015460Y0096700D01*
X0017327Y0096700D01*
X0019052Y0097415D01*
X0020373Y0098735D01*
X0021087Y0100460D01*
X0021087Y0102327D01*
X0020373Y0104052D01*
X0019052Y0105373D01*
X0017327Y0106087D01*
X0017731Y0105920D02*
X0025056Y0105920D01*
X0023496Y0105134D02*
X0019291Y0105134D01*
X0020077Y0104348D02*
X0022710Y0104348D01*
X0022212Y0103562D02*
X0020576Y0103562D01*
X0020901Y0102776D02*
X0021886Y0102776D01*
X0021700Y0101991D02*
X0021087Y0101991D01*
X0021087Y0101205D02*
X0021700Y0101205D01*
X0021717Y0100419D02*
X0021070Y0100419D01*
X0020745Y0099633D02*
X0022043Y0099633D01*
X0022368Y0098847D02*
X0020419Y0098847D01*
X0019699Y0098061D02*
X0023089Y0098061D01*
X0024072Y0097275D02*
X0018716Y0097275D01*
X0014072Y0097275D02*
X0003587Y0097275D01*
X0003587Y0096489D02*
X0045005Y0096489D01*
X0045201Y0096425D02*
X0045993Y0096300D01*
X0046000Y0096300D01*
X0046000Y0101000D01*
X0041300Y0101000D01*
X0041300Y0100993D01*
X0041425Y0100201D01*
X0041673Y0099438D01*
X0042037Y0098724D01*
X0042508Y0098075D01*
X0043075Y0097508D01*
X0043724Y0097037D01*
X0044438Y0096673D01*
X0045201Y0096425D01*
X0046000Y0096489D02*
X0046787Y0096489D01*
X0046787Y0097275D02*
X0046000Y0097275D01*
X0046000Y0098061D02*
X0046787Y0098061D01*
X0046787Y0098847D02*
X0046000Y0098847D01*
X0046000Y0099633D02*
X0046787Y0099633D01*
X0046787Y0100419D02*
X0046000Y0100419D01*
X0046000Y0101205D02*
X0041087Y0101205D01*
X0041087Y0101991D02*
X0041331Y0101991D01*
X0041487Y0102776D02*
X0040901Y0102776D01*
X0040576Y0103562D02*
X0041782Y0103562D01*
X0042244Y0104348D02*
X0040077Y0104348D01*
X0039419Y0107781D02*
X0040373Y0108735D01*
X0041087Y0110460D01*
X0041087Y0112327D01*
X0040373Y0114052D01*
X0039419Y0115006D01*
X0042803Y0115006D01*
X0042508Y0114712D01*
X0042037Y0114063D01*
X0041673Y0113349D01*
X0041425Y0112586D01*
X0041300Y0111795D01*
X0041300Y0111787D01*
X0046000Y0111787D01*
X0046000Y0111000D01*
X0041300Y0111000D01*
X0041300Y0110993D01*
X0041425Y0110201D01*
X0041673Y0109438D01*
X0042037Y0108724D01*
X0042508Y0108075D01*
X0042803Y0107781D01*
X0039419Y0107781D01*
X0039916Y0108278D02*
X0042361Y0108278D01*
X0041864Y0109064D02*
X0040509Y0109064D01*
X0040835Y0109850D02*
X0041540Y0109850D01*
X0041357Y0110636D02*
X0041087Y0110636D01*
X0041087Y0111422D02*
X0046000Y0111422D01*
X0046787Y0111422D02*
X0074900Y0111422D01*
X0074900Y0112207D02*
X0051422Y0112207D01*
X0051230Y0112993D02*
X0074900Y0112993D01*
X0074900Y0113779D02*
X0050895Y0113779D01*
X0050386Y0114565D02*
X0054853Y0114565D01*
X0057935Y0114565D02*
X0074900Y0114565D01*
X0074156Y0115351D02*
X0058721Y0115351D01*
X0058776Y0116137D02*
X0074011Y0116137D01*
X0074011Y0116923D02*
X0058776Y0116923D01*
X0058448Y0117709D02*
X0074250Y0117709D01*
X0074900Y0118495D02*
X0057662Y0118495D01*
X0055333Y0123996D02*
X0050784Y0123996D01*
X0050209Y0124782D02*
X0054547Y0124782D01*
X0056305Y0126394D02*
X0056394Y0126305D01*
X0056305Y0126394D02*
X0031394Y0126394D01*
X0026394Y0121394D01*
X0022066Y0123210D02*
X0020722Y0123210D01*
X0021047Y0122424D02*
X0021740Y0122424D01*
X0021087Y0122327D02*
X0020373Y0124052D01*
X0019052Y0125373D01*
X0017327Y0126087D01*
X0015460Y0126087D01*
X0013735Y0125373D01*
X0012415Y0124052D01*
X0011700Y0122327D01*
X0011700Y0120460D01*
X0012415Y0118735D01*
X0013735Y0117415D01*
X0015460Y0116700D01*
X0017327Y0116700D01*
X0019052Y0117415D01*
X0020373Y0118735D01*
X0021087Y0120460D01*
X0021087Y0122327D01*
X0021087Y0121638D02*
X0021700Y0121638D01*
X0021700Y0120852D02*
X0021087Y0120852D01*
X0020924Y0120067D02*
X0021863Y0120067D01*
X0022189Y0119281D02*
X0020599Y0119281D01*
X0020133Y0118495D02*
X0022655Y0118495D01*
X0023441Y0117709D02*
X0019347Y0117709D01*
X0017865Y0116923D02*
X0024922Y0116923D01*
X0023713Y0115351D02*
X0019074Y0115351D01*
X0019860Y0114565D02*
X0022927Y0114565D01*
X0022301Y0113779D02*
X0020486Y0113779D01*
X0014922Y0116923D02*
X0003587Y0116923D01*
X0003587Y0117709D02*
X0013441Y0117709D01*
X0012655Y0118495D02*
X0003587Y0118495D01*
X0003587Y0119281D02*
X0012189Y0119281D01*
X0011863Y0120067D02*
X0003587Y0120067D01*
X0003587Y0120852D02*
X0011700Y0120852D01*
X0011700Y0121638D02*
X0003587Y0121638D01*
X0003587Y0122424D02*
X0011740Y0122424D01*
X0012066Y0123210D02*
X0003587Y0123210D01*
X0003587Y0123996D02*
X0012391Y0123996D01*
X0013144Y0124782D02*
X0003587Y0124782D01*
X0003587Y0125568D02*
X0014206Y0125568D01*
X0014398Y0127140D02*
X0003587Y0127140D01*
X0003587Y0127926D02*
X0013224Y0127926D01*
X0013735Y0127415D02*
X0012415Y0128735D01*
X0011700Y0130460D01*
X0011700Y0132327D01*
X0012415Y0134052D01*
X0013735Y0135373D01*
X0015460Y0136087D01*
X0017327Y0136087D01*
X0019052Y0135373D01*
X0020373Y0134052D01*
X0021087Y0132327D01*
X0021087Y0130460D01*
X0020373Y0128735D01*
X0019052Y0127415D01*
X0017327Y0126700D01*
X0015460Y0126700D01*
X0013735Y0127415D01*
X0012438Y0128712D02*
X0003587Y0128712D01*
X0003587Y0129498D02*
X0012099Y0129498D01*
X0011773Y0130283D02*
X0003587Y0130283D01*
X0003587Y0131069D02*
X0011700Y0131069D01*
X0011700Y0131855D02*
X0003587Y0131855D01*
X0003587Y0132641D02*
X0011830Y0132641D01*
X0012156Y0133427D02*
X0003587Y0133427D01*
X0003587Y0134213D02*
X0012575Y0134213D01*
X0013361Y0134999D02*
X0003587Y0134999D01*
X0003587Y0135785D02*
X0014730Y0135785D01*
X0018058Y0135785D02*
X0024730Y0135785D01*
X0025460Y0136700D02*
X0027327Y0136700D01*
X0029052Y0137415D01*
X0030373Y0138735D01*
X0031087Y0140460D01*
X0031087Y0142327D01*
X0030373Y0144052D01*
X0029052Y0145373D01*
X0027327Y0146087D01*
X0025460Y0146087D01*
X0023735Y0145373D01*
X0022415Y0144052D01*
X0021700Y0142327D01*
X0021700Y0140460D01*
X0022415Y0138735D01*
X0023735Y0137415D01*
X0025460Y0136700D01*
X0023875Y0137357D02*
X0003587Y0137357D01*
X0003587Y0138143D02*
X0023007Y0138143D01*
X0022334Y0138928D02*
X0003587Y0138928D01*
X0003587Y0139714D02*
X0022009Y0139714D01*
X0021700Y0140500D02*
X0003587Y0140500D01*
X0003587Y0141286D02*
X0021700Y0141286D01*
X0021700Y0142072D02*
X0003587Y0142072D01*
X0003587Y0142858D02*
X0021920Y0142858D01*
X0022245Y0143644D02*
X0003587Y0143644D01*
X0003587Y0144430D02*
X0022792Y0144430D01*
X0023578Y0145216D02*
X0003587Y0145216D01*
X0003587Y0146002D02*
X0025253Y0146002D01*
X0027534Y0146002D02*
X0034218Y0146002D01*
X0034438Y0146114D02*
X0033724Y0145750D01*
X0033075Y0145279D01*
X0032508Y0144712D01*
X0032037Y0144063D01*
X0031673Y0143349D01*
X0031425Y0142586D01*
X0031300Y0141795D01*
X0031300Y0141787D01*
X0036000Y0141787D01*
X0036000Y0146487D01*
X0035993Y0146487D01*
X0035201Y0146362D01*
X0034438Y0146114D01*
X0036000Y0146002D02*
X0036787Y0146002D01*
X0036787Y0146487D02*
X0036787Y0141787D01*
X0041487Y0141787D01*
X0041487Y0141795D01*
X0041362Y0142586D01*
X0041114Y0143349D01*
X0040750Y0144063D01*
X0040279Y0144712D01*
X0039712Y0145279D01*
X0039063Y0145750D01*
X0038349Y0146114D01*
X0037586Y0146362D01*
X0036795Y0146487D01*
X0036787Y0146487D01*
X0036787Y0145216D02*
X0036000Y0145216D01*
X0036000Y0144430D02*
X0036787Y0144430D01*
X0036787Y0143644D02*
X0036000Y0143644D01*
X0036000Y0142858D02*
X0036787Y0142858D01*
X0036787Y0142072D02*
X0036000Y0142072D01*
X0036000Y0141286D02*
X0031087Y0141286D01*
X0031087Y0140500D02*
X0031378Y0140500D01*
X0031584Y0139714D02*
X0030779Y0139714D01*
X0030453Y0138928D02*
X0031933Y0138928D01*
X0032460Y0138143D02*
X0029780Y0138143D01*
X0028913Y0137357D02*
X0033284Y0137357D01*
X0032829Y0136571D02*
X0003587Y0136571D01*
X0003587Y0126354D02*
X0029392Y0126354D01*
X0030178Y0127140D02*
X0028389Y0127140D01*
X0029564Y0127926D02*
X0033224Y0127926D01*
X0032438Y0128712D02*
X0030349Y0128712D01*
X0030689Y0129498D02*
X0032099Y0129498D01*
X0031773Y0130283D02*
X0031014Y0130283D01*
X0031252Y0131069D02*
X0031700Y0131069D01*
X0029614Y0131394D02*
X0034408Y0136187D01*
X0041187Y0136187D01*
X0041394Y0136394D01*
X0056394Y0136394D01*
X0058014Y0138143D02*
X0159907Y0138143D01*
X0159043Y0138928D02*
X0040854Y0138928D01*
X0041204Y0139714D02*
X0158178Y0139714D01*
X0157857Y0140006D02*
X0161511Y0136685D01*
X0161511Y0135407D01*
X0162907Y0134011D01*
X0164881Y0134011D01*
X0166276Y0135407D01*
X0166276Y0137381D01*
X0164881Y0138776D01*
X0163335Y0138776D01*
X0159351Y0142398D01*
X0158968Y0142781D01*
X0158930Y0142781D01*
X0158902Y0142807D01*
X0158361Y0142781D01*
X0141968Y0142781D01*
X0138776Y0145973D01*
X0138776Y0147381D01*
X0137381Y0148776D01*
X0135407Y0148776D01*
X0134011Y0147381D01*
X0134011Y0145407D01*
X0135407Y0144011D01*
X0136814Y0144011D01*
X0140006Y0140819D01*
X0140819Y0140006D01*
X0157857Y0140006D01*
X0158394Y0141394D02*
X0163894Y0136394D01*
X0165514Y0138143D02*
X0214862Y0138143D01*
X0215407Y0138687D02*
X0214011Y0137292D01*
X0214011Y0135318D01*
X0215407Y0133922D01*
X0217381Y0133922D01*
X0218465Y0135006D01*
X0222803Y0135006D01*
X0222508Y0134712D01*
X0222037Y0134063D01*
X0221673Y0133349D01*
X0221425Y0132586D01*
X0221300Y0131795D01*
X0221300Y0131787D01*
X0226000Y0131787D01*
X0226000Y0131000D01*
X0221300Y0131000D01*
X0221300Y0130993D01*
X0221425Y0130201D01*
X0221673Y0129438D01*
X0222037Y0128724D01*
X0222508Y0128075D01*
X0222803Y0127781D01*
X0218376Y0127781D01*
X0217381Y0128776D01*
X0215407Y0128776D01*
X0214011Y0127381D01*
X0214011Y0125407D01*
X0215407Y0124011D01*
X0217381Y0124011D01*
X0218376Y0125006D01*
X0222803Y0125006D01*
X0222508Y0124712D01*
X0222037Y0124063D01*
X0221673Y0123349D01*
X0221425Y0122586D01*
X0221300Y0121795D01*
X0221300Y0121787D01*
X0226000Y0121787D01*
X0226000Y0121000D01*
X0221300Y0121000D01*
X0221300Y0120993D01*
X0221425Y0120201D01*
X0221673Y0119438D01*
X0222037Y0118724D01*
X0222508Y0118075D01*
X0222803Y0117781D01*
X0221404Y0117781D01*
X0218494Y0120691D01*
X0218494Y0122098D01*
X0217098Y0123494D01*
X0215125Y0123494D01*
X0213729Y0122098D01*
X0213729Y0120125D01*
X0215125Y0118729D01*
X0216532Y0118729D01*
X0219442Y0115819D01*
X0220255Y0115006D01*
X0222803Y0115006D01*
X0222508Y0114712D01*
X0222037Y0114063D01*
X0221673Y0113349D01*
X0221425Y0112586D01*
X0221300Y0111795D01*
X0221300Y0111787D01*
X0226000Y0111787D01*
X0226000Y0111000D01*
X0226787Y0111000D01*
X0226787Y0106300D01*
X0226795Y0106300D01*
X0227586Y0106425D01*
X0228349Y0106673D01*
X0229063Y0107037D01*
X0229712Y0107508D01*
X0230279Y0108075D01*
X0230750Y0108724D01*
X0231114Y0109438D01*
X0231362Y0110201D01*
X0231487Y0110993D01*
X0231487Y0111000D01*
X0226787Y0111000D01*
X0226787Y0111787D01*
X0231487Y0111787D01*
X0231487Y0111795D01*
X0231362Y0112586D01*
X0231114Y0113349D01*
X0230750Y0114063D01*
X0230279Y0114712D01*
X0229985Y0115006D01*
X0233368Y0115006D01*
X0232415Y0114052D01*
X0231700Y0112327D01*
X0231700Y0110460D01*
X0232415Y0108735D01*
X0233735Y0107415D01*
X0235460Y0106700D01*
X0237327Y0106700D01*
X0239052Y0107415D01*
X0240373Y0108735D01*
X0241087Y0110460D01*
X0241087Y0112327D01*
X0240373Y0114052D01*
X0239419Y0115006D01*
X0240819Y0115006D01*
X0242227Y0113599D01*
X0241700Y0112327D01*
X0241700Y0110460D01*
X0242415Y0108735D01*
X0243735Y0107415D01*
X0245460Y0106700D01*
X0247327Y0106700D01*
X0249052Y0107415D01*
X0250373Y0108735D01*
X0251087Y0110460D01*
X0251087Y0112327D01*
X0250373Y0114052D01*
X0249052Y0115373D01*
X0247327Y0116087D01*
X0245460Y0116087D01*
X0244189Y0115561D01*
X0242781Y0116968D01*
X0241968Y0117781D01*
X0239419Y0117781D01*
X0240373Y0118735D01*
X0241087Y0120460D01*
X0241087Y0121517D01*
X0241700Y0120905D01*
X0241700Y0120460D01*
X0242415Y0118735D01*
X0243735Y0117415D01*
X0245460Y0116700D01*
X0247327Y0116700D01*
X0249052Y0117415D01*
X0250373Y0118735D01*
X0251087Y0120460D01*
X0251087Y0122327D01*
X0250373Y0124052D01*
X0249052Y0125373D01*
X0247327Y0126087D01*
X0245460Y0126087D01*
X0243735Y0125373D01*
X0242445Y0124083D01*
X0239083Y0127445D01*
X0240373Y0128735D01*
X0241087Y0130460D01*
X0241087Y0132327D01*
X0240373Y0134052D01*
X0239419Y0135006D01*
X0240819Y0135006D01*
X0242227Y0133599D01*
X0241700Y0132327D01*
X0241700Y0130460D01*
X0242415Y0128735D01*
X0243735Y0127415D01*
X0245460Y0126700D01*
X0247327Y0126700D01*
X0249052Y0127415D01*
X0250373Y0128735D01*
X0251087Y0130460D01*
X0251087Y0132327D01*
X0250373Y0134052D01*
X0249052Y0135373D01*
X0247327Y0136087D01*
X0245460Y0136087D01*
X0244189Y0135561D01*
X0242781Y0136968D01*
X0241968Y0137781D01*
X0239419Y0137781D01*
X0240373Y0138735D01*
X0241087Y0140460D01*
X0241087Y0142327D01*
X0240373Y0144052D01*
X0239419Y0145006D01*
X0240819Y0145006D01*
X0242227Y0143599D01*
X0241700Y0142327D01*
X0241700Y0140460D01*
X0242415Y0138735D01*
X0243735Y0137415D01*
X0245460Y0136700D01*
X0247327Y0136700D01*
X0249052Y0137415D01*
X0250373Y0138735D01*
X0251087Y0140460D01*
X0251087Y0142327D01*
X0250373Y0144052D01*
X0249052Y0145373D01*
X0247327Y0146087D01*
X0245460Y0146087D01*
X0244189Y0145561D01*
X0242781Y0146968D01*
X0241968Y0147781D01*
X0205819Y0147781D01*
X0201814Y0143776D01*
X0200407Y0143776D01*
X0199011Y0142381D01*
X0199011Y0140407D01*
X0200407Y0139011D01*
X0202381Y0139011D01*
X0203776Y0140407D01*
X0203776Y0141814D01*
X0206968Y0145006D01*
X0222803Y0145006D01*
X0222508Y0144712D01*
X0222037Y0144063D01*
X0221673Y0143349D01*
X0221425Y0142586D01*
X0221300Y0141795D01*
X0221300Y0141787D01*
X0226000Y0141787D01*
X0226000Y0141000D01*
X0221300Y0141000D01*
X0221300Y0140993D01*
X0221425Y0140201D01*
X0221673Y0139438D01*
X0222037Y0138724D01*
X0222508Y0138075D01*
X0222803Y0137781D01*
X0218287Y0137781D01*
X0217381Y0138687D01*
X0215407Y0138687D01*
X0214076Y0137357D02*
X0166276Y0137357D01*
X0166276Y0136571D02*
X0214011Y0136571D01*
X0214011Y0135785D02*
X0166276Y0135785D01*
X0165869Y0134999D02*
X0214330Y0134999D01*
X0215116Y0134213D02*
X0165083Y0134213D01*
X0162705Y0134213D02*
X0057583Y0134213D01*
X0058369Y0134999D02*
X0161919Y0134999D01*
X0161511Y0135785D02*
X0058776Y0135785D01*
X0058776Y0136571D02*
X0161511Y0136571D01*
X0160772Y0137357D02*
X0058776Y0137357D01*
X0054773Y0138143D02*
X0040328Y0138143D01*
X0041409Y0140500D02*
X0140325Y0140500D01*
X0139539Y0141286D02*
X0036787Y0141286D01*
X0041443Y0142072D02*
X0138753Y0142072D01*
X0137967Y0142858D02*
X0041274Y0142858D01*
X0040964Y0143644D02*
X0137181Y0143644D01*
X0134988Y0144430D02*
X0040484Y0144430D01*
X0039775Y0145216D02*
X0134202Y0145216D01*
X0134011Y0146002D02*
X0038570Y0146002D01*
X0033012Y0145216D02*
X0029210Y0145216D01*
X0029995Y0144430D02*
X0032303Y0144430D01*
X0031823Y0143644D02*
X0030542Y0143644D01*
X0030868Y0142858D02*
X0031514Y0142858D01*
X0031344Y0142072D02*
X0031087Y0142072D01*
X0032043Y0135785D02*
X0028058Y0135785D01*
X0029426Y0134999D02*
X0031257Y0134999D01*
X0030472Y0134213D02*
X0030212Y0134213D01*
X0029614Y0131394D02*
X0026394Y0131394D01*
X0022099Y0129498D02*
X0020689Y0129498D01*
X0021014Y0130283D02*
X0021773Y0130283D01*
X0021700Y0131069D02*
X0021087Y0131069D01*
X0021087Y0131855D02*
X0021700Y0131855D01*
X0021830Y0132641D02*
X0020957Y0132641D01*
X0020632Y0133427D02*
X0022156Y0133427D01*
X0022575Y0134213D02*
X0020212Y0134213D01*
X0019426Y0134999D02*
X0023361Y0134999D01*
X0022438Y0128712D02*
X0020349Y0128712D01*
X0019564Y0127926D02*
X0023224Y0127926D01*
X0024398Y0127140D02*
X0018389Y0127140D01*
X0018581Y0125568D02*
X0024206Y0125568D01*
X0023144Y0124782D02*
X0019643Y0124782D01*
X0020396Y0123996D02*
X0022391Y0123996D01*
X0028581Y0125568D02*
X0028606Y0125568D01*
X0030958Y0123996D02*
X0032391Y0123996D01*
X0032066Y0123210D02*
X0030722Y0123210D01*
X0031047Y0122424D02*
X0031740Y0122424D01*
X0031700Y0121638D02*
X0031087Y0121638D01*
X0031087Y0120852D02*
X0031700Y0120852D01*
X0031863Y0120067D02*
X0030924Y0120067D01*
X0030599Y0119281D02*
X0032189Y0119281D01*
X0032655Y0118495D02*
X0030133Y0118495D01*
X0030747Y0117709D02*
X0029347Y0117709D01*
X0029961Y0116923D02*
X0027865Y0116923D01*
X0029175Y0116137D02*
X0003587Y0116137D01*
X0003587Y0115351D02*
X0013713Y0115351D01*
X0012927Y0114565D02*
X0003587Y0114565D01*
X0003587Y0113779D02*
X0012301Y0113779D01*
X0011976Y0112993D02*
X0003587Y0112993D01*
X0003587Y0112207D02*
X0011700Y0112207D01*
X0011700Y0111422D02*
X0003587Y0111422D01*
X0003587Y0110636D02*
X0011700Y0110636D01*
X0011953Y0109850D02*
X0003587Y0109850D01*
X0003587Y0109064D02*
X0012278Y0109064D01*
X0012872Y0108278D02*
X0003587Y0108278D01*
X0003587Y0107492D02*
X0013658Y0107492D01*
X0015445Y0106706D02*
X0003587Y0106706D01*
X0003587Y0105920D02*
X0015056Y0105920D01*
X0013496Y0105134D02*
X0003587Y0105134D01*
X0003587Y0104348D02*
X0012710Y0104348D01*
X0012212Y0103562D02*
X0003587Y0103562D01*
X0003587Y0102776D02*
X0011886Y0102776D01*
X0011700Y0101991D02*
X0003587Y0101991D01*
X0003587Y0101205D02*
X0011700Y0101205D01*
X0011717Y0100419D02*
X0003587Y0100419D01*
X0003587Y0099633D02*
X0012043Y0099633D01*
X0012368Y0098847D02*
X0003587Y0098847D01*
X0003587Y0098061D02*
X0013089Y0098061D01*
X0003587Y0095703D02*
X0075006Y0095703D01*
X0075006Y0094917D02*
X0003587Y0094917D01*
X0003587Y0094131D02*
X0075006Y0094131D01*
X0075006Y0093346D02*
X0003587Y0093346D01*
X0003587Y0092560D02*
X0075006Y0092560D01*
X0075006Y0091774D02*
X0003587Y0091774D01*
X0003587Y0090988D02*
X0075006Y0090988D01*
X0075006Y0090202D02*
X0003587Y0090202D01*
X0003587Y0089416D02*
X0075006Y0089416D01*
X0075006Y0088630D02*
X0003587Y0088630D01*
X0003587Y0087844D02*
X0075006Y0087844D01*
X0075006Y0087058D02*
X0003587Y0087058D01*
X0003587Y0086272D02*
X0034925Y0086272D01*
X0035201Y0086362D02*
X0034438Y0086114D01*
X0033724Y0085750D01*
X0033075Y0085279D01*
X0032508Y0084712D01*
X0032037Y0084063D01*
X0031673Y0083349D01*
X0031425Y0082586D01*
X0031300Y0081795D01*
X0031300Y0081787D01*
X0036000Y0081787D01*
X0036000Y0081000D01*
X0031300Y0081000D01*
X0031300Y0080993D01*
X0031425Y0080201D01*
X0031673Y0079438D01*
X0032037Y0078724D01*
X0032508Y0078075D01*
X0032803Y0077781D01*
X0030819Y0077781D01*
X0030006Y0076968D01*
X0028599Y0075561D01*
X0027327Y0076087D01*
X0025460Y0076087D01*
X0023735Y0075373D01*
X0022415Y0074052D01*
X0021700Y0072327D01*
X0021700Y0070460D01*
X0022415Y0068735D01*
X0023735Y0067415D01*
X0025460Y0066700D01*
X0027327Y0066700D01*
X0029052Y0067415D01*
X0030373Y0068735D01*
X0031087Y0070460D01*
X0031087Y0072327D01*
X0030561Y0073599D01*
X0031968Y0075006D01*
X0033368Y0075006D01*
X0032415Y0074052D01*
X0031700Y0072327D01*
X0031700Y0070460D01*
X0032415Y0068735D01*
X0033368Y0067781D01*
X0030819Y0067781D01*
X0030006Y0066968D01*
X0028599Y0065561D01*
X0027327Y0066087D01*
X0025460Y0066087D01*
X0023735Y0065373D01*
X0022415Y0064052D01*
X0021700Y0062327D01*
X0021700Y0060460D01*
X0022415Y0058735D01*
X0023735Y0057415D01*
X0025460Y0056700D01*
X0027327Y0056700D01*
X0029052Y0057415D01*
X0030373Y0058735D01*
X0031087Y0060460D01*
X0031087Y0062327D01*
X0030561Y0063599D01*
X0031968Y0065006D01*
X0033368Y0065006D01*
X0032415Y0064052D01*
X0031700Y0062327D01*
X0031700Y0060460D01*
X0032415Y0058735D01*
X0033368Y0057781D01*
X0030819Y0057781D01*
X0030006Y0056968D01*
X0028599Y0055561D01*
X0027327Y0056087D01*
X0025460Y0056087D01*
X0023735Y0055373D01*
X0022415Y0054052D01*
X0021700Y0052327D01*
X0021700Y0050460D01*
X0022415Y0048735D01*
X0023735Y0047415D01*
X0025460Y0046700D01*
X0027327Y0046700D01*
X0029052Y0047415D01*
X0030373Y0048735D01*
X0031087Y0050460D01*
X0031087Y0052327D01*
X0030561Y0053599D01*
X0031968Y0055006D01*
X0033368Y0055006D01*
X0032415Y0054052D01*
X0031700Y0052327D01*
X0031700Y0050460D01*
X0032415Y0048735D01*
X0033368Y0047781D01*
X0030819Y0047781D01*
X0030006Y0046968D01*
X0028599Y0045561D01*
X0027327Y0046087D01*
X0025460Y0046087D01*
X0023735Y0045373D01*
X0022415Y0044052D01*
X0021700Y0042327D01*
X0021700Y0040460D01*
X0022415Y0038735D01*
X0023735Y0037415D01*
X0025460Y0036700D01*
X0027327Y0036700D01*
X0029052Y0037415D01*
X0030373Y0038735D01*
X0031087Y0040460D01*
X0031087Y0042327D01*
X0030561Y0043599D01*
X0031968Y0045006D01*
X0033368Y0045006D01*
X0032415Y0044052D01*
X0031700Y0042327D01*
X0031700Y0040460D01*
X0032415Y0038735D01*
X0033735Y0037415D01*
X0035460Y0036700D01*
X0037327Y0036700D01*
X0039052Y0037415D01*
X0040373Y0038735D01*
X0041087Y0040460D01*
X0041087Y0042327D01*
X0040373Y0044052D01*
X0039419Y0045006D01*
X0042803Y0045006D01*
X0042508Y0044712D01*
X0042037Y0044063D01*
X0041673Y0043349D01*
X0041425Y0042586D01*
X0041300Y0041795D01*
X0041300Y0041787D01*
X0046000Y0041787D01*
X0046000Y0041000D01*
X0046787Y0041000D01*
X0046787Y0036300D01*
X0046795Y0036300D01*
X0047586Y0036425D01*
X0048349Y0036673D01*
X0049063Y0037037D01*
X0049712Y0037508D01*
X0050279Y0038075D01*
X0050750Y0038724D01*
X0051114Y0039438D01*
X0051362Y0040201D01*
X0051487Y0040993D01*
X0051487Y0041000D01*
X0046787Y0041000D01*
X0046787Y0041787D01*
X0051487Y0041787D01*
X0051487Y0041795D01*
X0051362Y0042586D01*
X0051114Y0043349D01*
X0050750Y0044063D01*
X0050279Y0044712D01*
X0049985Y0045006D01*
X0054500Y0045006D01*
X0055407Y0044100D01*
X0057381Y0044100D01*
X0058776Y0045496D01*
X0058776Y0047470D01*
X0057381Y0048865D01*
X0055407Y0048865D01*
X0054323Y0047781D01*
X0049985Y0047781D01*
X0050279Y0048075D01*
X0050750Y0048724D01*
X0051114Y0049438D01*
X0051362Y0050201D01*
X0051487Y0050993D01*
X0051487Y0051000D01*
X0046787Y0051000D01*
X0046787Y0051787D01*
X0051487Y0051787D01*
X0051487Y0051795D01*
X0051362Y0052586D01*
X0051114Y0053349D01*
X0050750Y0054063D01*
X0050279Y0054712D01*
X0049985Y0055006D01*
X0054411Y0055006D01*
X0055407Y0054011D01*
X0057381Y0054011D01*
X0058776Y0055407D01*
X0058776Y0057381D01*
X0057381Y0058776D01*
X0055407Y0058776D01*
X0054411Y0057781D01*
X0049985Y0057781D01*
X0050279Y0058075D01*
X0050750Y0058724D01*
X0051114Y0059438D01*
X0051362Y0060201D01*
X0051487Y0060993D01*
X0051487Y0061000D01*
X0046787Y0061000D01*
X0046787Y0061787D01*
X0051487Y0061787D01*
X0051487Y0061795D01*
X0051362Y0062586D01*
X0051114Y0063349D01*
X0050750Y0064063D01*
X0050279Y0064712D01*
X0049985Y0065006D01*
X0054411Y0065006D01*
X0055407Y0064011D01*
X0057381Y0064011D01*
X0058776Y0065407D01*
X0058776Y0067381D01*
X0057381Y0068776D01*
X0055407Y0068776D01*
X0054411Y0067781D01*
X0049985Y0067781D01*
X0050279Y0068075D01*
X0050750Y0068724D01*
X0051114Y0069438D01*
X0051362Y0070201D01*
X0051487Y0070993D01*
X0051487Y0071000D01*
X0046787Y0071000D01*
X0046787Y0071787D01*
X0051487Y0071787D01*
X0051487Y0071795D01*
X0051362Y0072586D01*
X0051114Y0073349D01*
X0050750Y0074063D01*
X0050279Y0074712D01*
X0049985Y0075006D01*
X0054411Y0075006D01*
X0055407Y0074011D01*
X0057381Y0074011D01*
X0058776Y0075407D01*
X0058776Y0077381D01*
X0057381Y0078776D01*
X0055407Y0078776D01*
X0054411Y0077781D01*
X0039985Y0077781D01*
X0040279Y0078075D01*
X0040750Y0078724D01*
X0041114Y0079438D01*
X0041362Y0080201D01*
X0041487Y0080993D01*
X0041487Y0081000D01*
X0036787Y0081000D01*
X0036787Y0081787D01*
X0036000Y0081787D01*
X0036000Y0086487D01*
X0035993Y0086487D01*
X0035201Y0086362D01*
X0036000Y0086272D02*
X0036787Y0086272D01*
X0036787Y0086487D02*
X0036787Y0081787D01*
X0041487Y0081787D01*
X0041487Y0081795D01*
X0041362Y0082586D01*
X0041114Y0083349D01*
X0040750Y0084063D01*
X0040279Y0084712D01*
X0039712Y0085279D01*
X0039063Y0085750D01*
X0038349Y0086114D01*
X0037586Y0086362D01*
X0036795Y0086487D01*
X0036787Y0086487D01*
X0036787Y0085486D02*
X0036000Y0085486D01*
X0036000Y0084700D02*
X0036787Y0084700D01*
X0036787Y0083915D02*
X0036000Y0083915D01*
X0036000Y0083129D02*
X0036787Y0083129D01*
X0036787Y0082343D02*
X0036000Y0082343D01*
X0036000Y0081557D02*
X0031087Y0081557D01*
X0031087Y0082327D02*
X0031087Y0080460D01*
X0030373Y0078735D01*
X0029052Y0077415D01*
X0027327Y0076700D01*
X0025460Y0076700D01*
X0023735Y0077415D01*
X0022415Y0078735D01*
X0021700Y0080460D01*
X0021700Y0082327D01*
X0022415Y0084052D01*
X0023735Y0085373D01*
X0025460Y0086087D01*
X0027327Y0086087D01*
X0029052Y0085373D01*
X0030373Y0084052D01*
X0031087Y0082327D01*
X0031081Y0082343D02*
X0031387Y0082343D01*
X0031602Y0083129D02*
X0030755Y0083129D01*
X0030430Y0083915D02*
X0031961Y0083915D01*
X0032500Y0084700D02*
X0029725Y0084700D01*
X0028778Y0085486D02*
X0033361Y0085486D01*
X0037862Y0086272D02*
X0075006Y0086272D01*
X0075006Y0085486D02*
X0039427Y0085486D01*
X0040287Y0084700D02*
X0075006Y0084700D01*
X0075006Y0083915D02*
X0040826Y0083915D01*
X0041186Y0083129D02*
X0075006Y0083129D01*
X0075006Y0082343D02*
X0041401Y0082343D01*
X0041452Y0080771D02*
X0075006Y0080771D01*
X0075006Y0081557D02*
X0036787Y0081557D01*
X0041292Y0079985D02*
X0075006Y0079985D01*
X0075006Y0079199D02*
X0040992Y0079199D01*
X0040524Y0078413D02*
X0055044Y0078413D01*
X0056394Y0076394D02*
X0031394Y0076394D01*
X0026394Y0071394D01*
X0021987Y0069768D02*
X0020801Y0069768D01*
X0021087Y0070460D02*
X0020373Y0068735D01*
X0019052Y0067415D01*
X0017327Y0066700D01*
X0015460Y0066700D01*
X0013735Y0067415D01*
X0012415Y0068735D01*
X0011700Y0070460D01*
X0011700Y0072327D01*
X0012415Y0074052D01*
X0013735Y0075373D01*
X0015460Y0076087D01*
X0017327Y0076087D01*
X0019052Y0075373D01*
X0020373Y0074052D01*
X0021087Y0072327D01*
X0021087Y0070460D01*
X0021087Y0070554D02*
X0021700Y0070554D01*
X0021700Y0071340D02*
X0021087Y0071340D01*
X0021087Y0072126D02*
X0021700Y0072126D01*
X0021942Y0072912D02*
X0020845Y0072912D01*
X0020520Y0073698D02*
X0022268Y0073698D01*
X0022846Y0074484D02*
X0019942Y0074484D01*
X0019156Y0075270D02*
X0023632Y0075270D01*
X0025383Y0076055D02*
X0017405Y0076055D01*
X0015383Y0076055D02*
X0003587Y0076055D01*
X0003587Y0075270D02*
X0013632Y0075270D01*
X0012846Y0074484D02*
X0003587Y0074484D01*
X0003587Y0073698D02*
X0012268Y0073698D01*
X0011942Y0072912D02*
X0003587Y0072912D01*
X0003587Y0072126D02*
X0011700Y0072126D01*
X0011700Y0071340D02*
X0003587Y0071340D01*
X0003587Y0070554D02*
X0011700Y0070554D01*
X0011987Y0069768D02*
X0003587Y0069768D01*
X0003587Y0068982D02*
X0012312Y0068982D01*
X0012953Y0068196D02*
X0003587Y0068196D01*
X0003587Y0067410D02*
X0013745Y0067410D01*
X0014859Y0065839D02*
X0003587Y0065839D01*
X0003587Y0066624D02*
X0029662Y0066624D01*
X0029042Y0067410D02*
X0030448Y0067410D01*
X0029834Y0068196D02*
X0032953Y0068196D01*
X0032312Y0068982D02*
X0030475Y0068982D01*
X0030801Y0069768D02*
X0031987Y0069768D01*
X0031700Y0070554D02*
X0031087Y0070554D01*
X0031087Y0071340D02*
X0031700Y0071340D01*
X0031700Y0072126D02*
X0031087Y0072126D01*
X0030845Y0072912D02*
X0031942Y0072912D01*
X0032268Y0073698D02*
X0030660Y0073698D01*
X0031446Y0074484D02*
X0032846Y0074484D01*
X0030006Y0076968D02*
X0030006Y0076968D01*
X0029879Y0076841D02*
X0027669Y0076841D01*
X0027405Y0076055D02*
X0029093Y0076055D01*
X0029265Y0077627D02*
X0030665Y0077627D01*
X0030051Y0078413D02*
X0032263Y0078413D01*
X0031795Y0079199D02*
X0030565Y0079199D01*
X0030891Y0079985D02*
X0031496Y0079985D01*
X0031335Y0080771D02*
X0031087Y0080771D01*
X0025119Y0076841D02*
X0003587Y0076841D01*
X0003587Y0077627D02*
X0023522Y0077627D01*
X0022736Y0078413D02*
X0003587Y0078413D01*
X0003587Y0079199D02*
X0022222Y0079199D01*
X0021897Y0079985D02*
X0003587Y0079985D01*
X0003587Y0080771D02*
X0021700Y0080771D01*
X0021700Y0081557D02*
X0003587Y0081557D01*
X0003587Y0082343D02*
X0021706Y0082343D01*
X0022032Y0083129D02*
X0003587Y0083129D01*
X0003587Y0083915D02*
X0022357Y0083915D01*
X0023063Y0084700D02*
X0003587Y0084700D01*
X0003587Y0085486D02*
X0024009Y0085486D01*
X0039419Y0075006D02*
X0040373Y0074052D01*
X0041087Y0072327D01*
X0041087Y0070460D01*
X0040373Y0068735D01*
X0039419Y0067781D01*
X0042803Y0067781D01*
X0042508Y0068075D01*
X0042037Y0068724D01*
X0041673Y0069438D01*
X0041425Y0070201D01*
X0041300Y0070993D01*
X0041300Y0071000D01*
X0046000Y0071000D01*
X0046000Y0071787D01*
X0041300Y0071787D01*
X0041300Y0071795D01*
X0041425Y0072586D01*
X0041673Y0073349D01*
X0042037Y0074063D01*
X0042508Y0074712D01*
X0042803Y0075006D01*
X0039419Y0075006D01*
X0039942Y0074484D02*
X0042342Y0074484D01*
X0041851Y0073698D02*
X0040520Y0073698D01*
X0040845Y0072912D02*
X0041531Y0072912D01*
X0041352Y0072126D02*
X0041087Y0072126D01*
X0041087Y0071340D02*
X0046000Y0071340D01*
X0046394Y0071394D02*
X0056394Y0071394D01*
X0057853Y0074484D02*
X0075006Y0074484D01*
X0075006Y0075270D02*
X0058639Y0075270D01*
X0058776Y0076055D02*
X0075006Y0076055D01*
X0075006Y0076841D02*
X0058776Y0076841D01*
X0058530Y0077627D02*
X0075006Y0077627D01*
X0075006Y0078413D02*
X0057744Y0078413D01*
X0054934Y0074484D02*
X0050445Y0074484D01*
X0050937Y0073698D02*
X0075006Y0073698D01*
X0075006Y0072912D02*
X0051256Y0072912D01*
X0051435Y0072126D02*
X0075006Y0072126D01*
X0075006Y0071340D02*
X0046787Y0071340D01*
X0051418Y0070554D02*
X0075006Y0070554D01*
X0075006Y0069768D02*
X0051221Y0069768D01*
X0050882Y0068982D02*
X0075006Y0068982D01*
X0075006Y0068196D02*
X0057961Y0068196D01*
X0058747Y0067410D02*
X0075006Y0067410D01*
X0075006Y0066624D02*
X0058776Y0066624D01*
X0058776Y0065839D02*
X0075006Y0065839D01*
X0075006Y0065053D02*
X0058422Y0065053D01*
X0057636Y0064267D02*
X0075006Y0064267D01*
X0075006Y0063481D02*
X0051047Y0063481D01*
X0051327Y0062695D02*
X0074325Y0062695D01*
X0074011Y0061909D02*
X0051469Y0061909D01*
X0051384Y0060337D02*
X0074081Y0060337D01*
X0074011Y0061123D02*
X0046787Y0061123D01*
X0046000Y0061123D02*
X0041087Y0061123D01*
X0041300Y0061000D02*
X0041300Y0060993D01*
X0041425Y0060201D01*
X0041673Y0059438D01*
X0042037Y0058724D01*
X0042508Y0058075D01*
X0042803Y0057781D01*
X0039419Y0057781D01*
X0040373Y0058735D01*
X0041087Y0060460D01*
X0041087Y0062327D01*
X0040373Y0064052D01*
X0039419Y0065006D01*
X0042803Y0065006D01*
X0042508Y0064712D01*
X0042037Y0064063D01*
X0041673Y0063349D01*
X0041425Y0062586D01*
X0041300Y0061795D01*
X0041300Y0061787D01*
X0046000Y0061787D01*
X0046000Y0061000D01*
X0041300Y0061000D01*
X0041404Y0060337D02*
X0041036Y0060337D01*
X0040711Y0059551D02*
X0041637Y0059551D01*
X0042016Y0058765D02*
X0040385Y0058765D01*
X0039617Y0057979D02*
X0042604Y0057979D01*
X0042803Y0055006D02*
X0039419Y0055006D01*
X0040373Y0054052D01*
X0041087Y0052327D01*
X0041087Y0050460D01*
X0040373Y0048735D01*
X0039419Y0047781D01*
X0042803Y0047781D01*
X0042508Y0048075D01*
X0042037Y0048724D01*
X0041673Y0049438D01*
X0041425Y0050201D01*
X0041300Y0050993D01*
X0041300Y0051000D01*
X0046000Y0051000D01*
X0046000Y0051787D01*
X0041300Y0051787D01*
X0041300Y0051795D01*
X0041425Y0052586D01*
X0041673Y0053349D01*
X0042037Y0054063D01*
X0042508Y0054712D01*
X0042803Y0055006D01*
X0042632Y0054836D02*
X0039590Y0054836D01*
X0040374Y0054050D02*
X0042030Y0054050D01*
X0041646Y0053264D02*
X0040699Y0053264D01*
X0041025Y0052478D02*
X0041408Y0052478D01*
X0041087Y0051692D02*
X0046000Y0051692D01*
X0046787Y0051692D02*
X0074900Y0051692D01*
X0074900Y0050906D02*
X0051474Y0050906D01*
X0051336Y0050120D02*
X0074900Y0050120D01*
X0074465Y0049334D02*
X0051061Y0049334D01*
X0050623Y0048548D02*
X0055090Y0048548D01*
X0056394Y0046483D02*
X0056305Y0046394D01*
X0031394Y0046394D01*
X0026394Y0041394D01*
X0021998Y0043047D02*
X0020789Y0043047D01*
X0021087Y0042327D02*
X0020373Y0044052D01*
X0019052Y0045373D01*
X0017327Y0046087D01*
X0015460Y0046087D01*
X0013735Y0045373D01*
X0012415Y0044052D01*
X0011700Y0042327D01*
X0011700Y0040460D01*
X0012415Y0038735D01*
X0013735Y0037415D01*
X0015460Y0036700D01*
X0017327Y0036700D01*
X0019052Y0037415D01*
X0020373Y0038735D01*
X0021087Y0040460D01*
X0021087Y0042327D01*
X0021087Y0042261D02*
X0021700Y0042261D01*
X0021700Y0041475D02*
X0021087Y0041475D01*
X0021087Y0040689D02*
X0021700Y0040689D01*
X0021931Y0039903D02*
X0020857Y0039903D01*
X0020531Y0039118D02*
X0022256Y0039118D01*
X0022818Y0038332D02*
X0019970Y0038332D01*
X0019184Y0037546D02*
X0023604Y0037546D01*
X0025316Y0036760D02*
X0017472Y0036760D01*
X0015316Y0036760D02*
X0003587Y0036760D01*
X0003587Y0037546D02*
X0013604Y0037546D01*
X0012818Y0038332D02*
X0003587Y0038332D01*
X0003587Y0039118D02*
X0012256Y0039118D01*
X0011931Y0039903D02*
X0003587Y0039903D01*
X0003587Y0040689D02*
X0011700Y0040689D01*
X0011700Y0041475D02*
X0003587Y0041475D01*
X0003587Y0042261D02*
X0011700Y0042261D01*
X0011998Y0043047D02*
X0003587Y0043047D01*
X0003587Y0043833D02*
X0012324Y0043833D01*
X0012981Y0044619D02*
X0003587Y0044619D01*
X0003587Y0045405D02*
X0013812Y0045405D01*
X0014792Y0046977D02*
X0003587Y0046977D01*
X0003587Y0047763D02*
X0013387Y0047763D01*
X0013735Y0047415D02*
X0012415Y0048735D01*
X0011700Y0050460D01*
X0011700Y0052327D01*
X0012415Y0054052D01*
X0013735Y0055373D01*
X0015460Y0056087D01*
X0017327Y0056087D01*
X0019052Y0055373D01*
X0020373Y0054052D01*
X0021087Y0052327D01*
X0021087Y0050460D01*
X0020373Y0048735D01*
X0019052Y0047415D01*
X0017327Y0046700D01*
X0015460Y0046700D01*
X0013735Y0047415D01*
X0012601Y0048548D02*
X0003587Y0048548D01*
X0003587Y0049334D02*
X0012166Y0049334D01*
X0011841Y0050120D02*
X0003587Y0050120D01*
X0003587Y0050906D02*
X0011700Y0050906D01*
X0011700Y0051692D02*
X0003587Y0051692D01*
X0003587Y0052478D02*
X0011762Y0052478D01*
X0012088Y0053264D02*
X0003587Y0053264D01*
X0003587Y0054050D02*
X0012413Y0054050D01*
X0013198Y0054836D02*
X0003587Y0054836D01*
X0003587Y0055622D02*
X0014336Y0055622D01*
X0015460Y0056700D02*
X0017327Y0056700D01*
X0019052Y0057415D01*
X0020373Y0058735D01*
X0021087Y0060460D01*
X0021087Y0062327D01*
X0020373Y0064052D01*
X0019052Y0065373D01*
X0017327Y0066087D01*
X0015460Y0066087D01*
X0013735Y0065373D01*
X0012415Y0064052D01*
X0011700Y0062327D01*
X0011700Y0060460D01*
X0012415Y0058735D01*
X0013735Y0057415D01*
X0015460Y0056700D01*
X0014269Y0057194D02*
X0003587Y0057194D01*
X0003587Y0057979D02*
X0013170Y0057979D01*
X0012402Y0058765D02*
X0003587Y0058765D01*
X0003587Y0059551D02*
X0012076Y0059551D01*
X0011751Y0060337D02*
X0003587Y0060337D01*
X0003587Y0061123D02*
X0011700Y0061123D01*
X0011700Y0061909D02*
X0003587Y0061909D01*
X0003587Y0062695D02*
X0011852Y0062695D01*
X0012178Y0063481D02*
X0003587Y0063481D01*
X0003587Y0064267D02*
X0012629Y0064267D01*
X0013415Y0065053D02*
X0003587Y0065053D01*
X0003587Y0056408D02*
X0029446Y0056408D01*
X0030231Y0057194D02*
X0028519Y0057194D01*
X0029617Y0057979D02*
X0033170Y0057979D01*
X0032402Y0058765D02*
X0030385Y0058765D01*
X0030711Y0059551D02*
X0032076Y0059551D01*
X0031751Y0060337D02*
X0031036Y0060337D01*
X0031087Y0061123D02*
X0031700Y0061123D01*
X0031700Y0061909D02*
X0031087Y0061909D01*
X0030935Y0062695D02*
X0031852Y0062695D01*
X0032178Y0063481D02*
X0030610Y0063481D01*
X0031229Y0064267D02*
X0032629Y0064267D01*
X0031394Y0066394D02*
X0056394Y0066394D01*
X0054827Y0068196D02*
X0050367Y0068196D01*
X0050602Y0064267D02*
X0055151Y0064267D01*
X0055396Y0058765D02*
X0050771Y0058765D01*
X0051151Y0059551D02*
X0074867Y0059551D01*
X0074900Y0058765D02*
X0057392Y0058765D01*
X0058178Y0057979D02*
X0074699Y0057979D01*
X0074011Y0057194D02*
X0058776Y0057194D01*
X0058776Y0056408D02*
X0074011Y0056408D01*
X0074011Y0055622D02*
X0058776Y0055622D01*
X0058205Y0054836D02*
X0074493Y0054836D01*
X0074900Y0054050D02*
X0057419Y0054050D01*
X0055368Y0054050D02*
X0050757Y0054050D01*
X0051142Y0053264D02*
X0074900Y0053264D01*
X0074900Y0052478D02*
X0051379Y0052478D01*
X0050155Y0054836D02*
X0054582Y0054836D01*
X0056394Y0056394D02*
X0031394Y0056394D01*
X0026394Y0051394D01*
X0022088Y0053264D02*
X0020699Y0053264D01*
X0020374Y0054050D02*
X0022413Y0054050D01*
X0023198Y0054836D02*
X0019590Y0054836D01*
X0018452Y0055622D02*
X0024336Y0055622D01*
X0024269Y0057194D02*
X0018519Y0057194D01*
X0019617Y0057979D02*
X0023170Y0057979D01*
X0022402Y0058765D02*
X0020385Y0058765D01*
X0020711Y0059551D02*
X0022076Y0059551D01*
X0021751Y0060337D02*
X0021036Y0060337D01*
X0021087Y0061123D02*
X0021700Y0061123D01*
X0021700Y0061909D02*
X0021087Y0061909D01*
X0020935Y0062695D02*
X0021852Y0062695D01*
X0022178Y0063481D02*
X0020610Y0063481D01*
X0020159Y0064267D02*
X0022629Y0064267D01*
X0023415Y0065053D02*
X0019373Y0065053D01*
X0017928Y0065839D02*
X0024859Y0065839D01*
X0023745Y0067410D02*
X0019042Y0067410D01*
X0019834Y0068196D02*
X0022953Y0068196D01*
X0022312Y0068982D02*
X0020475Y0068982D01*
X0027928Y0065839D02*
X0028876Y0065839D01*
X0031394Y0066394D02*
X0026394Y0061394D01*
X0028452Y0055622D02*
X0028660Y0055622D01*
X0031012Y0054050D02*
X0032413Y0054050D01*
X0032088Y0053264D02*
X0030699Y0053264D01*
X0031025Y0052478D02*
X0031762Y0052478D01*
X0031700Y0051692D02*
X0031087Y0051692D01*
X0031087Y0050906D02*
X0031700Y0050906D01*
X0031841Y0050120D02*
X0030947Y0050120D01*
X0030621Y0049334D02*
X0032166Y0049334D01*
X0032601Y0048548D02*
X0030186Y0048548D01*
X0030800Y0047763D02*
X0029400Y0047763D01*
X0030015Y0046977D02*
X0027995Y0046977D01*
X0029229Y0046191D02*
X0003587Y0046191D01*
X0017995Y0046977D02*
X0024792Y0046977D01*
X0023387Y0047763D02*
X0019400Y0047763D01*
X0020186Y0048548D02*
X0022601Y0048548D01*
X0022166Y0049334D02*
X0020621Y0049334D01*
X0020947Y0050120D02*
X0021841Y0050120D01*
X0021700Y0050906D02*
X0021087Y0050906D01*
X0021087Y0051692D02*
X0021700Y0051692D01*
X0021762Y0052478D02*
X0021025Y0052478D01*
X0018975Y0045405D02*
X0023812Y0045405D01*
X0022981Y0044619D02*
X0019806Y0044619D01*
X0020464Y0043833D02*
X0022324Y0043833D01*
X0030795Y0043833D02*
X0032324Y0043833D01*
X0031998Y0043047D02*
X0030789Y0043047D01*
X0031087Y0042261D02*
X0031700Y0042261D01*
X0031700Y0041475D02*
X0031087Y0041475D01*
X0031087Y0040689D02*
X0031700Y0040689D01*
X0031931Y0039903D02*
X0030857Y0039903D01*
X0030531Y0039118D02*
X0032256Y0039118D01*
X0032818Y0038332D02*
X0029970Y0038332D01*
X0029184Y0037546D02*
X0033604Y0037546D01*
X0035316Y0036760D02*
X0027472Y0036760D01*
X0037472Y0036760D02*
X0044268Y0036760D01*
X0044438Y0036673D02*
X0045201Y0036425D01*
X0045993Y0036300D01*
X0046000Y0036300D01*
X0046000Y0041000D01*
X0041300Y0041000D01*
X0041300Y0040993D01*
X0041425Y0040201D01*
X0041673Y0039438D01*
X0042037Y0038724D01*
X0042508Y0038075D01*
X0043075Y0037508D01*
X0043724Y0037037D01*
X0044438Y0036673D01*
X0046000Y0036760D02*
X0046787Y0036760D01*
X0046787Y0037546D02*
X0046000Y0037546D01*
X0046000Y0038332D02*
X0046787Y0038332D01*
X0046787Y0039118D02*
X0046000Y0039118D01*
X0046000Y0039903D02*
X0046787Y0039903D01*
X0046787Y0040689D02*
X0046000Y0040689D01*
X0046000Y0041475D02*
X0041087Y0041475D01*
X0041087Y0040689D02*
X0041348Y0040689D01*
X0041522Y0039903D02*
X0040857Y0039903D01*
X0040531Y0039118D02*
X0041837Y0039118D01*
X0042322Y0038332D02*
X0039970Y0038332D01*
X0039184Y0037546D02*
X0043038Y0037546D01*
X0046787Y0041475D02*
X0074011Y0041475D01*
X0074011Y0040689D02*
X0051439Y0040689D01*
X0051265Y0039903D02*
X0074514Y0039903D01*
X0075300Y0039118D02*
X0050951Y0039118D01*
X0050465Y0038332D02*
X0232322Y0038332D01*
X0231837Y0039118D02*
X0077487Y0039118D01*
X0078273Y0039903D02*
X0231522Y0039903D01*
X0231348Y0040689D02*
X0078776Y0040689D01*
X0078776Y0041475D02*
X0236000Y0041475D01*
X0236000Y0040689D02*
X0236787Y0040689D01*
X0236787Y0039903D02*
X0236000Y0039903D01*
X0236000Y0039118D02*
X0236787Y0039118D01*
X0236787Y0038332D02*
X0236000Y0038332D01*
X0236000Y0037546D02*
X0236787Y0037546D01*
X0236787Y0036760D02*
X0236000Y0036760D01*
X0234268Y0036760D02*
X0048519Y0036760D01*
X0049749Y0037546D02*
X0233038Y0037546D01*
X0236787Y0041475D02*
X0241700Y0041475D01*
X0241487Y0041787D02*
X0241487Y0041795D01*
X0241362Y0042586D01*
X0241114Y0043349D01*
X0240750Y0044063D01*
X0240279Y0044712D01*
X0239712Y0045279D01*
X0239063Y0045750D01*
X0238349Y0046114D01*
X0237586Y0046362D01*
X0236795Y0046487D01*
X0236787Y0046487D01*
X0236787Y0041787D01*
X0241487Y0041787D01*
X0241413Y0042261D02*
X0241700Y0042261D01*
X0241700Y0042327D02*
X0241700Y0040460D01*
X0242415Y0038735D01*
X0243735Y0037415D01*
X0245460Y0036700D01*
X0247327Y0036700D01*
X0249052Y0037415D01*
X0250373Y0038735D01*
X0251087Y0040460D01*
X0251087Y0042327D01*
X0250373Y0044052D01*
X0249052Y0045373D01*
X0247327Y0046087D01*
X0245460Y0046087D01*
X0243735Y0045373D01*
X0242415Y0044052D01*
X0241700Y0042327D01*
X0241998Y0043047D02*
X0241212Y0043047D01*
X0240868Y0043833D02*
X0242324Y0043833D01*
X0242981Y0044619D02*
X0240347Y0044619D01*
X0239539Y0045405D02*
X0243812Y0045405D01*
X0244792Y0046977D02*
X0237995Y0046977D01*
X0238113Y0046191D02*
X0269200Y0046191D01*
X0269200Y0046977D02*
X0257995Y0046977D01*
X0257327Y0046700D02*
X0259052Y0047415D01*
X0260373Y0048735D01*
X0261087Y0050460D01*
X0261087Y0052327D01*
X0260373Y0054052D01*
X0259052Y0055373D01*
X0257327Y0056087D01*
X0255460Y0056087D01*
X0253735Y0055373D01*
X0252415Y0054052D01*
X0251700Y0052327D01*
X0251700Y0050460D01*
X0252415Y0048735D01*
X0253735Y0047415D01*
X0255460Y0046700D01*
X0257327Y0046700D01*
X0259400Y0047763D02*
X0269200Y0047763D01*
X0269200Y0048548D02*
X0260186Y0048548D01*
X0260621Y0049334D02*
X0269200Y0049334D01*
X0269200Y0050120D02*
X0260947Y0050120D01*
X0261087Y0050906D02*
X0269200Y0050906D01*
X0269200Y0051692D02*
X0261087Y0051692D01*
X0261025Y0052478D02*
X0269200Y0052478D01*
X0269200Y0053264D02*
X0260699Y0053264D01*
X0260374Y0054050D02*
X0269200Y0054050D01*
X0269200Y0054836D02*
X0259590Y0054836D01*
X0258452Y0055622D02*
X0269200Y0055622D01*
X0269200Y0056408D02*
X0243342Y0056408D01*
X0242556Y0057194D02*
X0244269Y0057194D01*
X0243170Y0057979D02*
X0239617Y0057979D01*
X0240385Y0058765D02*
X0242402Y0058765D01*
X0242076Y0059551D02*
X0240711Y0059551D01*
X0241036Y0060337D02*
X0241751Y0060337D01*
X0241700Y0061123D02*
X0241087Y0061123D01*
X0241087Y0061909D02*
X0241700Y0061909D01*
X0241852Y0062695D02*
X0240935Y0062695D01*
X0240610Y0063481D02*
X0242178Y0063481D01*
X0241559Y0064267D02*
X0240159Y0064267D01*
X0241394Y0066394D02*
X0216394Y0066394D01*
X0217961Y0068196D02*
X0222421Y0068196D01*
X0221906Y0068982D02*
X0197976Y0068982D01*
X0197976Y0068196D02*
X0199916Y0068196D01*
X0197976Y0069768D02*
X0221566Y0069768D01*
X0221369Y0070554D02*
X0197976Y0070554D01*
X0197976Y0071340D02*
X0226000Y0071340D01*
X0226787Y0071340D02*
X0231700Y0071340D01*
X0231487Y0071000D02*
X0226787Y0071000D01*
X0226787Y0071787D01*
X0231487Y0071787D01*
X0231487Y0071795D01*
X0231362Y0072586D01*
X0231114Y0073349D01*
X0230750Y0074063D01*
X0230279Y0074712D01*
X0229985Y0075006D01*
X0233368Y0075006D01*
X0232415Y0074052D01*
X0231700Y0072327D01*
X0231700Y0070460D01*
X0232415Y0068735D01*
X0233368Y0067781D01*
X0229985Y0067781D01*
X0230279Y0068075D01*
X0230750Y0068724D01*
X0231114Y0069438D01*
X0231362Y0070201D01*
X0231487Y0070993D01*
X0231487Y0071000D01*
X0231418Y0070554D02*
X0231700Y0070554D01*
X0231987Y0069768D02*
X0231221Y0069768D01*
X0230882Y0068982D02*
X0232312Y0068982D01*
X0232953Y0068196D02*
X0230367Y0068196D01*
X0229985Y0065006D02*
X0233368Y0065006D01*
X0232415Y0064052D01*
X0231700Y0062327D01*
X0231700Y0060460D01*
X0232415Y0058735D01*
X0233368Y0057781D01*
X0229985Y0057781D01*
X0230279Y0058075D01*
X0230750Y0058724D01*
X0231114Y0059438D01*
X0231362Y0060201D01*
X0231487Y0060993D01*
X0231487Y0061000D01*
X0226787Y0061000D01*
X0226787Y0061787D01*
X0231487Y0061787D01*
X0231487Y0061795D01*
X0231362Y0062586D01*
X0231114Y0063349D01*
X0230750Y0064063D01*
X0230279Y0064712D01*
X0229985Y0065006D01*
X0230602Y0064267D02*
X0232629Y0064267D01*
X0232178Y0063481D02*
X0231047Y0063481D01*
X0231327Y0062695D02*
X0231852Y0062695D01*
X0231700Y0061909D02*
X0231469Y0061909D01*
X0231700Y0061123D02*
X0226787Y0061123D01*
X0226000Y0061123D02*
X0218494Y0061123D01*
X0218494Y0061909D02*
X0221318Y0061909D01*
X0221461Y0062695D02*
X0217898Y0062695D01*
X0217112Y0063481D02*
X0221740Y0063481D01*
X0222185Y0064267D02*
X0217636Y0064267D01*
X0215151Y0064267D02*
X0202725Y0064267D01*
X0203511Y0065053D02*
X0214365Y0065053D01*
X0214011Y0065839D02*
X0203776Y0065839D01*
X0203776Y0066624D02*
X0214011Y0066624D01*
X0214041Y0067410D02*
X0203658Y0067410D01*
X0202872Y0068196D02*
X0214827Y0068196D01*
X0215111Y0063481D02*
X0197976Y0063481D01*
X0197976Y0064267D02*
X0200062Y0064267D01*
X0197976Y0062695D02*
X0214325Y0062695D01*
X0213729Y0061909D02*
X0197976Y0061909D01*
X0197976Y0061123D02*
X0213729Y0061123D01*
X0213729Y0060337D02*
X0197976Y0060337D01*
X0197976Y0059551D02*
X0214302Y0059551D01*
X0215088Y0058765D02*
X0197976Y0058765D01*
X0197976Y0057979D02*
X0217282Y0057979D01*
X0218067Y0057194D02*
X0197976Y0057194D01*
X0197976Y0056408D02*
X0218853Y0056408D01*
X0219639Y0055622D02*
X0197976Y0055622D01*
X0197976Y0054836D02*
X0222632Y0054836D01*
X0222030Y0054050D02*
X0197976Y0054050D01*
X0197976Y0053264D02*
X0221646Y0053264D01*
X0221408Y0052478D02*
X0198708Y0052478D01*
X0198805Y0051692D02*
X0226000Y0051692D01*
X0221314Y0050906D02*
X0198805Y0050906D01*
X0198519Y0050120D02*
X0221452Y0050120D01*
X0221726Y0049334D02*
X0197733Y0049334D01*
X0196422Y0051394D02*
X0196483Y0051454D01*
X0216112Y0061112D02*
X0220829Y0056394D01*
X0241394Y0056394D01*
X0246394Y0051394D01*
X0250699Y0053264D02*
X0252088Y0053264D01*
X0252413Y0054050D02*
X0250374Y0054050D01*
X0249590Y0054836D02*
X0253198Y0054836D01*
X0254336Y0055622D02*
X0248452Y0055622D01*
X0248519Y0057194D02*
X0254269Y0057194D01*
X0253735Y0057415D02*
X0255460Y0056700D01*
X0257327Y0056700D01*
X0259052Y0057415D01*
X0260373Y0058735D01*
X0261087Y0060460D01*
X0261087Y0062327D01*
X0260373Y0064052D01*
X0259052Y0065373D01*
X0257327Y0066087D01*
X0255460Y0066087D01*
X0253735Y0065373D01*
X0252415Y0064052D01*
X0251700Y0062327D01*
X0251700Y0060460D01*
X0252415Y0058735D01*
X0253735Y0057415D01*
X0253170Y0057979D02*
X0249617Y0057979D01*
X0250385Y0058765D02*
X0252402Y0058765D01*
X0252076Y0059551D02*
X0250711Y0059551D01*
X0251036Y0060337D02*
X0251751Y0060337D01*
X0251700Y0061123D02*
X0251087Y0061123D01*
X0251087Y0061909D02*
X0251700Y0061909D01*
X0251852Y0062695D02*
X0250935Y0062695D01*
X0250610Y0063481D02*
X0252178Y0063481D01*
X0252629Y0064267D02*
X0250159Y0064267D01*
X0249373Y0065053D02*
X0253415Y0065053D01*
X0254859Y0065839D02*
X0247928Y0065839D01*
X0249042Y0067410D02*
X0253745Y0067410D01*
X0253735Y0067415D02*
X0255460Y0066700D01*
X0257327Y0066700D01*
X0259052Y0067415D01*
X0260373Y0068735D01*
X0261087Y0070460D01*
X0261087Y0072327D01*
X0260373Y0074052D01*
X0259052Y0075373D01*
X0257327Y0076087D01*
X0255460Y0076087D01*
X0253735Y0075373D01*
X0252415Y0074052D01*
X0251700Y0072327D01*
X0251700Y0070460D01*
X0252415Y0068735D01*
X0253735Y0067415D01*
X0252953Y0068196D02*
X0249834Y0068196D01*
X0250475Y0068982D02*
X0252312Y0068982D01*
X0251987Y0069768D02*
X0250801Y0069768D01*
X0251087Y0070554D02*
X0251700Y0070554D01*
X0251700Y0071340D02*
X0251087Y0071340D01*
X0251087Y0072126D02*
X0251700Y0072126D01*
X0251942Y0072912D02*
X0250845Y0072912D01*
X0250520Y0073698D02*
X0252268Y0073698D01*
X0252846Y0074484D02*
X0249942Y0074484D01*
X0249156Y0075270D02*
X0253632Y0075270D01*
X0255383Y0076055D02*
X0247405Y0076055D01*
X0247669Y0076841D02*
X0255119Y0076841D01*
X0255460Y0076700D02*
X0253735Y0077415D01*
X0252415Y0078735D01*
X0251700Y0080460D01*
X0251700Y0082327D01*
X0252415Y0084052D01*
X0253735Y0085373D01*
X0255460Y0086087D01*
X0257327Y0086087D01*
X0259052Y0085373D01*
X0260373Y0084052D01*
X0261087Y0082327D01*
X0261087Y0080460D01*
X0260373Y0078735D01*
X0259052Y0077415D01*
X0257327Y0076700D01*
X0255460Y0076700D01*
X0257405Y0076055D02*
X0269200Y0076055D01*
X0269200Y0075270D02*
X0259156Y0075270D01*
X0259942Y0074484D02*
X0269200Y0074484D01*
X0269200Y0073698D02*
X0260520Y0073698D01*
X0260845Y0072912D02*
X0269200Y0072912D01*
X0269200Y0072126D02*
X0261087Y0072126D01*
X0261087Y0071340D02*
X0269200Y0071340D01*
X0269200Y0070554D02*
X0261087Y0070554D01*
X0260801Y0069768D02*
X0269200Y0069768D01*
X0269200Y0068982D02*
X0260475Y0068982D01*
X0259834Y0068196D02*
X0269200Y0068196D01*
X0269200Y0067410D02*
X0259042Y0067410D01*
X0257928Y0065839D02*
X0269200Y0065839D01*
X0269200Y0066624D02*
X0243125Y0066624D01*
X0243745Y0067410D02*
X0242339Y0067410D01*
X0242953Y0068196D02*
X0239834Y0068196D01*
X0240475Y0068982D02*
X0242312Y0068982D01*
X0241987Y0069768D02*
X0240801Y0069768D01*
X0241087Y0070554D02*
X0241700Y0070554D01*
X0241700Y0071340D02*
X0241087Y0071340D01*
X0241087Y0072126D02*
X0241700Y0072126D01*
X0241942Y0072912D02*
X0240845Y0072912D01*
X0240520Y0073698D02*
X0242128Y0073698D01*
X0241342Y0074484D02*
X0239942Y0074484D01*
X0241394Y0076394D02*
X0216483Y0076394D01*
X0216394Y0076305D01*
X0217942Y0074484D02*
X0222342Y0074484D01*
X0221851Y0073698D02*
X0197976Y0073698D01*
X0197976Y0074484D02*
X0214845Y0074484D01*
X0214059Y0075270D02*
X0197976Y0075270D01*
X0197976Y0076055D02*
X0214011Y0076055D01*
X0214011Y0076841D02*
X0197976Y0076841D01*
X0197976Y0077627D02*
X0214347Y0077627D01*
X0215133Y0078413D02*
X0197976Y0078413D01*
X0197976Y0079199D02*
X0200219Y0079199D01*
X0199433Y0079985D02*
X0197976Y0079985D01*
X0197976Y0080771D02*
X0199011Y0080771D01*
X0199011Y0081557D02*
X0197976Y0081557D01*
X0197976Y0082343D02*
X0199011Y0082343D01*
X0199759Y0083129D02*
X0197976Y0083129D01*
X0197976Y0083915D02*
X0201952Y0083915D01*
X0202738Y0084700D02*
X0197976Y0084700D01*
X0197976Y0085486D02*
X0203524Y0085486D01*
X0204310Y0086272D02*
X0197976Y0086272D01*
X0197976Y0087058D02*
X0205096Y0087058D01*
X0206394Y0086394D02*
X0201394Y0081394D01*
X0203776Y0081557D02*
X0226000Y0081557D01*
X0226787Y0081557D02*
X0231700Y0081557D01*
X0231487Y0081787D02*
X0231487Y0081795D01*
X0231362Y0082586D01*
X0231114Y0083349D01*
X0230750Y0084063D01*
X0230279Y0084712D01*
X0229985Y0085006D01*
X0233368Y0085006D01*
X0232415Y0084052D01*
X0231700Y0082327D01*
X0231700Y0080460D01*
X0232415Y0078735D01*
X0233368Y0077781D01*
X0229985Y0077781D01*
X0230279Y0078075D01*
X0230750Y0078724D01*
X0231114Y0079438D01*
X0231362Y0080201D01*
X0231487Y0080993D01*
X0231487Y0081000D01*
X0226787Y0081000D01*
X0226787Y0081787D01*
X0231487Y0081787D01*
X0231401Y0082343D02*
X0231706Y0082343D01*
X0232032Y0083129D02*
X0231186Y0083129D01*
X0230826Y0083915D02*
X0232357Y0083915D01*
X0233063Y0084700D02*
X0230287Y0084700D01*
X0231452Y0080771D02*
X0231700Y0080771D01*
X0231897Y0079985D02*
X0231292Y0079985D01*
X0230992Y0079199D02*
X0232222Y0079199D01*
X0232736Y0078413D02*
X0230524Y0078413D01*
X0230445Y0074484D02*
X0232846Y0074484D01*
X0232268Y0073698D02*
X0230937Y0073698D01*
X0231256Y0072912D02*
X0231942Y0072912D01*
X0231700Y0072126D02*
X0231435Y0072126D01*
X0221531Y0072912D02*
X0197976Y0072912D01*
X0197976Y0072126D02*
X0221352Y0072126D01*
X0222263Y0078413D02*
X0217655Y0078413D01*
X0221496Y0079985D02*
X0203355Y0079985D01*
X0203776Y0080771D02*
X0221335Y0080771D01*
X0221387Y0082343D02*
X0204305Y0082343D01*
X0205091Y0083129D02*
X0221602Y0083129D01*
X0221961Y0083915D02*
X0205877Y0083915D01*
X0206663Y0084700D02*
X0222500Y0084700D01*
X0221795Y0079199D02*
X0202569Y0079199D01*
X0194989Y0079199D02*
X0132569Y0079199D01*
X0133355Y0079985D02*
X0194989Y0079985D01*
X0194989Y0080771D02*
X0133776Y0080771D01*
X0133776Y0081557D02*
X0194989Y0081557D01*
X0194989Y0082343D02*
X0134455Y0082343D01*
X0135241Y0083129D02*
X0194989Y0083129D01*
X0194989Y0083915D02*
X0136027Y0083915D01*
X0136813Y0084700D02*
X0194989Y0084700D01*
X0194989Y0085486D02*
X0137599Y0085486D01*
X0138385Y0086272D02*
X0194989Y0086272D01*
X0194989Y0087058D02*
X0139171Y0087058D01*
X0139957Y0087844D02*
X0194989Y0087844D01*
X0194989Y0088630D02*
X0140742Y0088630D01*
X0141528Y0089416D02*
X0194989Y0089416D01*
X0194989Y0090202D02*
X0142314Y0090202D01*
X0143100Y0090988D02*
X0194989Y0090988D01*
X0194989Y0091774D02*
X0143886Y0091774D01*
X0144672Y0092560D02*
X0194989Y0092560D01*
X0194989Y0093346D02*
X0145458Y0093346D01*
X0146244Y0094131D02*
X0180286Y0094131D01*
X0182501Y0094131D02*
X0194989Y0094131D01*
X0194989Y0094917D02*
X0183287Y0094917D01*
X0183776Y0095703D02*
X0194989Y0095703D01*
X0194989Y0096489D02*
X0183776Y0096489D01*
X0183776Y0097275D02*
X0194989Y0097275D01*
X0197976Y0097275D02*
X0233397Y0097275D01*
X0233075Y0097508D02*
X0233724Y0097037D01*
X0234438Y0096673D01*
X0235201Y0096425D01*
X0235993Y0096300D01*
X0236000Y0096300D01*
X0236000Y0101000D01*
X0231300Y0101000D01*
X0231300Y0100993D01*
X0231425Y0100201D01*
X0231673Y0099438D01*
X0232037Y0098724D01*
X0232508Y0098075D01*
X0233075Y0097508D01*
X0232523Y0098061D02*
X0197976Y0098061D01*
X0197976Y0098847D02*
X0231975Y0098847D01*
X0231610Y0099633D02*
X0197976Y0099633D01*
X0197976Y0100419D02*
X0231391Y0100419D01*
X0231300Y0101787D02*
X0236000Y0101787D01*
X0236000Y0101000D01*
X0236787Y0101000D01*
X0236787Y0096300D01*
X0236795Y0096300D01*
X0237586Y0096425D01*
X0238349Y0096673D01*
X0239063Y0097037D01*
X0239712Y0097508D01*
X0240279Y0098075D01*
X0240750Y0098724D01*
X0241114Y0099438D01*
X0241362Y0100201D01*
X0241487Y0100993D01*
X0241487Y0101000D01*
X0236787Y0101000D01*
X0236787Y0101787D01*
X0236000Y0101787D01*
X0236000Y0106487D01*
X0235993Y0106487D01*
X0235201Y0106362D01*
X0234438Y0106114D01*
X0233724Y0105750D01*
X0233075Y0105279D01*
X0232508Y0104712D01*
X0232037Y0104063D01*
X0231673Y0103349D01*
X0231425Y0102586D01*
X0231300Y0101795D01*
X0231300Y0101787D01*
X0231331Y0101991D02*
X0197976Y0101991D01*
X0197976Y0102776D02*
X0231487Y0102776D01*
X0231782Y0103562D02*
X0197976Y0103562D01*
X0197976Y0104348D02*
X0232244Y0104348D01*
X0232931Y0105134D02*
X0197976Y0105134D01*
X0197976Y0105920D02*
X0234057Y0105920D01*
X0235445Y0106706D02*
X0228413Y0106706D01*
X0229689Y0107492D02*
X0233658Y0107492D01*
X0232872Y0108278D02*
X0230426Y0108278D01*
X0230923Y0109064D02*
X0232278Y0109064D01*
X0231953Y0109850D02*
X0231248Y0109850D01*
X0231431Y0110636D02*
X0231700Y0110636D01*
X0231700Y0111422D02*
X0226787Y0111422D01*
X0226787Y0110636D02*
X0226000Y0110636D01*
X0226000Y0111000D02*
X0226000Y0106300D01*
X0225993Y0106300D01*
X0225201Y0106425D01*
X0224438Y0106673D01*
X0223724Y0107037D01*
X0223075Y0107508D01*
X0222508Y0108075D01*
X0222037Y0108724D01*
X0221673Y0109438D01*
X0221425Y0110201D01*
X0221300Y0110993D01*
X0221300Y0111000D01*
X0226000Y0111000D01*
X0226000Y0111422D02*
X0198805Y0111422D01*
X0198805Y0112207D02*
X0221365Y0112207D01*
X0221558Y0112993D02*
X0198192Y0112993D01*
X0197976Y0113779D02*
X0221892Y0113779D01*
X0222402Y0114565D02*
X0197976Y0114565D01*
X0197976Y0115351D02*
X0219910Y0115351D01*
X0219442Y0115819D02*
X0219442Y0115819D01*
X0219124Y0116137D02*
X0197976Y0116137D01*
X0197976Y0116923D02*
X0218338Y0116923D01*
X0217552Y0117709D02*
X0197976Y0117709D01*
X0197976Y0118495D02*
X0216766Y0118495D01*
X0214573Y0119281D02*
X0197976Y0119281D01*
X0197976Y0120067D02*
X0213787Y0120067D01*
X0213729Y0120852D02*
X0197976Y0120852D01*
X0197976Y0121638D02*
X0213729Y0121638D01*
X0214055Y0122424D02*
X0197976Y0122424D01*
X0197976Y0123210D02*
X0214841Y0123210D01*
X0214636Y0124782D02*
X0203241Y0124782D01*
X0203776Y0125568D02*
X0214011Y0125568D01*
X0214011Y0126354D02*
X0203776Y0126354D01*
X0203776Y0127140D02*
X0214011Y0127140D01*
X0214556Y0127926D02*
X0203142Y0127926D01*
X0199645Y0127926D02*
X0196974Y0127926D01*
X0196188Y0128712D02*
X0215342Y0128712D01*
X0217445Y0128712D02*
X0222046Y0128712D01*
X0221654Y0129498D02*
X0195402Y0129498D01*
X0194616Y0130283D02*
X0221412Y0130283D01*
X0221310Y0131855D02*
X0193776Y0131855D01*
X0193830Y0131069D02*
X0226000Y0131069D01*
X0226787Y0131069D02*
X0231700Y0131069D01*
X0231487Y0131000D02*
X0226787Y0131000D01*
X0226787Y0131787D01*
X0231487Y0131787D01*
X0231487Y0131795D01*
X0231362Y0132586D01*
X0231114Y0133349D01*
X0230750Y0134063D01*
X0230279Y0134712D01*
X0229985Y0135006D01*
X0233368Y0135006D01*
X0232415Y0134052D01*
X0231700Y0132327D01*
X0231700Y0130460D01*
X0232415Y0128735D01*
X0233368Y0127781D01*
X0229985Y0127781D01*
X0230279Y0128075D01*
X0230750Y0128724D01*
X0231114Y0129438D01*
X0231362Y0130201D01*
X0231487Y0130993D01*
X0231487Y0131000D01*
X0231375Y0130283D02*
X0231773Y0130283D01*
X0232099Y0129498D02*
X0231133Y0129498D01*
X0230741Y0128712D02*
X0232438Y0128712D01*
X0233224Y0127926D02*
X0230129Y0127926D01*
X0229985Y0125006D02*
X0233368Y0125006D01*
X0232415Y0124052D01*
X0231700Y0122327D01*
X0231700Y0120460D01*
X0232415Y0118735D01*
X0233368Y0117781D01*
X0229985Y0117781D01*
X0230279Y0118075D01*
X0230750Y0118724D01*
X0231114Y0119438D01*
X0231362Y0120201D01*
X0231487Y0120993D01*
X0231487Y0121000D01*
X0226787Y0121000D01*
X0226787Y0121787D01*
X0231487Y0121787D01*
X0231487Y0121795D01*
X0231362Y0122586D01*
X0231114Y0123349D01*
X0230750Y0124063D01*
X0230279Y0124712D01*
X0229985Y0125006D01*
X0230209Y0124782D02*
X0233144Y0124782D01*
X0232391Y0123996D02*
X0230784Y0123996D01*
X0231159Y0123210D02*
X0232066Y0123210D01*
X0231740Y0122424D02*
X0231388Y0122424D01*
X0231700Y0121638D02*
X0226787Y0121638D01*
X0226000Y0121638D02*
X0218494Y0121638D01*
X0218494Y0120852D02*
X0221322Y0120852D01*
X0221469Y0120067D02*
X0219119Y0120067D01*
X0219905Y0119281D02*
X0221754Y0119281D01*
X0222204Y0118495D02*
X0220690Y0118495D01*
X0220829Y0116394D02*
X0216112Y0121112D01*
X0218168Y0122424D02*
X0221400Y0122424D01*
X0221628Y0123210D02*
X0217382Y0123210D01*
X0218152Y0124782D02*
X0222578Y0124782D01*
X0222003Y0123996D02*
X0202455Y0123996D01*
X0200333Y0123996D02*
X0197976Y0123996D01*
X0197976Y0124782D02*
X0199547Y0124782D01*
X0191394Y0131394D02*
X0191394Y0131483D01*
X0192819Y0133427D02*
X0221713Y0133427D01*
X0221443Y0132641D02*
X0193605Y0132641D01*
X0189968Y0133427D02*
X0115353Y0133427D01*
X0116139Y0132641D02*
X0148922Y0132641D01*
X0141394Y0141394D02*
X0158394Y0141394D01*
X0159710Y0142072D02*
X0199011Y0142072D01*
X0199011Y0141286D02*
X0160574Y0141286D01*
X0161439Y0140500D02*
X0199011Y0140500D01*
X0199703Y0139714D02*
X0162303Y0139714D01*
X0163168Y0138928D02*
X0221933Y0138928D01*
X0221584Y0139714D02*
X0203084Y0139714D01*
X0203776Y0140500D02*
X0221378Y0140500D01*
X0221344Y0142072D02*
X0204034Y0142072D01*
X0203776Y0141286D02*
X0226000Y0141286D01*
X0226787Y0141286D02*
X0231700Y0141286D01*
X0231487Y0141000D02*
X0226787Y0141000D01*
X0226787Y0141787D01*
X0231487Y0141787D01*
X0231487Y0141795D01*
X0231362Y0142586D01*
X0231114Y0143349D01*
X0230750Y0144063D01*
X0230279Y0144712D01*
X0229985Y0145006D01*
X0233368Y0145006D01*
X0232415Y0144052D01*
X0231700Y0142327D01*
X0231700Y0140460D01*
X0232415Y0138735D01*
X0233368Y0137781D01*
X0229985Y0137781D01*
X0230279Y0138075D01*
X0230750Y0138724D01*
X0231114Y0139438D01*
X0231362Y0140201D01*
X0231487Y0140993D01*
X0231487Y0141000D01*
X0231409Y0140500D02*
X0231700Y0140500D01*
X0232009Y0139714D02*
X0231204Y0139714D01*
X0230854Y0138928D02*
X0232334Y0138928D01*
X0233007Y0138143D02*
X0230328Y0138143D01*
X0229992Y0134999D02*
X0233361Y0134999D01*
X0232575Y0134213D02*
X0230642Y0134213D01*
X0231074Y0133427D02*
X0232156Y0133427D01*
X0231830Y0132641D02*
X0231344Y0132641D01*
X0231478Y0131855D02*
X0231700Y0131855D01*
X0239426Y0134999D02*
X0240826Y0134999D01*
X0240212Y0134213D02*
X0241612Y0134213D01*
X0242156Y0133427D02*
X0240632Y0133427D01*
X0240957Y0132641D02*
X0241830Y0132641D01*
X0241700Y0131855D02*
X0241087Y0131855D01*
X0241087Y0131069D02*
X0241700Y0131069D01*
X0241773Y0130283D02*
X0241014Y0130283D01*
X0240689Y0129498D02*
X0242099Y0129498D01*
X0242438Y0128712D02*
X0240349Y0128712D01*
X0239564Y0127926D02*
X0243224Y0127926D01*
X0244398Y0127140D02*
X0239389Y0127140D01*
X0240175Y0126354D02*
X0269200Y0126354D01*
X0269200Y0127140D02*
X0258389Y0127140D01*
X0259052Y0127415D02*
X0260373Y0128735D01*
X0261087Y0130460D01*
X0261087Y0132327D01*
X0260373Y0134052D01*
X0259052Y0135373D01*
X0257327Y0136087D01*
X0255460Y0136087D01*
X0253735Y0135373D01*
X0252415Y0134052D01*
X0251700Y0132327D01*
X0251700Y0130460D01*
X0252415Y0128735D01*
X0253735Y0127415D01*
X0255460Y0126700D01*
X0257327Y0126700D01*
X0259052Y0127415D01*
X0259564Y0127926D02*
X0269200Y0127926D01*
X0269200Y0128712D02*
X0260349Y0128712D01*
X0260689Y0129498D02*
X0269200Y0129498D01*
X0269200Y0130283D02*
X0261014Y0130283D01*
X0261087Y0131069D02*
X0269200Y0131069D01*
X0269200Y0131855D02*
X0261087Y0131855D01*
X0260957Y0132641D02*
X0269200Y0132641D01*
X0269200Y0133427D02*
X0260632Y0133427D01*
X0260212Y0134213D02*
X0269200Y0134213D01*
X0269200Y0134999D02*
X0259426Y0134999D01*
X0258058Y0135785D02*
X0269200Y0135785D01*
X0269200Y0136571D02*
X0243179Y0136571D01*
X0243875Y0137357D02*
X0242393Y0137357D01*
X0243007Y0138143D02*
X0239780Y0138143D01*
X0240453Y0138928D02*
X0242334Y0138928D01*
X0242009Y0139714D02*
X0240779Y0139714D01*
X0241087Y0140500D02*
X0241700Y0140500D01*
X0241700Y0141286D02*
X0241087Y0141286D01*
X0241087Y0142072D02*
X0241700Y0142072D01*
X0241920Y0142858D02*
X0240868Y0142858D01*
X0240542Y0143644D02*
X0242181Y0143644D01*
X0241395Y0144430D02*
X0239995Y0144430D01*
X0241394Y0146394D02*
X0206394Y0146394D01*
X0201394Y0141394D01*
X0199488Y0142858D02*
X0141891Y0142858D01*
X0141106Y0143644D02*
X0200274Y0143644D01*
X0202468Y0144430D02*
X0140320Y0144430D01*
X0139534Y0145216D02*
X0203254Y0145216D01*
X0204040Y0146002D02*
X0138776Y0146002D01*
X0138776Y0146788D02*
X0204826Y0146788D01*
X0205611Y0147573D02*
X0138584Y0147573D01*
X0137798Y0148359D02*
X0269200Y0148359D01*
X0269200Y0147573D02*
X0242176Y0147573D01*
X0242962Y0146788D02*
X0269200Y0146788D01*
X0269200Y0146002D02*
X0257534Y0146002D01*
X0257327Y0146087D02*
X0255460Y0146087D01*
X0253735Y0145373D01*
X0252415Y0144052D01*
X0251700Y0142327D01*
X0251700Y0140460D01*
X0252415Y0138735D01*
X0253735Y0137415D01*
X0255460Y0136700D01*
X0257327Y0136700D01*
X0259052Y0137415D01*
X0260373Y0138735D01*
X0261087Y0140460D01*
X0261087Y0142327D01*
X0260373Y0144052D01*
X0259052Y0145373D01*
X0257327Y0146087D01*
X0259210Y0145216D02*
X0269200Y0145216D01*
X0269200Y0144430D02*
X0259995Y0144430D01*
X0260542Y0143644D02*
X0269200Y0143644D01*
X0269200Y0142858D02*
X0260868Y0142858D01*
X0261087Y0142072D02*
X0269200Y0142072D01*
X0269200Y0141286D02*
X0261087Y0141286D01*
X0261087Y0140500D02*
X0269200Y0140500D01*
X0269200Y0139714D02*
X0260779Y0139714D01*
X0260453Y0138928D02*
X0269200Y0138928D01*
X0269200Y0138143D02*
X0259780Y0138143D01*
X0258913Y0137357D02*
X0269200Y0137357D01*
X0254730Y0135785D02*
X0248058Y0135785D01*
X0249426Y0134999D02*
X0253361Y0134999D01*
X0252575Y0134213D02*
X0250212Y0134213D01*
X0250632Y0133427D02*
X0252156Y0133427D01*
X0251830Y0132641D02*
X0250957Y0132641D01*
X0251087Y0131855D02*
X0251700Y0131855D01*
X0251700Y0131069D02*
X0251087Y0131069D01*
X0251014Y0130283D02*
X0251773Y0130283D01*
X0252099Y0129498D02*
X0250689Y0129498D01*
X0250349Y0128712D02*
X0252438Y0128712D01*
X0253224Y0127926D02*
X0249564Y0127926D01*
X0248389Y0127140D02*
X0254398Y0127140D01*
X0255460Y0126087D02*
X0253735Y0125373D01*
X0252415Y0124052D01*
X0251700Y0122327D01*
X0251700Y0120460D01*
X0252415Y0118735D01*
X0253735Y0117415D01*
X0255460Y0116700D01*
X0257327Y0116700D01*
X0259052Y0117415D01*
X0260373Y0118735D01*
X0261087Y0120460D01*
X0261087Y0122327D01*
X0260373Y0124052D01*
X0259052Y0125373D01*
X0257327Y0126087D01*
X0255460Y0126087D01*
X0254206Y0125568D02*
X0248581Y0125568D01*
X0249643Y0124782D02*
X0253144Y0124782D01*
X0252391Y0123996D02*
X0250396Y0123996D01*
X0250722Y0123210D02*
X0252066Y0123210D01*
X0251740Y0122424D02*
X0251047Y0122424D01*
X0251087Y0121638D02*
X0251700Y0121638D01*
X0251700Y0120852D02*
X0251087Y0120852D01*
X0250924Y0120067D02*
X0251863Y0120067D01*
X0252189Y0119281D02*
X0250599Y0119281D01*
X0250133Y0118495D02*
X0252655Y0118495D01*
X0253441Y0117709D02*
X0249347Y0117709D01*
X0247865Y0116923D02*
X0254922Y0116923D01*
X0255460Y0116087D02*
X0253735Y0115373D01*
X0252415Y0114052D01*
X0251700Y0112327D01*
X0251700Y0110460D01*
X0252415Y0108735D01*
X0253735Y0107415D01*
X0255460Y0106700D01*
X0257327Y0106700D01*
X0259052Y0107415D01*
X0260373Y0108735D01*
X0261087Y0110460D01*
X0261087Y0112327D01*
X0260373Y0114052D01*
X0259052Y0115373D01*
X0257327Y0116087D01*
X0255460Y0116087D01*
X0253713Y0115351D02*
X0249074Y0115351D01*
X0249860Y0114565D02*
X0252927Y0114565D01*
X0252301Y0113779D02*
X0250486Y0113779D01*
X0250812Y0112993D02*
X0251976Y0112993D01*
X0251700Y0112207D02*
X0251087Y0112207D01*
X0251087Y0111422D02*
X0251700Y0111422D01*
X0251700Y0110636D02*
X0251087Y0110636D01*
X0250835Y0109850D02*
X0251953Y0109850D01*
X0252278Y0109064D02*
X0250509Y0109064D01*
X0249916Y0108278D02*
X0252872Y0108278D01*
X0253658Y0107492D02*
X0249130Y0107492D01*
X0247342Y0106706D02*
X0255445Y0106706D01*
X0257342Y0106706D02*
X0269200Y0106706D01*
X0269200Y0105920D02*
X0247731Y0105920D01*
X0247327Y0106087D02*
X0245460Y0106087D01*
X0243735Y0105373D01*
X0242415Y0104052D01*
X0241700Y0102327D01*
X0241700Y0100460D01*
X0242415Y0098735D01*
X0243735Y0097415D01*
X0245460Y0096700D01*
X0247327Y0096700D01*
X0249052Y0097415D01*
X0250373Y0098735D01*
X0251087Y0100460D01*
X0251087Y0102327D01*
X0250373Y0104052D01*
X0249052Y0105373D01*
X0247327Y0106087D01*
X0245445Y0106706D02*
X0237342Y0106706D01*
X0237586Y0106362D02*
X0236795Y0106487D01*
X0236787Y0106487D01*
X0236787Y0101787D01*
X0241487Y0101787D01*
X0241487Y0101795D01*
X0241362Y0102586D01*
X0241114Y0103349D01*
X0240750Y0104063D01*
X0240279Y0104712D01*
X0239712Y0105279D01*
X0239063Y0105750D01*
X0238349Y0106114D01*
X0237586Y0106362D01*
X0236787Y0105920D02*
X0236000Y0105920D01*
X0236000Y0105134D02*
X0236787Y0105134D01*
X0236787Y0104348D02*
X0236000Y0104348D01*
X0236000Y0103562D02*
X0236787Y0103562D01*
X0236787Y0102776D02*
X0236000Y0102776D01*
X0236000Y0101991D02*
X0236787Y0101991D01*
X0236787Y0101205D02*
X0241700Y0101205D01*
X0241700Y0101991D02*
X0241456Y0101991D01*
X0241300Y0102776D02*
X0241886Y0102776D01*
X0242212Y0103562D02*
X0241005Y0103562D01*
X0240543Y0104348D02*
X0242710Y0104348D01*
X0243496Y0105134D02*
X0239857Y0105134D01*
X0238730Y0105920D02*
X0245056Y0105920D01*
X0243658Y0107492D02*
X0239130Y0107492D01*
X0239916Y0108278D02*
X0242872Y0108278D01*
X0242278Y0109064D02*
X0240509Y0109064D01*
X0240835Y0109850D02*
X0241953Y0109850D01*
X0241700Y0110636D02*
X0241087Y0110636D01*
X0241087Y0111422D02*
X0241700Y0111422D01*
X0241700Y0112207D02*
X0241087Y0112207D01*
X0240812Y0112993D02*
X0241976Y0112993D01*
X0242046Y0113779D02*
X0240486Y0113779D01*
X0239860Y0114565D02*
X0241260Y0114565D01*
X0241394Y0116394D02*
X0220829Y0116394D01*
X0221357Y0110636D02*
X0198805Y0110636D01*
X0198248Y0109850D02*
X0221540Y0109850D01*
X0221864Y0109064D02*
X0197976Y0109064D01*
X0197976Y0108278D02*
X0222361Y0108278D01*
X0223098Y0107492D02*
X0197976Y0107492D01*
X0197976Y0106706D02*
X0224374Y0106706D01*
X0226000Y0106706D02*
X0226787Y0106706D01*
X0226787Y0107492D02*
X0226000Y0107492D01*
X0226000Y0108278D02*
X0226787Y0108278D01*
X0226787Y0109064D02*
X0226000Y0109064D01*
X0226000Y0109850D02*
X0226787Y0109850D01*
X0231422Y0112207D02*
X0231700Y0112207D01*
X0231976Y0112993D02*
X0231230Y0112993D01*
X0230895Y0113779D02*
X0232301Y0113779D01*
X0232927Y0114565D02*
X0230386Y0114565D01*
X0230584Y0118495D02*
X0232655Y0118495D01*
X0232189Y0119281D02*
X0231034Y0119281D01*
X0231318Y0120067D02*
X0231863Y0120067D01*
X0231700Y0120852D02*
X0231465Y0120852D01*
X0238173Y0126394D02*
X0243173Y0121394D01*
X0246394Y0121394D01*
X0243144Y0124782D02*
X0241747Y0124782D01*
X0240961Y0125568D02*
X0244206Y0125568D01*
X0241700Y0120852D02*
X0241087Y0120852D01*
X0240924Y0120067D02*
X0241863Y0120067D01*
X0242189Y0119281D02*
X0240599Y0119281D01*
X0240133Y0118495D02*
X0242655Y0118495D01*
X0242041Y0117709D02*
X0243441Y0117709D01*
X0242827Y0116923D02*
X0244922Y0116923D01*
X0243612Y0116137D02*
X0269200Y0116137D01*
X0269200Y0116923D02*
X0257865Y0116923D01*
X0259347Y0117709D02*
X0269200Y0117709D01*
X0269200Y0118495D02*
X0260133Y0118495D01*
X0260599Y0119281D02*
X0269200Y0119281D01*
X0269200Y0120067D02*
X0260924Y0120067D01*
X0261087Y0120852D02*
X0269200Y0120852D01*
X0269200Y0121638D02*
X0261087Y0121638D01*
X0261047Y0122424D02*
X0269200Y0122424D01*
X0269200Y0123210D02*
X0260722Y0123210D01*
X0260396Y0123996D02*
X0269200Y0123996D01*
X0269200Y0124782D02*
X0259643Y0124782D01*
X0258581Y0125568D02*
X0269200Y0125568D01*
X0269200Y0115351D02*
X0259074Y0115351D01*
X0259860Y0114565D02*
X0269200Y0114565D01*
X0269200Y0113779D02*
X0260486Y0113779D01*
X0260812Y0112993D02*
X0269200Y0112993D01*
X0269200Y0112207D02*
X0261087Y0112207D01*
X0261087Y0111422D02*
X0269200Y0111422D01*
X0269200Y0110636D02*
X0261087Y0110636D01*
X0260835Y0109850D02*
X0269200Y0109850D01*
X0269200Y0109064D02*
X0260509Y0109064D01*
X0259916Y0108278D02*
X0269200Y0108278D01*
X0269200Y0107492D02*
X0259130Y0107492D01*
X0250576Y0103562D02*
X0269200Y0103562D01*
X0269200Y0102776D02*
X0250901Y0102776D01*
X0251087Y0101991D02*
X0269200Y0101991D01*
X0269200Y0101205D02*
X0251087Y0101205D01*
X0251070Y0100419D02*
X0269200Y0100419D01*
X0269200Y0099633D02*
X0250745Y0099633D01*
X0250419Y0098847D02*
X0269200Y0098847D01*
X0269200Y0098061D02*
X0249699Y0098061D01*
X0248716Y0097275D02*
X0269200Y0097275D01*
X0269200Y0096489D02*
X0237783Y0096489D01*
X0236787Y0096489D02*
X0236000Y0096489D01*
X0236000Y0097275D02*
X0236787Y0097275D01*
X0236787Y0098061D02*
X0236000Y0098061D01*
X0236000Y0098847D02*
X0236787Y0098847D01*
X0236787Y0099633D02*
X0236000Y0099633D01*
X0236000Y0100419D02*
X0236787Y0100419D01*
X0236000Y0101205D02*
X0197976Y0101205D01*
X0197976Y0096489D02*
X0235005Y0096489D01*
X0239391Y0097275D02*
X0244072Y0097275D01*
X0243089Y0098061D02*
X0240265Y0098061D01*
X0240813Y0098847D02*
X0242368Y0098847D01*
X0242043Y0099633D02*
X0241177Y0099633D01*
X0241396Y0100419D02*
X0241717Y0100419D01*
X0249291Y0105134D02*
X0269200Y0105134D01*
X0269200Y0104348D02*
X0250077Y0104348D01*
X0246394Y0111394D02*
X0241394Y0116394D01*
X0238173Y0126394D02*
X0216394Y0126394D01*
X0216600Y0126187D01*
X0218231Y0127926D02*
X0222658Y0127926D01*
X0222146Y0134213D02*
X0217672Y0134213D01*
X0218457Y0134999D02*
X0222795Y0134999D01*
X0222460Y0138143D02*
X0217925Y0138143D01*
X0216483Y0136394D02*
X0216394Y0136305D01*
X0216483Y0136394D02*
X0241394Y0136394D01*
X0246394Y0131394D01*
X0244730Y0135785D02*
X0243965Y0135785D01*
X0248913Y0137357D02*
X0253875Y0137357D01*
X0253007Y0138143D02*
X0249780Y0138143D01*
X0250453Y0138928D02*
X0252334Y0138928D01*
X0252009Y0139714D02*
X0250779Y0139714D01*
X0251087Y0140500D02*
X0251700Y0140500D01*
X0251700Y0141286D02*
X0251087Y0141286D01*
X0251087Y0142072D02*
X0251700Y0142072D01*
X0251920Y0142858D02*
X0250868Y0142858D01*
X0250542Y0143644D02*
X0252245Y0143644D01*
X0252792Y0144430D02*
X0249995Y0144430D01*
X0249210Y0145216D02*
X0253578Y0145216D01*
X0255253Y0146002D02*
X0247534Y0146002D01*
X0245253Y0146002D02*
X0243748Y0146002D01*
X0241394Y0146394D02*
X0246394Y0141394D01*
X0232792Y0144430D02*
X0230484Y0144430D01*
X0230964Y0143644D02*
X0232245Y0143644D01*
X0231920Y0142858D02*
X0231274Y0142858D01*
X0231443Y0142072D02*
X0231700Y0142072D01*
X0222303Y0144430D02*
X0206392Y0144430D01*
X0205606Y0143644D02*
X0221823Y0143644D01*
X0221514Y0142858D02*
X0204820Y0142858D01*
X0190009Y0129498D02*
X0128273Y0129498D01*
X0141394Y0141394D02*
X0136394Y0146394D01*
X0134011Y0146788D02*
X0003587Y0146788D01*
X0003587Y0147573D02*
X0134204Y0147573D01*
X0134990Y0148359D02*
X0003587Y0148359D01*
X0003587Y0149145D02*
X0269200Y0149145D01*
X0269200Y0149931D02*
X0003587Y0149931D01*
X0003587Y0150717D02*
X0269200Y0150717D01*
X0269200Y0151503D02*
X0003587Y0151503D01*
X0003587Y0152289D02*
X0269200Y0152289D01*
X0269200Y0153075D02*
X0253244Y0153075D01*
X0253063Y0153000D02*
X0256148Y0154278D01*
X0258510Y0156639D01*
X0259787Y0159724D01*
X0259787Y0163063D01*
X0258510Y0166148D01*
X0256148Y0168510D01*
X0253063Y0169787D01*
X0249724Y0169787D01*
X0246639Y0168510D01*
X0244278Y0166148D01*
X0243000Y0163063D01*
X0243000Y0159724D01*
X0244278Y0156639D01*
X0246639Y0154278D01*
X0249724Y0153000D01*
X0253063Y0153000D01*
X0255141Y0153861D02*
X0269200Y0153861D01*
X0269200Y0154647D02*
X0256517Y0154647D01*
X0257303Y0155433D02*
X0269200Y0155433D01*
X0269200Y0156219D02*
X0258089Y0156219D01*
X0258661Y0157004D02*
X0269200Y0157004D01*
X0269200Y0157790D02*
X0258986Y0157790D01*
X0259312Y0158576D02*
X0269200Y0158576D01*
X0269200Y0159362D02*
X0259637Y0159362D01*
X0259787Y0160148D02*
X0269200Y0160148D01*
X0269106Y0160934D02*
X0259787Y0160934D01*
X0259787Y0161720D02*
X0269088Y0161720D01*
X0269044Y0162506D02*
X0259787Y0162506D01*
X0259693Y0163292D02*
X0269000Y0163292D01*
X0268835Y0164078D02*
X0259367Y0164078D01*
X0259042Y0164864D02*
X0268656Y0164864D01*
X0268476Y0165649D02*
X0258716Y0165649D01*
X0258222Y0166435D02*
X0268297Y0166435D01*
X0268117Y0167221D02*
X0257437Y0167221D01*
X0256651Y0168007D02*
X0267745Y0168007D01*
X0267366Y0168793D02*
X0255464Y0168793D01*
X0253566Y0169579D02*
X0266988Y0169579D01*
X0266609Y0170365D02*
X0006178Y0170365D01*
X0005800Y0169579D02*
X0019221Y0169579D01*
X0019724Y0169787D02*
X0016639Y0168510D01*
X0014278Y0166148D01*
X0013000Y0163063D01*
X0013000Y0159724D01*
X0014278Y0156639D01*
X0016639Y0154278D01*
X0019724Y0153000D01*
X0023063Y0153000D01*
X0026148Y0154278D01*
X0028510Y0156639D01*
X0029787Y0159724D01*
X0029787Y0163063D01*
X0028510Y0166148D01*
X0026148Y0168510D01*
X0023063Y0169787D01*
X0019724Y0169787D01*
X0017324Y0168793D02*
X0005421Y0168793D01*
X0005043Y0168007D02*
X0016137Y0168007D01*
X0015351Y0167221D02*
X0004670Y0167221D01*
X0004491Y0166435D02*
X0014565Y0166435D01*
X0014071Y0165649D02*
X0004311Y0165649D01*
X0004132Y0164864D02*
X0013746Y0164864D01*
X0013420Y0164078D02*
X0003952Y0164078D01*
X0003788Y0163292D02*
X0013095Y0163292D01*
X0013000Y0162506D02*
X0003744Y0162506D01*
X0003699Y0161720D02*
X0013000Y0161720D01*
X0013000Y0160934D02*
X0003681Y0160934D01*
X0003587Y0160148D02*
X0013000Y0160148D01*
X0013150Y0159362D02*
X0003587Y0159362D01*
X0003587Y0158576D02*
X0013475Y0158576D01*
X0013801Y0157790D02*
X0003587Y0157790D01*
X0003587Y0157004D02*
X0014127Y0157004D01*
X0014698Y0156219D02*
X0003587Y0156219D01*
X0003587Y0155433D02*
X0015484Y0155433D01*
X0016270Y0154647D02*
X0003587Y0154647D01*
X0003587Y0153861D02*
X0017646Y0153861D01*
X0019543Y0153075D02*
X0003587Y0153075D01*
X0023244Y0153075D02*
X0249543Y0153075D01*
X0247646Y0153861D02*
X0025141Y0153861D01*
X0026517Y0154647D02*
X0246270Y0154647D01*
X0245484Y0155433D02*
X0027303Y0155433D01*
X0028089Y0156219D02*
X0244698Y0156219D01*
X0244127Y0157004D02*
X0028661Y0157004D01*
X0028986Y0157790D02*
X0243801Y0157790D01*
X0243475Y0158576D02*
X0029312Y0158576D01*
X0029637Y0159362D02*
X0243150Y0159362D01*
X0243000Y0160148D02*
X0029787Y0160148D01*
X0029787Y0160934D02*
X0243000Y0160934D01*
X0243000Y0161720D02*
X0029787Y0161720D01*
X0029787Y0162506D02*
X0243000Y0162506D01*
X0243095Y0163292D02*
X0029693Y0163292D01*
X0029367Y0164078D02*
X0243420Y0164078D01*
X0243746Y0164864D02*
X0029042Y0164864D01*
X0028716Y0165649D02*
X0244071Y0165649D01*
X0244565Y0166435D02*
X0028222Y0166435D01*
X0027437Y0167221D02*
X0245351Y0167221D01*
X0246137Y0168007D02*
X0026651Y0168007D01*
X0025464Y0168793D02*
X0247324Y0168793D01*
X0249221Y0169579D02*
X0023566Y0169579D01*
X0012512Y0176652D02*
X0260276Y0176652D01*
X0261476Y0175866D02*
X0011312Y0175866D01*
X0010326Y0175080D02*
X0262461Y0175080D01*
X0263447Y0174295D02*
X0009341Y0174295D01*
X0008542Y0173509D02*
X0264245Y0173509D01*
X0264872Y0172723D02*
X0007915Y0172723D01*
X0007289Y0171937D02*
X0265499Y0171937D01*
X0266125Y0171151D02*
X0006662Y0171151D01*
X0014144Y0177438D02*
X0258644Y0177438D01*
X0256754Y0178224D02*
X0016033Y0178224D01*
X0019679Y0179010D02*
X0253108Y0179010D01*
X0196483Y0111454D02*
X0196422Y0111394D01*
X0197976Y0095703D02*
X0269200Y0095703D01*
X0269200Y0094917D02*
X0197976Y0094917D01*
X0197976Y0094131D02*
X0269200Y0094131D01*
X0269200Y0093346D02*
X0197976Y0093346D01*
X0197976Y0092560D02*
X0269200Y0092560D01*
X0269200Y0091774D02*
X0197976Y0091774D01*
X0197976Y0090988D02*
X0269200Y0090988D01*
X0269200Y0090202D02*
X0197976Y0090202D01*
X0197976Y0089416D02*
X0269200Y0089416D01*
X0269200Y0088630D02*
X0197976Y0088630D01*
X0197976Y0087844D02*
X0269200Y0087844D01*
X0269200Y0087058D02*
X0242691Y0087058D01*
X0243477Y0086272D02*
X0269200Y0086272D01*
X0269200Y0085486D02*
X0258778Y0085486D01*
X0259725Y0084700D02*
X0269200Y0084700D01*
X0269200Y0083915D02*
X0260430Y0083915D01*
X0260755Y0083129D02*
X0269200Y0083129D01*
X0269200Y0082343D02*
X0261081Y0082343D01*
X0261087Y0081557D02*
X0269200Y0081557D01*
X0269200Y0080771D02*
X0261087Y0080771D01*
X0260891Y0079985D02*
X0269200Y0079985D01*
X0269200Y0079199D02*
X0260565Y0079199D01*
X0260051Y0078413D02*
X0269200Y0078413D01*
X0269200Y0077627D02*
X0259265Y0077627D01*
X0257669Y0076841D02*
X0269200Y0076841D01*
X0254009Y0085486D02*
X0248778Y0085486D01*
X0249725Y0084700D02*
X0253063Y0084700D01*
X0252357Y0083915D02*
X0250430Y0083915D01*
X0250755Y0083129D02*
X0252032Y0083129D01*
X0251706Y0082343D02*
X0251081Y0082343D01*
X0251087Y0081557D02*
X0251700Y0081557D01*
X0251700Y0080771D02*
X0251087Y0080771D01*
X0250891Y0079985D02*
X0251897Y0079985D01*
X0252222Y0079199D02*
X0250565Y0079199D01*
X0250051Y0078413D02*
X0252736Y0078413D01*
X0253522Y0077627D02*
X0249265Y0077627D01*
X0245383Y0076055D02*
X0243694Y0076055D01*
X0242908Y0076841D02*
X0245119Y0076841D01*
X0243522Y0077627D02*
X0242122Y0077627D01*
X0242736Y0078413D02*
X0240051Y0078413D01*
X0240565Y0079199D02*
X0242222Y0079199D01*
X0241897Y0079985D02*
X0240891Y0079985D01*
X0241087Y0080771D02*
X0241700Y0080771D01*
X0241700Y0081557D02*
X0241087Y0081557D01*
X0241081Y0082343D02*
X0241706Y0082343D01*
X0242032Y0083129D02*
X0240755Y0083129D01*
X0240430Y0083915D02*
X0241911Y0083915D01*
X0241125Y0084700D02*
X0239725Y0084700D01*
X0241394Y0086394D02*
X0206394Y0086394D01*
X0194989Y0073698D02*
X0192459Y0073698D01*
X0193245Y0072912D02*
X0194989Y0072912D01*
X0196338Y0071394D02*
X0196483Y0071249D01*
X0194989Y0069768D02*
X0193138Y0069768D01*
X0186394Y0066394D02*
X0186394Y0073914D01*
X0218848Y0060337D02*
X0221404Y0060337D01*
X0221637Y0059551D02*
X0219634Y0059551D01*
X0220420Y0058765D02*
X0222016Y0058765D01*
X0222604Y0057979D02*
X0221206Y0057979D01*
X0230183Y0057979D02*
X0233170Y0057979D01*
X0232402Y0058765D02*
X0230771Y0058765D01*
X0231151Y0059551D02*
X0232076Y0059551D01*
X0231751Y0060337D02*
X0231384Y0060337D01*
X0230155Y0054836D02*
X0233198Y0054836D01*
X0232413Y0054050D02*
X0230757Y0054050D01*
X0231142Y0053264D02*
X0232088Y0053264D01*
X0231762Y0052478D02*
X0231379Y0052478D01*
X0236000Y0046191D02*
X0236787Y0046191D01*
X0236787Y0045405D02*
X0236000Y0045405D01*
X0236000Y0044619D02*
X0236787Y0044619D01*
X0236787Y0043833D02*
X0236000Y0043833D01*
X0236000Y0043047D02*
X0236787Y0043047D01*
X0236787Y0042261D02*
X0236000Y0042261D01*
X0233249Y0045405D02*
X0164787Y0045405D01*
X0164418Y0044619D02*
X0232441Y0044619D01*
X0231920Y0043833D02*
X0163632Y0043833D01*
X0162846Y0043047D02*
X0231575Y0043047D01*
X0231374Y0042261D02*
X0078776Y0042261D01*
X0078110Y0043047D02*
X0129941Y0043047D01*
X0129988Y0043000D02*
X0132799Y0043000D01*
X0134787Y0044988D01*
X0134787Y0047799D01*
X0132799Y0049787D01*
X0129988Y0049787D01*
X0128000Y0047799D01*
X0128000Y0044988D01*
X0129988Y0043000D01*
X0129155Y0043833D02*
X0077887Y0043833D01*
X0077887Y0044619D02*
X0128369Y0044619D01*
X0128000Y0045405D02*
X0077887Y0045405D01*
X0078060Y0046191D02*
X0128000Y0046191D01*
X0128000Y0046977D02*
X0078776Y0046977D01*
X0078776Y0047763D02*
X0128000Y0047763D01*
X0128749Y0048548D02*
X0078776Y0048548D01*
X0078323Y0049334D02*
X0129535Y0049334D01*
X0133252Y0049334D02*
X0139535Y0049334D01*
X0139988Y0049787D02*
X0138000Y0047799D01*
X0138000Y0044988D01*
X0139988Y0043000D01*
X0142799Y0043000D01*
X0144787Y0044988D01*
X0144787Y0047799D01*
X0142799Y0049787D01*
X0139988Y0049787D01*
X0138749Y0048548D02*
X0134038Y0048548D01*
X0134787Y0047763D02*
X0138000Y0047763D01*
X0138000Y0046977D02*
X0134787Y0046977D01*
X0134787Y0046191D02*
X0138000Y0046191D01*
X0138000Y0045405D02*
X0134787Y0045405D01*
X0134418Y0044619D02*
X0138369Y0044619D01*
X0139155Y0043833D02*
X0133632Y0043833D01*
X0132846Y0043047D02*
X0139941Y0043047D01*
X0142846Y0043047D02*
X0149941Y0043047D01*
X0149988Y0043000D02*
X0152799Y0043000D01*
X0154787Y0044988D01*
X0154787Y0047799D01*
X0152799Y0049787D01*
X0149988Y0049787D01*
X0148000Y0047799D01*
X0148000Y0044988D01*
X0149988Y0043000D01*
X0149155Y0043833D02*
X0143632Y0043833D01*
X0144418Y0044619D02*
X0148369Y0044619D01*
X0148000Y0045405D02*
X0144787Y0045405D01*
X0144787Y0046191D02*
X0148000Y0046191D01*
X0148000Y0046977D02*
X0144787Y0046977D01*
X0144787Y0047763D02*
X0148000Y0047763D01*
X0148749Y0048548D02*
X0144038Y0048548D01*
X0143252Y0049334D02*
X0149535Y0049334D01*
X0153252Y0049334D02*
X0159535Y0049334D01*
X0158749Y0048548D02*
X0154038Y0048548D01*
X0154787Y0047763D02*
X0158000Y0047763D01*
X0158000Y0046977D02*
X0154787Y0046977D01*
X0154787Y0046191D02*
X0158000Y0046191D01*
X0158000Y0045405D02*
X0154787Y0045405D01*
X0154418Y0044619D02*
X0158369Y0044619D01*
X0159155Y0043833D02*
X0153632Y0043833D01*
X0152846Y0043047D02*
X0159941Y0043047D01*
X0160353Y0026543D02*
X0142435Y0026543D01*
X0144168Y0025757D02*
X0158619Y0025757D01*
X0162435Y0026543D02*
X0244672Y0026543D01*
X0244116Y0025757D02*
X0175866Y0025757D01*
X0176435Y0024971D02*
X0243790Y0024971D01*
X0243465Y0024185D02*
X0176487Y0024185D01*
X0176487Y0023399D02*
X0243139Y0023399D01*
X0243000Y0022613D02*
X0176487Y0022613D01*
X0176487Y0021827D02*
X0243000Y0021827D01*
X0245458Y0027329D02*
X0027329Y0027329D01*
X0026543Y0028115D02*
X0246244Y0028115D01*
X0247583Y0028901D02*
X0025204Y0028901D01*
X0023307Y0029687D02*
X0249481Y0029687D01*
X0247472Y0036760D02*
X0269200Y0036760D01*
X0269200Y0037546D02*
X0249184Y0037546D01*
X0249970Y0038332D02*
X0269200Y0038332D01*
X0269200Y0039118D02*
X0250531Y0039118D01*
X0250857Y0039903D02*
X0269200Y0039903D01*
X0269200Y0040689D02*
X0251087Y0040689D01*
X0251087Y0041475D02*
X0269200Y0041475D01*
X0269200Y0042261D02*
X0251087Y0042261D01*
X0250789Y0043047D02*
X0269200Y0043047D01*
X0269200Y0043833D02*
X0250464Y0043833D01*
X0249806Y0044619D02*
X0269200Y0044619D01*
X0269200Y0045405D02*
X0248975Y0045405D01*
X0247995Y0046977D02*
X0254792Y0046977D01*
X0253387Y0047763D02*
X0249400Y0047763D01*
X0250186Y0048548D02*
X0252601Y0048548D01*
X0252166Y0049334D02*
X0250621Y0049334D01*
X0250947Y0050120D02*
X0251841Y0050120D01*
X0251700Y0050906D02*
X0251087Y0050906D01*
X0251087Y0051692D02*
X0251700Y0051692D01*
X0251762Y0052478D02*
X0251025Y0052478D01*
X0244336Y0055622D02*
X0244128Y0055622D01*
X0241775Y0054050D02*
X0240374Y0054050D01*
X0240699Y0053264D02*
X0242088Y0053264D01*
X0241762Y0052478D02*
X0241025Y0052478D01*
X0241087Y0051692D02*
X0241700Y0051692D01*
X0241700Y0050906D02*
X0241087Y0050906D01*
X0240947Y0050120D02*
X0241841Y0050120D01*
X0242166Y0049334D02*
X0240621Y0049334D01*
X0240186Y0048548D02*
X0242601Y0048548D01*
X0243387Y0047763D02*
X0239400Y0047763D01*
X0239590Y0054836D02*
X0240990Y0054836D01*
X0246394Y0061394D02*
X0241394Y0066394D01*
X0243911Y0065839D02*
X0244859Y0065839D01*
X0246394Y0071394D02*
X0241394Y0076394D01*
X0246394Y0081394D02*
X0241394Y0086394D01*
X0259373Y0065053D02*
X0269200Y0065053D01*
X0269200Y0064267D02*
X0260159Y0064267D01*
X0260610Y0063481D02*
X0269200Y0063481D01*
X0269200Y0062695D02*
X0260935Y0062695D01*
X0261087Y0061909D02*
X0269200Y0061909D01*
X0269200Y0061123D02*
X0261087Y0061123D01*
X0261036Y0060337D02*
X0269200Y0060337D01*
X0269200Y0059551D02*
X0260711Y0059551D01*
X0260385Y0058765D02*
X0269200Y0058765D01*
X0269200Y0057979D02*
X0259617Y0057979D01*
X0258519Y0057194D02*
X0269200Y0057194D01*
X0241700Y0040689D02*
X0241439Y0040689D01*
X0241265Y0039903D02*
X0241931Y0039903D01*
X0242256Y0039118D02*
X0240951Y0039118D01*
X0240465Y0038332D02*
X0242818Y0038332D01*
X0243604Y0037546D02*
X0239749Y0037546D01*
X0238519Y0036760D02*
X0245316Y0036760D01*
X0269200Y0035974D02*
X0003587Y0035974D01*
X0003587Y0035188D02*
X0269200Y0035188D01*
X0269200Y0034402D02*
X0003587Y0034402D01*
X0003587Y0033616D02*
X0269200Y0033616D01*
X0269200Y0032830D02*
X0003587Y0032830D01*
X0003587Y0032044D02*
X0269200Y0032044D01*
X0269200Y0031258D02*
X0003587Y0031258D01*
X0031581Y0044619D02*
X0032981Y0044619D01*
X0039806Y0044619D02*
X0042441Y0044619D01*
X0041920Y0043833D02*
X0040464Y0043833D01*
X0040789Y0043047D02*
X0041575Y0043047D01*
X0041374Y0042261D02*
X0041087Y0042261D01*
X0040186Y0048548D02*
X0042165Y0048548D01*
X0041726Y0049334D02*
X0040621Y0049334D01*
X0040947Y0050120D02*
X0041452Y0050120D01*
X0041314Y0050906D02*
X0041087Y0050906D01*
X0033198Y0054836D02*
X0031798Y0054836D01*
X0041087Y0061909D02*
X0041318Y0061909D01*
X0041461Y0062695D02*
X0040935Y0062695D01*
X0040610Y0063481D02*
X0041740Y0063481D01*
X0042185Y0064267D02*
X0040159Y0064267D01*
X0039834Y0068196D02*
X0042421Y0068196D01*
X0041906Y0068982D02*
X0040475Y0068982D01*
X0040801Y0069768D02*
X0041566Y0069768D01*
X0041369Y0070554D02*
X0041087Y0070554D01*
X0050183Y0057979D02*
X0054610Y0057979D01*
X0057698Y0048548D02*
X0074011Y0048548D01*
X0074011Y0047763D02*
X0058483Y0047763D01*
X0058776Y0046977D02*
X0074011Y0046977D01*
X0074727Y0046191D02*
X0058776Y0046191D01*
X0058685Y0045405D02*
X0074900Y0045405D01*
X0074900Y0044619D02*
X0057900Y0044619D01*
X0054888Y0044619D02*
X0050347Y0044619D01*
X0050868Y0043833D02*
X0074900Y0043833D01*
X0074677Y0043047D02*
X0051212Y0043047D01*
X0051413Y0042261D02*
X0074011Y0042261D01*
X0076394Y0061394D02*
X0076394Y0101394D01*
X0074785Y0099633D02*
X0051177Y0099633D01*
X0051396Y0100419D02*
X0074011Y0100419D01*
X0074011Y0101205D02*
X0046787Y0101205D01*
X0050813Y0098847D02*
X0075006Y0098847D01*
X0075006Y0098061D02*
X0050265Y0098061D01*
X0049391Y0097275D02*
X0075006Y0097275D01*
X0075006Y0096489D02*
X0047783Y0096489D01*
X0043397Y0097275D02*
X0038716Y0097275D01*
X0039699Y0098061D02*
X0042523Y0098061D01*
X0041975Y0098847D02*
X0040419Y0098847D01*
X0040745Y0099633D02*
X0041610Y0099633D01*
X0041391Y0100419D02*
X0041070Y0100419D01*
X0034072Y0097275D02*
X0028716Y0097275D01*
X0029699Y0098061D02*
X0033089Y0098061D01*
X0032368Y0098847D02*
X0030419Y0098847D01*
X0030745Y0099633D02*
X0032043Y0099633D01*
X0031717Y0100419D02*
X0031070Y0100419D01*
X0031087Y0101205D02*
X0031700Y0101205D01*
X0031700Y0101991D02*
X0031087Y0101991D01*
X0030901Y0102776D02*
X0031886Y0102776D01*
X0032212Y0103562D02*
X0030576Y0103562D01*
X0031310Y0104348D02*
X0032710Y0104348D01*
X0031394Y0106394D02*
X0056305Y0106394D01*
X0056394Y0106483D01*
X0057968Y0108278D02*
X0074011Y0108278D01*
X0074011Y0107492D02*
X0058754Y0107492D01*
X0058776Y0106706D02*
X0074212Y0106706D01*
X0074900Y0105920D02*
X0058776Y0105920D01*
X0058415Y0105134D02*
X0074900Y0105134D01*
X0074900Y0104348D02*
X0057629Y0104348D01*
X0055158Y0104348D02*
X0050543Y0104348D01*
X0051005Y0103562D02*
X0074900Y0103562D01*
X0074407Y0102776D02*
X0051300Y0102776D01*
X0051456Y0101991D02*
X0074011Y0101991D01*
X0074194Y0109064D02*
X0050923Y0109064D01*
X0051248Y0109850D02*
X0074900Y0109850D01*
X0074900Y0110636D02*
X0051431Y0110636D01*
X0050426Y0108278D02*
X0054819Y0108278D01*
X0042402Y0114565D02*
X0039860Y0114565D01*
X0040486Y0113779D02*
X0041892Y0113779D01*
X0041558Y0112993D02*
X0040812Y0112993D01*
X0041087Y0112207D02*
X0041365Y0112207D01*
X0042204Y0118495D02*
X0040133Y0118495D01*
X0040599Y0119281D02*
X0041754Y0119281D01*
X0041469Y0120067D02*
X0040924Y0120067D01*
X0041087Y0120852D02*
X0041322Y0120852D01*
X0033144Y0124782D02*
X0031744Y0124782D01*
X0041087Y0131855D02*
X0041310Y0131855D01*
X0041443Y0132641D02*
X0040957Y0132641D01*
X0040632Y0133427D02*
X0041713Y0133427D01*
X0042146Y0134213D02*
X0040212Y0134213D01*
X0041961Y0134999D02*
X0042795Y0134999D01*
X0049992Y0134999D02*
X0054419Y0134999D01*
X0055205Y0134213D02*
X0050642Y0134213D01*
X0050129Y0127926D02*
X0054645Y0127926D01*
X0032927Y0114565D02*
X0031527Y0114565D01*
X0032301Y0113779D02*
X0030741Y0113779D01*
X0030812Y0112993D02*
X0031976Y0112993D01*
X0031700Y0112207D02*
X0031087Y0112207D01*
X0031087Y0111422D02*
X0031700Y0111422D01*
X0031700Y0110636D02*
X0031087Y0110636D01*
X0030835Y0109850D02*
X0031953Y0109850D01*
X0032278Y0109064D02*
X0030509Y0109064D01*
X0029916Y0108278D02*
X0032872Y0108278D01*
X0031394Y0106394D02*
X0026394Y0101394D01*
X0027731Y0105920D02*
X0028958Y0105920D01*
X0029744Y0106706D02*
X0027342Y0106706D01*
X0029130Y0107492D02*
X0030530Y0107492D01*
X0066394Y0081394D02*
X0073894Y0073894D01*
X0073894Y0068894D01*
X0092569Y0079199D02*
X0130219Y0079199D01*
X0129759Y0083129D02*
X0093028Y0083129D01*
X0112625Y0025757D02*
X0117452Y0025757D01*
X0117200Y0024971D02*
X0113954Y0024971D01*
X0114740Y0024185D02*
X0117200Y0024185D01*
X0117200Y0023399D02*
X0115143Y0023399D01*
X0115469Y0022613D02*
X0117200Y0022613D01*
X0117200Y0021827D02*
X0115587Y0021827D01*
X0115587Y0021042D02*
X0117200Y0021042D01*
X0117200Y0020256D02*
X0115503Y0020256D01*
X0115177Y0019470D02*
X0117200Y0019470D01*
X0117200Y0018684D02*
X0114822Y0018684D01*
X0114036Y0017898D02*
X0117200Y0017898D01*
X0117370Y0017112D02*
X0112822Y0017112D01*
X0164168Y0025757D02*
X0166921Y0025757D01*
X0166352Y0024971D02*
X0164954Y0024971D01*
X0165525Y0024185D02*
X0166300Y0024185D01*
X0166300Y0023399D02*
X0165850Y0023399D01*
X0166087Y0022613D02*
X0166300Y0022613D01*
X0166300Y0021827D02*
X0166087Y0021827D01*
X0171000Y0022613D02*
X0171787Y0022613D01*
X0171787Y0023399D02*
X0171000Y0023399D01*
X0171000Y0024185D02*
X0171787Y0024185D01*
X0171787Y0024971D02*
X0171000Y0024971D01*
X0171000Y0025757D02*
X0171787Y0025757D01*
D14*
X0171394Y0051394D03*
X0166394Y0061394D03*
X0176394Y0076394D03*
X0191394Y0071394D03*
X0201394Y0066305D03*
X0216394Y0066394D03*
X0216112Y0061112D03*
X0196422Y0051394D03*
X0216394Y0076305D03*
X0201394Y0081394D03*
X0186394Y0091394D03*
X0181394Y0096394D03*
X0186394Y0101394D03*
X0196422Y0111394D03*
X0216112Y0121112D03*
X0216394Y0126394D03*
X0216394Y0136305D03*
X0201394Y0141394D03*
X0191394Y0131483D03*
X0201394Y0126305D03*
X0176394Y0136394D03*
X0163894Y0136394D03*
X0176394Y0151394D03*
X0141394Y0126394D03*
X0116394Y0116394D03*
X0096394Y0121394D03*
X0113993Y0131417D03*
X0116394Y0141394D03*
X0101394Y0141394D03*
X0076394Y0121483D03*
X0076394Y0116483D03*
X0076394Y0107894D03*
X0076394Y0101394D03*
X0056394Y0106483D03*
X0056394Y0116394D03*
X0056394Y0126305D03*
X0056394Y0136394D03*
X0066394Y0081394D03*
X0056394Y0076394D03*
X0056394Y0066394D03*
X0056394Y0056394D03*
X0056394Y0046483D03*
X0076394Y0047894D03*
X0076394Y0041394D03*
X0076394Y0056305D03*
X0076394Y0061394D03*
X0073894Y0068894D03*
X0081394Y0076394D03*
X0091394Y0081394D03*
X0111394Y0056394D03*
X0141394Y0076394D03*
X0131394Y0081394D03*
X0136394Y0146394D03*
D15*
X0115376Y0130894D02*
X0113993Y0131417D01*
X0086305Y0131394D01*
X0076394Y0121483D01*
X0076394Y0116483D01*
X0076394Y0107894D01*
X0076394Y0101394D01*
X0066394Y0081394D02*
X0056394Y0071394D01*
X0076394Y0061394D02*
X0076394Y0056305D01*
X0076394Y0047894D01*
X0076394Y0041394D01*
X0111394Y0056394D02*
X0141677Y0056394D01*
X0161394Y0056394D01*
X0166394Y0061394D01*
X0171394Y0056394D01*
X0171394Y0051394D01*
X0186394Y0066394D01*
X0191394Y0071394D02*
X0196338Y0071394D01*
X0196483Y0071249D02*
X0196483Y0111454D01*
X0196483Y0126305D01*
X0191394Y0131394D01*
X0191394Y0131483D02*
X0181483Y0131394D01*
X0115376Y0130894D01*
X0141394Y0126394D02*
X0161394Y0126394D01*
X0186394Y0101394D01*
X0186394Y0091394D01*
X0186394Y0073914D01*
X0178874Y0073914D01*
X0176394Y0076394D01*
X0196483Y0071249D02*
X0196483Y0066305D01*
X0196483Y0051454D01*
X0196483Y0066305D02*
X0201394Y0066305D01*
X0181394Y0096394D02*
X0146394Y0096394D01*
X0131394Y0081394D01*
X0091394Y0081394D01*
X0091394Y0076394D02*
X0081394Y0076394D01*
X0091394Y0076394D02*
X0111394Y0056394D01*
X0196483Y0126305D02*
X0201394Y0126305D01*
D16*
X0176394Y0136394D02*
X0176394Y0151394D01*
X0141394Y0076394D02*
X0141677Y0056394D01*
M02*
